G04 #@! TF.FileFunction,Copper,L1,Top,Signal*
%FSLAX46Y46*%
G04 Gerber Fmt 4.6, Leading zero omitted, Abs format (unit mm)*
G04 Created by KiCad (PCBNEW 4.0.4+dfsg1-stable) date Thu Feb  9 13:36:58 2017*
%MOMM*%
%LPD*%
G01*
G04 APERTURE LIST*
%ADD10C,0.100000*%
%ADD11R,1.000000X1.250000*%
%ADD12R,2.032000X1.727200*%
%ADD13O,2.032000X1.727200*%
%ADD14R,0.700000X1.300000*%
%ADD15C,1.524000*%
%ADD16C,0.250000*%
%ADD17C,0.254000*%
G04 APERTURE END LIST*
D10*
D11*
X130000000Y-79000000D03*
X132000000Y-79000000D03*
D12*
X133000000Y-62920000D03*
D13*
X133000000Y-65460000D03*
X133000000Y-68000000D03*
X133000000Y-70540000D03*
D14*
X130050000Y-76500000D03*
X131950000Y-76500000D03*
X130050000Y-74000000D03*
X131950000Y-74000000D03*
D10*
G36*
X120554848Y-71035893D02*
X121120604Y-70470137D01*
X121686360Y-71035893D01*
X121120604Y-71601649D01*
X120554848Y-71035893D01*
X120554848Y-71035893D01*
G37*
G36*
X121898351Y-72379396D02*
X122464107Y-71813640D01*
X123029863Y-72379396D01*
X122464107Y-72945152D01*
X121898351Y-72379396D01*
X121898351Y-72379396D01*
G37*
G36*
X122640092Y-70294152D02*
X123205848Y-69728396D01*
X123771604Y-70294152D01*
X123205848Y-70859908D01*
X122640092Y-70294152D01*
X122640092Y-70294152D01*
G37*
G36*
X122464107Y-80054848D02*
X123029863Y-80620604D01*
X122464107Y-81186360D01*
X121898351Y-80620604D01*
X122464107Y-80054848D01*
X122464107Y-80054848D01*
G37*
G36*
X121120604Y-81398351D02*
X121686360Y-81964107D01*
X121120604Y-82529863D01*
X120554848Y-81964107D01*
X121120604Y-81398351D01*
X121120604Y-81398351D01*
G37*
G36*
X123205848Y-82140092D02*
X123771604Y-82705848D01*
X123205848Y-83271604D01*
X122640092Y-82705848D01*
X123205848Y-82140092D01*
X123205848Y-82140092D01*
G37*
D15*
X125000000Y-84500000D03*
X123203949Y-86296051D03*
X126796051Y-82703949D03*
X125000000Y-68500000D03*
X126796051Y-70296051D03*
X123203949Y-66703949D03*
D16*
X130050000Y-74000000D02*
X130050000Y-76500000D01*
X126796051Y-82703949D02*
X130050000Y-79450000D01*
X130050000Y-79450000D02*
X130050000Y-76500000D01*
X126796051Y-82703949D02*
X124547452Y-82703949D01*
X124547452Y-82703949D02*
X122464107Y-80620604D01*
X123203949Y-66703949D02*
X123203949Y-68952548D01*
X123203949Y-68952548D02*
X121120604Y-71035893D01*
X125000000Y-68500000D02*
X123205848Y-70294152D01*
X125000000Y-84500000D02*
X123205848Y-82705848D01*
X131950000Y-74000000D02*
X131950000Y-73100000D01*
X131950000Y-73100000D02*
X130703949Y-71853949D01*
X130703949Y-71853949D02*
X130703949Y-70296051D01*
X126796051Y-70296051D02*
X130703949Y-70296051D01*
X130703949Y-70296051D02*
X131734000Y-69266000D01*
X131734000Y-69266000D02*
X131734000Y-69113600D01*
X131734000Y-69113600D02*
X132847600Y-68000000D01*
X132847600Y-68000000D02*
X133000000Y-68000000D01*
X126796051Y-70296051D02*
X124547452Y-70296051D01*
X124547452Y-70296051D02*
X122464107Y-72379396D01*
X131950000Y-76500000D02*
X131950000Y-76200000D01*
X131950000Y-76200000D02*
X133000000Y-75150000D01*
X133000000Y-75150000D02*
X133000000Y-71653600D01*
X133000000Y-71653600D02*
X133000000Y-70540000D01*
X123203949Y-86296051D02*
X123203949Y-84047452D01*
X123203949Y-84047452D02*
X121120604Y-81964107D01*
X132847600Y-70540000D02*
X133000000Y-70540000D01*
D17*
G36*
X134290000Y-83255302D02*
X124474305Y-86879559D01*
X124600706Y-86575151D01*
X124601191Y-86019390D01*
X124521761Y-85827154D01*
X124652631Y-85881362D01*
X124873000Y-85759231D01*
X124873000Y-84806608D01*
X124985859Y-84693749D01*
X124919110Y-84627000D01*
X125127000Y-84627000D01*
X125127000Y-85759231D01*
X125347369Y-85881362D01*
X125849551Y-85643280D01*
X126222397Y-85231144D01*
X126381362Y-84847369D01*
X126259231Y-84627000D01*
X125127000Y-84627000D01*
X124919110Y-84627000D01*
X124806251Y-84514141D01*
X124693392Y-84627000D01*
X123963949Y-84627000D01*
X123963949Y-84373000D01*
X124873000Y-84373000D01*
X124873000Y-83463949D01*
X125127000Y-83463949D01*
X125127000Y-84193392D01*
X125014141Y-84306251D01*
X125193749Y-84485859D01*
X125306608Y-84373000D01*
X126259231Y-84373000D01*
X126381362Y-84152631D01*
X126317476Y-84017877D01*
X126516951Y-84100706D01*
X127072712Y-84101191D01*
X127586354Y-83888959D01*
X127979680Y-83496319D01*
X128192808Y-82983049D01*
X128193293Y-82427288D01*
X128179908Y-82394894D01*
X130302362Y-80272440D01*
X130500000Y-80272440D01*
X130735317Y-80228162D01*
X130951441Y-80089090D01*
X130997969Y-80020994D01*
X131140302Y-80163327D01*
X131373691Y-80260000D01*
X131714250Y-80260000D01*
X131873000Y-80101250D01*
X131873000Y-79127000D01*
X132127000Y-79127000D01*
X132127000Y-80101250D01*
X132285750Y-80260000D01*
X132626309Y-80260000D01*
X132859698Y-80163327D01*
X133038327Y-79984699D01*
X133135000Y-79751310D01*
X133135000Y-79285750D01*
X132976250Y-79127000D01*
X132127000Y-79127000D01*
X131873000Y-79127000D01*
X131853000Y-79127000D01*
X131853000Y-78873000D01*
X131873000Y-78873000D01*
X131873000Y-78853000D01*
X132127000Y-78853000D01*
X132127000Y-78873000D01*
X132976250Y-78873000D01*
X133135000Y-78714250D01*
X133135000Y-78248690D01*
X133038327Y-78015301D01*
X132859698Y-77836673D01*
X132626309Y-77740000D01*
X132555771Y-77740000D01*
X132751441Y-77614090D01*
X132896431Y-77401890D01*
X132947440Y-77150000D01*
X132947440Y-76277362D01*
X133537401Y-75687401D01*
X133702148Y-75440840D01*
X133760000Y-75150000D01*
X133760000Y-71923346D01*
X134244415Y-71599670D01*
X134290000Y-71531447D01*
X134290000Y-83255302D01*
X134290000Y-83255302D01*
G37*
X134290000Y-83255302D02*
X124474305Y-86879559D01*
X124600706Y-86575151D01*
X124601191Y-86019390D01*
X124521761Y-85827154D01*
X124652631Y-85881362D01*
X124873000Y-85759231D01*
X124873000Y-84806608D01*
X124985859Y-84693749D01*
X124919110Y-84627000D01*
X125127000Y-84627000D01*
X125127000Y-85759231D01*
X125347369Y-85881362D01*
X125849551Y-85643280D01*
X126222397Y-85231144D01*
X126381362Y-84847369D01*
X126259231Y-84627000D01*
X125127000Y-84627000D01*
X124919110Y-84627000D01*
X124806251Y-84514141D01*
X124693392Y-84627000D01*
X123963949Y-84627000D01*
X123963949Y-84373000D01*
X124873000Y-84373000D01*
X124873000Y-83463949D01*
X125127000Y-83463949D01*
X125127000Y-84193392D01*
X125014141Y-84306251D01*
X125193749Y-84485859D01*
X125306608Y-84373000D01*
X126259231Y-84373000D01*
X126381362Y-84152631D01*
X126317476Y-84017877D01*
X126516951Y-84100706D01*
X127072712Y-84101191D01*
X127586354Y-83888959D01*
X127979680Y-83496319D01*
X128192808Y-82983049D01*
X128193293Y-82427288D01*
X128179908Y-82394894D01*
X130302362Y-80272440D01*
X130500000Y-80272440D01*
X130735317Y-80228162D01*
X130951441Y-80089090D01*
X130997969Y-80020994D01*
X131140302Y-80163327D01*
X131373691Y-80260000D01*
X131714250Y-80260000D01*
X131873000Y-80101250D01*
X131873000Y-79127000D01*
X132127000Y-79127000D01*
X132127000Y-80101250D01*
X132285750Y-80260000D01*
X132626309Y-80260000D01*
X132859698Y-80163327D01*
X133038327Y-79984699D01*
X133135000Y-79751310D01*
X133135000Y-79285750D01*
X132976250Y-79127000D01*
X132127000Y-79127000D01*
X131873000Y-79127000D01*
X131853000Y-79127000D01*
X131853000Y-78873000D01*
X131873000Y-78873000D01*
X131873000Y-78853000D01*
X132127000Y-78853000D01*
X132127000Y-78873000D01*
X132976250Y-78873000D01*
X133135000Y-78714250D01*
X133135000Y-78248690D01*
X133038327Y-78015301D01*
X132859698Y-77836673D01*
X132626309Y-77740000D01*
X132555771Y-77740000D01*
X132751441Y-77614090D01*
X132896431Y-77401890D01*
X132947440Y-77150000D01*
X132947440Y-76277362D01*
X133537401Y-75687401D01*
X133702148Y-75440840D01*
X133760000Y-75150000D01*
X133760000Y-71923346D01*
X134244415Y-71599670D01*
X134290000Y-71531447D01*
X134290000Y-83255302D01*
G36*
X122455163Y-81833738D02*
X122579116Y-81810415D01*
X122676013Y-81907312D01*
X122676013Y-81996408D01*
X123205848Y-82526243D01*
X123219991Y-82512101D01*
X123399596Y-82691706D01*
X123385453Y-82705848D01*
X123915288Y-83235683D01*
X124004384Y-83235683D01*
X124010051Y-83241350D01*
X124169323Y-83347772D01*
X124150449Y-83356720D01*
X123856215Y-83681960D01*
X123741350Y-83510051D01*
X123735683Y-83504384D01*
X123735683Y-83415288D01*
X123205848Y-82885453D01*
X123191706Y-82899596D01*
X123012101Y-82719991D01*
X123026243Y-82705848D01*
X122496408Y-82176013D01*
X122407312Y-82176013D01*
X122310673Y-82079374D01*
X122333738Y-81973051D01*
X122301242Y-81800348D01*
X122455163Y-81833738D01*
X122455163Y-81833738D01*
G37*
X122455163Y-81833738D02*
X122579116Y-81810415D01*
X122676013Y-81907312D01*
X122676013Y-81996408D01*
X123205848Y-82526243D01*
X123219991Y-82512101D01*
X123399596Y-82691706D01*
X123385453Y-82705848D01*
X123915288Y-83235683D01*
X124004384Y-83235683D01*
X124010051Y-83241350D01*
X124169323Y-83347772D01*
X124150449Y-83356720D01*
X123856215Y-83681960D01*
X123741350Y-83510051D01*
X123735683Y-83504384D01*
X123735683Y-83415288D01*
X123205848Y-82885453D01*
X123191706Y-82899596D01*
X123012101Y-82719991D01*
X123026243Y-82705848D01*
X122496408Y-82176013D01*
X122407312Y-82176013D01*
X122310673Y-82079374D01*
X122333738Y-81973051D01*
X122301242Y-81800348D01*
X122455163Y-81833738D01*
G36*
X123856720Y-69349551D02*
X124181960Y-69643785D01*
X124010051Y-69758650D01*
X124004384Y-69764317D01*
X123915288Y-69764317D01*
X123385453Y-70294152D01*
X123399596Y-70308295D01*
X123219991Y-70487900D01*
X123205848Y-70473757D01*
X122676013Y-71003592D01*
X122676013Y-71092688D01*
X122579374Y-71189327D01*
X122473051Y-71166262D01*
X122300348Y-71198758D01*
X122333738Y-71044837D01*
X122310415Y-70920884D01*
X122407312Y-70823987D01*
X122496408Y-70823987D01*
X123026243Y-70294152D01*
X123012101Y-70280010D01*
X123191706Y-70100405D01*
X123205848Y-70114547D01*
X123735683Y-69584712D01*
X123735683Y-69495616D01*
X123741350Y-69489949D01*
X123847772Y-69330677D01*
X123856720Y-69349551D01*
X123856720Y-69349551D01*
G37*
X123856720Y-69349551D02*
X124181960Y-69643785D01*
X124010051Y-69758650D01*
X124004384Y-69764317D01*
X123915288Y-69764317D01*
X123385453Y-70294152D01*
X123399596Y-70308295D01*
X123219991Y-70487900D01*
X123205848Y-70473757D01*
X122676013Y-71003592D01*
X122676013Y-71092688D01*
X122579374Y-71189327D01*
X122473051Y-71166262D01*
X122300348Y-71198758D01*
X122333738Y-71044837D01*
X122310415Y-70920884D01*
X122407312Y-70823987D01*
X122496408Y-70823987D01*
X123026243Y-70294152D01*
X123012101Y-70280010D01*
X123191706Y-70100405D01*
X123205848Y-70114547D01*
X123735683Y-69584712D01*
X123735683Y-69495616D01*
X123741350Y-69489949D01*
X123847772Y-69330677D01*
X123856720Y-69349551D01*
G36*
X131532559Y-61592310D02*
X131387569Y-61804510D01*
X131336560Y-62056400D01*
X131336560Y-63783600D01*
X131380838Y-64018917D01*
X131519910Y-64235041D01*
X131732110Y-64380031D01*
X131826927Y-64399232D01*
X131649268Y-64557964D01*
X131395291Y-65085209D01*
X131392642Y-65100974D01*
X131513783Y-65333000D01*
X132873000Y-65333000D01*
X132873000Y-65313000D01*
X133127000Y-65313000D01*
X133127000Y-65333000D01*
X133147000Y-65333000D01*
X133147000Y-65587000D01*
X133127000Y-65587000D01*
X133127000Y-65607000D01*
X132873000Y-65607000D01*
X132873000Y-65587000D01*
X131513783Y-65587000D01*
X131392642Y-65819026D01*
X131395291Y-65834791D01*
X131649268Y-66362036D01*
X132065069Y-66733539D01*
X131755585Y-66940330D01*
X131430729Y-67426511D01*
X131316655Y-68000000D01*
X131392334Y-68380464D01*
X131196599Y-68576199D01*
X131031852Y-68822761D01*
X131014325Y-68910873D01*
X130389147Y-69536051D01*
X127993582Y-69536051D01*
X127981061Y-69505748D01*
X127588421Y-69112422D01*
X127075151Y-68899294D01*
X126519390Y-68898809D01*
X126327154Y-68978239D01*
X126381362Y-68847369D01*
X126259231Y-68627000D01*
X125306608Y-68627000D01*
X125193749Y-68514141D01*
X125014141Y-68693749D01*
X125127000Y-68806608D01*
X125127000Y-69536051D01*
X124873000Y-69536051D01*
X124873000Y-68627000D01*
X123963949Y-68627000D01*
X123963949Y-68373000D01*
X124693392Y-68373000D01*
X124806251Y-68485859D01*
X124985859Y-68306251D01*
X124873000Y-68193392D01*
X124873000Y-67240769D01*
X125127000Y-67240769D01*
X125127000Y-68373000D01*
X126259231Y-68373000D01*
X126381362Y-68152631D01*
X126143280Y-67650449D01*
X125731144Y-67277603D01*
X125347369Y-67118638D01*
X125127000Y-67240769D01*
X124873000Y-67240769D01*
X124652631Y-67118638D01*
X124517877Y-67182524D01*
X124600706Y-66983049D01*
X124601191Y-66427288D01*
X124388959Y-65913646D01*
X123996319Y-65520320D01*
X123483049Y-65307192D01*
X122927288Y-65306707D01*
X122413646Y-65518939D01*
X122020320Y-65911579D01*
X121807192Y-66424849D01*
X121806707Y-66980610D01*
X122018939Y-67494252D01*
X122411579Y-67887578D01*
X122443949Y-67901019D01*
X122443949Y-68637746D01*
X121235871Y-69845824D01*
X121129548Y-69822759D01*
X120876977Y-69870283D01*
X120662795Y-70012328D01*
X120097039Y-70578084D01*
X120001742Y-70717556D01*
X119576200Y-70398400D01*
X119530668Y-70376759D01*
X119500000Y-70373000D01*
X118744034Y-70373000D01*
X117138514Y-70053642D01*
X117068584Y-70053642D01*
X117000000Y-70040000D01*
X111044092Y-70040000D01*
X109710000Y-68705908D01*
X109710000Y-66759482D01*
X113164336Y-66759482D01*
X113746950Y-68169515D01*
X114824811Y-69249259D01*
X116233825Y-69834333D01*
X117759482Y-69835664D01*
X119169515Y-69253050D01*
X120249259Y-68175189D01*
X120834333Y-66766175D01*
X120835664Y-65240518D01*
X120253050Y-63830485D01*
X119175189Y-62750741D01*
X117766175Y-62165667D01*
X116240518Y-62164336D01*
X114830485Y-62746950D01*
X113750741Y-63824811D01*
X113165667Y-65233825D01*
X113164336Y-66759482D01*
X109710000Y-66759482D01*
X109710000Y-62794092D01*
X111044092Y-61460000D01*
X131738175Y-61460000D01*
X131532559Y-61592310D01*
X131532559Y-61592310D01*
G37*
X131532559Y-61592310D02*
X131387569Y-61804510D01*
X131336560Y-62056400D01*
X131336560Y-63783600D01*
X131380838Y-64018917D01*
X131519910Y-64235041D01*
X131732110Y-64380031D01*
X131826927Y-64399232D01*
X131649268Y-64557964D01*
X131395291Y-65085209D01*
X131392642Y-65100974D01*
X131513783Y-65333000D01*
X132873000Y-65333000D01*
X132873000Y-65313000D01*
X133127000Y-65313000D01*
X133127000Y-65333000D01*
X133147000Y-65333000D01*
X133147000Y-65587000D01*
X133127000Y-65587000D01*
X133127000Y-65607000D01*
X132873000Y-65607000D01*
X132873000Y-65587000D01*
X131513783Y-65587000D01*
X131392642Y-65819026D01*
X131395291Y-65834791D01*
X131649268Y-66362036D01*
X132065069Y-66733539D01*
X131755585Y-66940330D01*
X131430729Y-67426511D01*
X131316655Y-68000000D01*
X131392334Y-68380464D01*
X131196599Y-68576199D01*
X131031852Y-68822761D01*
X131014325Y-68910873D01*
X130389147Y-69536051D01*
X127993582Y-69536051D01*
X127981061Y-69505748D01*
X127588421Y-69112422D01*
X127075151Y-68899294D01*
X126519390Y-68898809D01*
X126327154Y-68978239D01*
X126381362Y-68847369D01*
X126259231Y-68627000D01*
X125306608Y-68627000D01*
X125193749Y-68514141D01*
X125014141Y-68693749D01*
X125127000Y-68806608D01*
X125127000Y-69536051D01*
X124873000Y-69536051D01*
X124873000Y-68627000D01*
X123963949Y-68627000D01*
X123963949Y-68373000D01*
X124693392Y-68373000D01*
X124806251Y-68485859D01*
X124985859Y-68306251D01*
X124873000Y-68193392D01*
X124873000Y-67240769D01*
X125127000Y-67240769D01*
X125127000Y-68373000D01*
X126259231Y-68373000D01*
X126381362Y-68152631D01*
X126143280Y-67650449D01*
X125731144Y-67277603D01*
X125347369Y-67118638D01*
X125127000Y-67240769D01*
X124873000Y-67240769D01*
X124652631Y-67118638D01*
X124517877Y-67182524D01*
X124600706Y-66983049D01*
X124601191Y-66427288D01*
X124388959Y-65913646D01*
X123996319Y-65520320D01*
X123483049Y-65307192D01*
X122927288Y-65306707D01*
X122413646Y-65518939D01*
X122020320Y-65911579D01*
X121807192Y-66424849D01*
X121806707Y-66980610D01*
X122018939Y-67494252D01*
X122411579Y-67887578D01*
X122443949Y-67901019D01*
X122443949Y-68637746D01*
X121235871Y-69845824D01*
X121129548Y-69822759D01*
X120876977Y-69870283D01*
X120662795Y-70012328D01*
X120097039Y-70578084D01*
X120001742Y-70717556D01*
X119576200Y-70398400D01*
X119530668Y-70376759D01*
X119500000Y-70373000D01*
X118744034Y-70373000D01*
X117138514Y-70053642D01*
X117068584Y-70053642D01*
X117000000Y-70040000D01*
X111044092Y-70040000D01*
X109710000Y-68705908D01*
X109710000Y-66759482D01*
X113164336Y-66759482D01*
X113746950Y-68169515D01*
X114824811Y-69249259D01*
X116233825Y-69834333D01*
X117759482Y-69835664D01*
X119169515Y-69253050D01*
X120249259Y-68175189D01*
X120834333Y-66766175D01*
X120835664Y-65240518D01*
X120253050Y-63830485D01*
X119175189Y-62750741D01*
X117766175Y-62165667D01*
X116240518Y-62164336D01*
X114830485Y-62746950D01*
X113750741Y-63824811D01*
X113165667Y-65233825D01*
X113164336Y-66759482D01*
X109710000Y-66759482D01*
X109710000Y-62794092D01*
X111044092Y-61460000D01*
X131738175Y-61460000D01*
X131532559Y-61592310D01*
M02*
