G04 #@! TF.FileFunction,Soldermask,Top*
%FSLAX46Y46*%
G04 Gerber Fmt 4.6, Leading zero omitted, Abs format (unit mm)*
G04 Created by KiCad (PCBNEW 4.0.4+dfsg1-stable) date Thu Feb  9 13:36:58 2017*
%MOMM*%
%LPD*%
G01*
G04 APERTURE LIST*
%ADD10C,0.100000*%
%ADD11R,1.400000X1.650000*%
%ADD12R,2.432000X2.127200*%
%ADD13O,2.432000X2.127200*%
%ADD14R,1.100000X1.700000*%
%ADD15C,6.800000*%
%ADD16C,1.924000*%
G04 APERTURE END LIST*
D10*
D11*
X130000000Y-79000000D03*
X132000000Y-79000000D03*
D12*
X133000000Y-62920000D03*
D13*
X133000000Y-65460000D03*
X133000000Y-68000000D03*
X133000000Y-70540000D03*
D14*
X130050000Y-76500000D03*
X131950000Y-76500000D03*
X130050000Y-74000000D03*
X131950000Y-74000000D03*
D10*
G36*
X120272005Y-71035893D02*
X121120604Y-70187294D01*
X121969203Y-71035893D01*
X121120604Y-71884492D01*
X120272005Y-71035893D01*
X120272005Y-71035893D01*
G37*
G36*
X121615508Y-72379396D02*
X122464107Y-71530797D01*
X123312706Y-72379396D01*
X122464107Y-73227995D01*
X121615508Y-72379396D01*
X121615508Y-72379396D01*
G37*
G36*
X122357249Y-70294152D02*
X123205848Y-69445553D01*
X124054447Y-70294152D01*
X123205848Y-71142751D01*
X122357249Y-70294152D01*
X122357249Y-70294152D01*
G37*
G36*
X122464107Y-79772005D02*
X123312706Y-80620604D01*
X122464107Y-81469203D01*
X121615508Y-80620604D01*
X122464107Y-79772005D01*
X122464107Y-79772005D01*
G37*
G36*
X121120604Y-81115508D02*
X121969203Y-81964107D01*
X121120604Y-82812706D01*
X120272005Y-81964107D01*
X121120604Y-81115508D01*
X121120604Y-81115508D01*
G37*
G36*
X123205848Y-81857249D02*
X124054447Y-82705848D01*
X123205848Y-83554447D01*
X122357249Y-82705848D01*
X123205848Y-81857249D01*
X123205848Y-81857249D01*
G37*
D15*
X117000000Y-66000000D03*
X117000000Y-87000000D03*
D16*
X125000000Y-84500000D03*
X123203949Y-86296051D03*
X126796051Y-82703949D03*
X125000000Y-68500000D03*
X126796051Y-70296051D03*
X123203949Y-66703949D03*
M02*
