M48
INCH,TZ
T1C0.016
T2C0.020
T3C0.022
T4C0.030
T5C0.032
T6C0.040
T7C0.043
T8C0.126
T9C0.118
T10C0.134
%
G90
G05
T1
X62153Y-43533
X65300Y-53700
X65598Y-50906
X65991Y-50079
X67369Y-38287
X67861Y-36535
X67861Y-38346
X68354Y-49370
X68471Y-38733
X68748Y-38582
X69117Y-40122
X69338Y-46984
X69535Y-53661
X69535Y-53937
X70279Y-45466
X70302Y-39409
X70401Y-42441
X70401Y-43622
X70500Y-45243
X70717Y-45006
X70972Y-46575
X71897Y-50906
X72212Y-45669
X72251Y-46850
X72251Y-47638
X72271Y-46476
X72271Y-48425
X72291Y-48031
X72409Y-45157
X72487Y-43740
X72487Y-48819
X72920Y-41053
X72980Y-49980
X72999Y-48622
X73243Y-48839
X73354Y-50236
X73354Y-51693
X73432Y-40709
X73472Y-48602
X73708Y-48839
X73865Y-37992
X73983Y-41142
X73986Y-44138
X74062Y-43681
X74456Y-42598
X74692Y-37992
X74831Y-39272
X74968Y-50374
X75165Y-36890
X75283Y-44488
X75293Y-50138
X75352Y-41703
X75598Y-37638
X75617Y-50669
X75716Y-41260
X75726Y-49902
X76070Y-50669
X76083Y-39665
X76129Y-44138
X76149Y-51457
X76378Y-41043
X76424Y-45472
X76621Y-45866
X76759Y-41083
X76759Y-41417
X76759Y-41772
X76972Y-45902
X76976Y-46220
X76976Y-46575
X76976Y-46929
X76976Y-47283
X76976Y-47913
X77001Y-43667
X77054Y-42559
X77094Y-45197
X77448Y-51457
X77929Y-48859
X78176Y-41772
X78354Y-47165
X78354Y-47866
X78354Y-48228
X78405Y-41417
X78546Y-41083
X78669Y-47165
X78747Y-44646
X78826Y-45118
X78839Y-24705
X78865Y-48386
X78944Y-48071
X78983Y-46732
X79220Y-45079
X79298Y-46969
X79724Y-48622
X79946Y-48398
X80100Y-28800
X80200Y-30400
X80243Y-44929
X80246Y-45244
X80258Y-48721
X80489Y-45477
X80492Y-48510
X83100Y-29100
X83661Y-35000
X84252Y-32677
X84252Y-33071
X84252Y-33465
X84341Y-35886
X84508Y-34104
X84646Y-32677
X84646Y-33071
X84646Y-33465
X84783Y-35620
X84837Y-36122
X84841Y-34216
X84843Y-34577
X85039Y-33071
X85433Y-33071
X85827Y-33071
X86122Y-34252
X86122Y-34646
X86122Y-35039
X86122Y-35433
X86122Y-35827
X86122Y-36220
X87402Y-34449
X87402Y-34843
X87402Y-35236
X87402Y-35630
X87598Y-34252
X87598Y-34646
X87598Y-35039
X87598Y-35433
X87598Y-35827
X88780Y-34252
X88780Y-35630
X88809Y-33465
X88809Y-33858
X88976Y-33268
X88976Y-33661
X88976Y-34055
X88976Y-35827
X89173Y-35630
X89370Y-35827
T4
X16535Y-34976
X16535Y-35976
X16535Y-36976
X16535Y-37976
X16535Y-38976
X16535Y-39976
X16535Y-40976
X18701Y-39764
X18752Y-35922
X19274Y-40583
X19325Y-35103
X19848Y-41402
X19899Y-34284
X20422Y-42221
X20472Y-33465
X20995Y-43040
X21046Y-32645
X21569Y-43860
X21620Y-31826
X22142Y-44679
X22193Y-31007
X67562Y-29232
X68562Y-29232
X69562Y-29232
X70224Y-35626
X70224Y-36626
X70224Y-37626
X70224Y-38626
X70562Y-29232
X73520Y-22244
X74520Y-22244
X75520Y-22244
X76027Y-29213
X76520Y-22244
X77027Y-29213
X77224Y-34626
X77224Y-35626
X77224Y-36626
X77224Y-37626
X77224Y-38626
X77224Y-39626
X77520Y-22244
X78027Y-29213
X78520Y-22244
X79027Y-29213
X79520Y-22244
X88276Y-32488
X88276Y-37409
X106496Y-34992
X106496Y-35992
X106496Y-36992
X106496Y-37992
X106496Y-38992
X106496Y-39992
X106496Y-40992
T5
X66976Y-45102
X66976Y-47024
T6
X21063Y-36992
X21063Y-37992
X21063Y-38992
X55700Y-25200
X56700Y-25200
X57700Y-25200
X60440Y-36457
X60440Y-37457
X60440Y-38457
X60440Y-39457
X60440Y-40457
X60440Y-41457
X63291Y-34453
X63291Y-35453
X63291Y-36453
X63291Y-37453
X63291Y-38453
X63291Y-39453
X63291Y-40453
X63291Y-41453
X63291Y-43461
X63291Y-44461
X63291Y-45461
X63291Y-46461
X63291Y-47461
X63291Y-48461
X82188Y-30870
X82188Y-31870
X82188Y-32870
X82188Y-33870
X82188Y-34870
X82188Y-35870
X82188Y-36870
X82188Y-37870
X82188Y-38870
X82188Y-39870
X82188Y-41469
X82188Y-42469
X82188Y-43469
X82188Y-44469
X82188Y-45469
X82188Y-46469
X82188Y-47469
X82188Y-48469
X99152Y-48545
X100152Y-48545
X101152Y-48545
X102152Y-48545
T7
X48980Y-23331
X48980Y-25300
X50240Y-23331
X50240Y-25300
X51500Y-23331
X51500Y-25300
X52760Y-23331
X52760Y-25300
T8
X17126Y-32480
X17126Y-43504
X42224Y-25000
X42224Y-50984
X60728Y-25000
X60728Y-50984
X82776Y-25000
X82776Y-50984
X105315Y-28543
X105315Y-47441
T9
X95362Y-29339
X95362Y-47055
T10
X26476Y-32067
X26476Y-43878
X29626Y-32067
X29626Y-43878
T2
X76322Y-54976G85X76322Y-54720
G05
X79078Y-54976G85X79078Y-54720
G05
T3
X76656Y-53785G85X76774Y-53785
G05
X78625Y-53785G85X78743Y-53785
G05
T0
M30
