G04 #@! TF.FileFunction,Legend,Bot*
%FSLAX46Y46*%
G04 Gerber Fmt 4.6, Leading zero omitted, Abs format (unit mm)*
G04 Created by KiCad (PCBNEW 4.0.4+dfsg1-stable) date Thu Jun  8 13:27:36 2017*
%MOMM*%
%LPD*%
G01*
G04 APERTURE LIST*
%ADD10C,0.100000*%
%ADD11C,0.300000*%
%ADD12R,2.232000X1.927200*%
%ADD13O,2.232000X1.927200*%
%ADD14C,1.724000*%
%ADD15R,1.724000X1.724000*%
%ADD16C,3.200000*%
%ADD17R,1.927200X2.232000*%
%ADD18O,1.927200X2.232000*%
%ADD19O,1.450000X1.150000*%
%ADD20O,1.200000X1.750000*%
%ADD21C,3.600000*%
%ADD22C,6.600000*%
%ADD23C,1.701140*%
%ADD24C,2.200000*%
G04 APERTURE END LIST*
D10*
D11*
X145785713Y-131510714D02*
X145857142Y-131582143D01*
X146071428Y-131653571D01*
X146214285Y-131653571D01*
X146428570Y-131582143D01*
X146571428Y-131439286D01*
X146642856Y-131296429D01*
X146714285Y-131010714D01*
X146714285Y-130796429D01*
X146642856Y-130510714D01*
X146571428Y-130367857D01*
X146428570Y-130225000D01*
X146214285Y-130153571D01*
X146071428Y-130153571D01*
X145857142Y-130225000D01*
X145785713Y-130296429D01*
X144928570Y-131653571D02*
X145071428Y-131582143D01*
X145142856Y-131510714D01*
X145214285Y-131367857D01*
X145214285Y-130939286D01*
X145142856Y-130796429D01*
X145071428Y-130725000D01*
X144928570Y-130653571D01*
X144714285Y-130653571D01*
X144571428Y-130725000D01*
X144499999Y-130796429D01*
X144428570Y-130939286D01*
X144428570Y-131367857D01*
X144499999Y-131510714D01*
X144571428Y-131582143D01*
X144714285Y-131653571D01*
X144928570Y-131653571D01*
X143785713Y-130653571D02*
X143785713Y-132153571D01*
X143785713Y-130725000D02*
X143642856Y-130653571D01*
X143357142Y-130653571D01*
X143214285Y-130725000D01*
X143142856Y-130796429D01*
X143071427Y-130939286D01*
X143071427Y-131367857D01*
X143142856Y-131510714D01*
X143214285Y-131582143D01*
X143357142Y-131653571D01*
X143642856Y-131653571D01*
X143785713Y-131582143D01*
X142571427Y-130653571D02*
X142214284Y-131653571D01*
X141857142Y-130653571D02*
X142214284Y-131653571D01*
X142357142Y-132010714D01*
X142428570Y-132082143D01*
X142571427Y-132153571D01*
X141285713Y-131653571D02*
X141285713Y-130653571D01*
X141285713Y-130939286D02*
X141214285Y-130796429D01*
X141142856Y-130725000D01*
X140999999Y-130653571D01*
X140857142Y-130653571D01*
X140357142Y-131653571D02*
X140357142Y-130653571D01*
X140357142Y-130153571D02*
X140428571Y-130225000D01*
X140357142Y-130296429D01*
X140285714Y-130225000D01*
X140357142Y-130153571D01*
X140357142Y-130296429D01*
X138999999Y-130653571D02*
X138999999Y-131867857D01*
X139071428Y-132010714D01*
X139142856Y-132082143D01*
X139285713Y-132153571D01*
X139499999Y-132153571D01*
X139642856Y-132082143D01*
X138999999Y-131582143D02*
X139142856Y-131653571D01*
X139428570Y-131653571D01*
X139571428Y-131582143D01*
X139642856Y-131510714D01*
X139714285Y-131367857D01*
X139714285Y-130939286D01*
X139642856Y-130796429D01*
X139571428Y-130725000D01*
X139428570Y-130653571D01*
X139142856Y-130653571D01*
X138999999Y-130725000D01*
X138285713Y-131653571D02*
X138285713Y-130153571D01*
X137642856Y-131653571D02*
X137642856Y-130867857D01*
X137714285Y-130725000D01*
X137857142Y-130653571D01*
X138071427Y-130653571D01*
X138214285Y-130725000D01*
X138285713Y-130796429D01*
X137142856Y-130653571D02*
X136571427Y-130653571D01*
X136928570Y-130153571D02*
X136928570Y-131439286D01*
X136857142Y-131582143D01*
X136714284Y-131653571D01*
X136571427Y-131653571D01*
X134499999Y-132225000D02*
X134571427Y-132153571D01*
X134714284Y-131939286D01*
X134785713Y-131796429D01*
X134857142Y-131582143D01*
X134928570Y-131225000D01*
X134928570Y-130939286D01*
X134857142Y-130582143D01*
X134785713Y-130367857D01*
X134714284Y-130225000D01*
X134571427Y-130010714D01*
X134499999Y-129939286D01*
X133071427Y-131510714D02*
X133142856Y-131582143D01*
X133357142Y-131653571D01*
X133499999Y-131653571D01*
X133714284Y-131582143D01*
X133857142Y-131439286D01*
X133928570Y-131296429D01*
X133999999Y-131010714D01*
X133999999Y-130796429D01*
X133928570Y-130510714D01*
X133857142Y-130367857D01*
X133714284Y-130225000D01*
X133499999Y-130153571D01*
X133357142Y-130153571D01*
X133142856Y-130225000D01*
X133071427Y-130296429D01*
X132571427Y-132225000D02*
X132499999Y-132153571D01*
X132357142Y-131939286D01*
X132285713Y-131796429D01*
X132214284Y-131582143D01*
X132142856Y-131225000D01*
X132142856Y-130939286D01*
X132214284Y-130582143D01*
X132285713Y-130367857D01*
X132357142Y-130225000D01*
X132499999Y-130010714D01*
X132571427Y-129939286D01*
X130357142Y-130296429D02*
X130285713Y-130225000D01*
X130142856Y-130153571D01*
X129785713Y-130153571D01*
X129642856Y-130225000D01*
X129571427Y-130296429D01*
X129499999Y-130439286D01*
X129499999Y-130582143D01*
X129571427Y-130796429D01*
X130428570Y-131653571D01*
X129499999Y-131653571D01*
X128571428Y-130153571D02*
X128428571Y-130153571D01*
X128285714Y-130225000D01*
X128214285Y-130296429D01*
X128142856Y-130439286D01*
X128071428Y-130725000D01*
X128071428Y-131082143D01*
X128142856Y-131367857D01*
X128214285Y-131510714D01*
X128285714Y-131582143D01*
X128428571Y-131653571D01*
X128571428Y-131653571D01*
X128714285Y-131582143D01*
X128785714Y-131510714D01*
X128857142Y-131367857D01*
X128928571Y-131082143D01*
X128928571Y-130725000D01*
X128857142Y-130439286D01*
X128785714Y-130296429D01*
X128714285Y-130225000D01*
X128571428Y-130153571D01*
X126642857Y-131653571D02*
X127500000Y-131653571D01*
X127071428Y-131653571D02*
X127071428Y-130153571D01*
X127214285Y-130367857D01*
X127357143Y-130510714D01*
X127500000Y-130582143D01*
X126142857Y-130153571D02*
X125142857Y-130153571D01*
X125785714Y-131653571D01*
X124500001Y-131582143D02*
X124500001Y-131653571D01*
X124571429Y-131796429D01*
X124642858Y-131867857D01*
X122785715Y-131225000D02*
X122071429Y-131225000D01*
X122928572Y-131653571D02*
X122428572Y-130153571D01*
X121928572Y-131653571D01*
X120785715Y-131653571D02*
X120785715Y-130153571D01*
X120785715Y-131582143D02*
X120928572Y-131653571D01*
X121214286Y-131653571D01*
X121357144Y-131582143D01*
X121428572Y-131510714D01*
X121500001Y-131367857D01*
X121500001Y-130939286D01*
X121428572Y-130796429D01*
X121357144Y-130725000D01*
X121214286Y-130653571D01*
X120928572Y-130653571D01*
X120785715Y-130725000D01*
X119428572Y-131653571D02*
X119428572Y-130867857D01*
X119500001Y-130725000D01*
X119642858Y-130653571D01*
X119928572Y-130653571D01*
X120071429Y-130725000D01*
X119428572Y-131582143D02*
X119571429Y-131653571D01*
X119928572Y-131653571D01*
X120071429Y-131582143D01*
X120142858Y-131439286D01*
X120142858Y-131296429D01*
X120071429Y-131153571D01*
X119928572Y-131082143D01*
X119571429Y-131082143D01*
X119428572Y-131010714D01*
X117857143Y-131510714D02*
X117928572Y-131582143D01*
X118142858Y-131653571D01*
X118285715Y-131653571D01*
X118500000Y-131582143D01*
X118642858Y-131439286D01*
X118714286Y-131296429D01*
X118785715Y-131010714D01*
X118785715Y-130796429D01*
X118714286Y-130510714D01*
X118642858Y-130367857D01*
X118500000Y-130225000D01*
X118285715Y-130153571D01*
X118142858Y-130153571D01*
X117928572Y-130225000D01*
X117857143Y-130296429D01*
X117000000Y-131653571D02*
X117142858Y-131582143D01*
X117214286Y-131510714D01*
X117285715Y-131367857D01*
X117285715Y-130939286D01*
X117214286Y-130796429D01*
X117142858Y-130725000D01*
X117000000Y-130653571D01*
X116785715Y-130653571D01*
X116642858Y-130725000D01*
X116571429Y-130796429D01*
X116500000Y-130939286D01*
X116500000Y-131367857D01*
X116571429Y-131510714D01*
X116642858Y-131582143D01*
X116785715Y-131653571D01*
X117000000Y-131653571D01*
X115857143Y-131653571D02*
X115857143Y-130653571D01*
X115857143Y-130939286D02*
X115785715Y-130796429D01*
X115714286Y-130725000D01*
X115571429Y-130653571D01*
X115428572Y-130653571D01*
X114357144Y-131582143D02*
X114500001Y-131653571D01*
X114785715Y-131653571D01*
X114928572Y-131582143D01*
X115000001Y-131439286D01*
X115000001Y-130867857D01*
X114928572Y-130725000D01*
X114785715Y-130653571D01*
X114500001Y-130653571D01*
X114357144Y-130725000D01*
X114285715Y-130867857D01*
X114285715Y-131010714D01*
X115000001Y-131153571D01*
X147571428Y-134203571D02*
X148285714Y-134203571D01*
X148285714Y-132703571D01*
X147071428Y-134203571D02*
X147071428Y-133203571D01*
X147071428Y-132703571D02*
X147142857Y-132775000D01*
X147071428Y-132846429D01*
X147000000Y-132775000D01*
X147071428Y-132703571D01*
X147071428Y-132846429D01*
X145714285Y-134132143D02*
X145857142Y-134203571D01*
X146142856Y-134203571D01*
X146285714Y-134132143D01*
X146357142Y-134060714D01*
X146428571Y-133917857D01*
X146428571Y-133489286D01*
X146357142Y-133346429D01*
X146285714Y-133275000D01*
X146142856Y-133203571D01*
X145857142Y-133203571D01*
X145714285Y-133275000D01*
X144500000Y-134132143D02*
X144642857Y-134203571D01*
X144928571Y-134203571D01*
X145071428Y-134132143D01*
X145142857Y-133989286D01*
X145142857Y-133417857D01*
X145071428Y-133275000D01*
X144928571Y-133203571D01*
X144642857Y-133203571D01*
X144500000Y-133275000D01*
X144428571Y-133417857D01*
X144428571Y-133560714D01*
X145142857Y-133703571D01*
X143785714Y-133203571D02*
X143785714Y-134203571D01*
X143785714Y-133346429D02*
X143714286Y-133275000D01*
X143571428Y-133203571D01*
X143357143Y-133203571D01*
X143214286Y-133275000D01*
X143142857Y-133417857D01*
X143142857Y-134203571D01*
X142500000Y-134132143D02*
X142357143Y-134203571D01*
X142071428Y-134203571D01*
X141928571Y-134132143D01*
X141857143Y-133989286D01*
X141857143Y-133917857D01*
X141928571Y-133775000D01*
X142071428Y-133703571D01*
X142285714Y-133703571D01*
X142428571Y-133632143D01*
X142500000Y-133489286D01*
X142500000Y-133417857D01*
X142428571Y-133275000D01*
X142285714Y-133203571D01*
X142071428Y-133203571D01*
X141928571Y-133275000D01*
X140642857Y-134132143D02*
X140785714Y-134203571D01*
X141071428Y-134203571D01*
X141214285Y-134132143D01*
X141285714Y-133989286D01*
X141285714Y-133417857D01*
X141214285Y-133275000D01*
X141071428Y-133203571D01*
X140785714Y-133203571D01*
X140642857Y-133275000D01*
X140571428Y-133417857D01*
X140571428Y-133560714D01*
X141285714Y-133703571D01*
X139285714Y-134203571D02*
X139285714Y-132703571D01*
X139285714Y-134132143D02*
X139428571Y-134203571D01*
X139714285Y-134203571D01*
X139857143Y-134132143D01*
X139928571Y-134060714D01*
X140000000Y-133917857D01*
X140000000Y-133489286D01*
X139928571Y-133346429D01*
X139857143Y-133275000D01*
X139714285Y-133203571D01*
X139428571Y-133203571D01*
X139285714Y-133275000D01*
X136785714Y-133203571D02*
X136785714Y-134203571D01*
X137428571Y-133203571D02*
X137428571Y-133989286D01*
X137357143Y-134132143D01*
X137214285Y-134203571D01*
X137000000Y-134203571D01*
X136857143Y-134132143D01*
X136785714Y-134060714D01*
X136071428Y-133203571D02*
X136071428Y-134203571D01*
X136071428Y-133346429D02*
X136000000Y-133275000D01*
X135857142Y-133203571D01*
X135642857Y-133203571D01*
X135500000Y-133275000D01*
X135428571Y-133417857D01*
X135428571Y-134203571D01*
X134071428Y-134203571D02*
X134071428Y-132703571D01*
X134071428Y-134132143D02*
X134214285Y-134203571D01*
X134499999Y-134203571D01*
X134642857Y-134132143D01*
X134714285Y-134060714D01*
X134785714Y-133917857D01*
X134785714Y-133489286D01*
X134714285Y-133346429D01*
X134642857Y-133275000D01*
X134499999Y-133203571D01*
X134214285Y-133203571D01*
X134071428Y-133275000D01*
X132785714Y-134132143D02*
X132928571Y-134203571D01*
X133214285Y-134203571D01*
X133357142Y-134132143D01*
X133428571Y-133989286D01*
X133428571Y-133417857D01*
X133357142Y-133275000D01*
X133214285Y-133203571D01*
X132928571Y-133203571D01*
X132785714Y-133275000D01*
X132714285Y-133417857D01*
X132714285Y-133560714D01*
X133428571Y-133703571D01*
X132071428Y-134203571D02*
X132071428Y-133203571D01*
X132071428Y-133489286D02*
X132000000Y-133346429D01*
X131928571Y-133275000D01*
X131785714Y-133203571D01*
X131642857Y-133203571D01*
X129142857Y-134060714D02*
X129214286Y-134132143D01*
X129428572Y-134203571D01*
X129571429Y-134203571D01*
X129785714Y-134132143D01*
X129928572Y-133989286D01*
X130000000Y-133846429D01*
X130071429Y-133560714D01*
X130071429Y-133346429D01*
X130000000Y-133060714D01*
X129928572Y-132917857D01*
X129785714Y-132775000D01*
X129571429Y-132703571D01*
X129428572Y-132703571D01*
X129214286Y-132775000D01*
X129142857Y-132846429D01*
X128500000Y-133417857D02*
X128000000Y-133417857D01*
X127785714Y-134203571D02*
X128500000Y-134203571D01*
X128500000Y-132703571D01*
X127785714Y-132703571D01*
X126285714Y-134203571D02*
X126785714Y-133489286D01*
X127142857Y-134203571D02*
X127142857Y-132703571D01*
X126571429Y-132703571D01*
X126428571Y-132775000D01*
X126357143Y-132846429D01*
X126285714Y-132989286D01*
X126285714Y-133203571D01*
X126357143Y-133346429D01*
X126428571Y-133417857D01*
X126571429Y-133489286D01*
X127142857Y-133489286D01*
X125642857Y-134203571D02*
X125642857Y-132703571D01*
X124785714Y-134203571D01*
X124785714Y-132703571D01*
X122642857Y-132703571D02*
X122357143Y-132703571D01*
X122214285Y-132775000D01*
X122071428Y-132917857D01*
X122000000Y-133203571D01*
X122000000Y-133703571D01*
X122071428Y-133989286D01*
X122214285Y-134132143D01*
X122357143Y-134203571D01*
X122642857Y-134203571D01*
X122785714Y-134132143D01*
X122928571Y-133989286D01*
X123000000Y-133703571D01*
X123000000Y-133203571D01*
X122928571Y-132917857D01*
X122785714Y-132775000D01*
X122642857Y-132703571D01*
X121357142Y-134203571D02*
X121357142Y-132703571D01*
X121357142Y-133417857D02*
X120499999Y-133417857D01*
X120499999Y-134203571D02*
X120499999Y-132703571D01*
X119071427Y-134203571D02*
X119785713Y-134203571D01*
X119785713Y-132703571D01*
X117571427Y-133203571D02*
X117214284Y-134203571D01*
X116857142Y-133203571D01*
X116285713Y-134060714D02*
X116214285Y-134132143D01*
X116285713Y-134203571D01*
X116357142Y-134132143D01*
X116285713Y-134060714D01*
X116285713Y-134203571D01*
X114785713Y-134203571D02*
X115642856Y-134203571D01*
X115214284Y-134203571D02*
X115214284Y-132703571D01*
X115357141Y-132917857D01*
X115499999Y-133060714D01*
X115642856Y-133132143D01*
X114142856Y-134060714D02*
X114071428Y-134132143D01*
X114142856Y-134203571D01*
X114214285Y-134132143D01*
X114142856Y-134060714D01*
X114142856Y-134203571D01*
X113499999Y-132846429D02*
X113428570Y-132775000D01*
X113285713Y-132703571D01*
X112928570Y-132703571D01*
X112785713Y-132775000D01*
X112714284Y-132846429D01*
X112642856Y-132989286D01*
X112642856Y-133132143D01*
X112714284Y-133346429D01*
X113571427Y-134203571D01*
X112642856Y-134203571D01*
%LPC*%
D12*
X160758000Y-87510000D03*
D13*
X160758000Y-90050000D03*
X160758000Y-92590000D03*
X160758000Y-95130000D03*
X160758000Y-97670000D03*
X160758000Y-100210000D03*
X160758000Y-102750000D03*
X160758000Y-105290000D03*
D12*
X160758000Y-110390000D03*
D13*
X160758000Y-112930000D03*
X160758000Y-115470000D03*
X160758000Y-118010000D03*
X160758000Y-120550000D03*
X160758000Y-123090000D03*
D12*
X208758000Y-101270000D03*
D13*
X208758000Y-98730000D03*
X208758000Y-96190000D03*
X208758000Y-93650000D03*
X208758000Y-91110000D03*
X208758000Y-88570000D03*
X208758000Y-86030000D03*
X208758000Y-83490000D03*
X208758000Y-80950000D03*
X208758000Y-78410000D03*
D12*
X208758000Y-123110000D03*
D13*
X208758000Y-120570000D03*
X208758000Y-118030000D03*
X208758000Y-115490000D03*
X208758000Y-112950000D03*
X208758000Y-110410000D03*
X208758000Y-107870000D03*
X208758000Y-105330000D03*
D14*
X193108000Y-74200000D03*
D15*
X195648000Y-74200000D03*
D14*
X198188000Y-74200000D03*
X200728000Y-74200000D03*
X171608000Y-74250000D03*
D15*
X174148000Y-74250000D03*
D14*
X176688000Y-74250000D03*
X179228000Y-74250000D03*
X178368000Y-95570000D03*
X178368000Y-93030000D03*
X196148000Y-95570000D03*
X196148000Y-93030000D03*
X196148000Y-98110000D03*
X196148000Y-100650000D03*
X196148000Y-90490000D03*
X196148000Y-87950000D03*
X178368000Y-90490000D03*
X178368000Y-98110000D03*
X42000000Y-104080000D03*
X42000000Y-101540000D03*
D15*
X42000000Y-99000000D03*
D14*
X42000000Y-96460000D03*
X42000000Y-93920000D03*
X42000000Y-91380000D03*
X42000000Y-88840000D03*
X56241305Y-113483877D03*
X54784421Y-111403231D03*
D10*
G36*
X53539223Y-108122053D02*
X54528069Y-109534271D01*
X53115851Y-110523117D01*
X52127005Y-109110899D01*
X53539223Y-108122053D01*
X53539223Y-108122053D01*
G37*
D14*
X51870653Y-107241938D03*
X50413768Y-105161292D03*
X48956884Y-103080646D03*
X47500000Y-101000000D03*
X47629348Y-91241939D03*
X49086232Y-89161293D03*
D10*
G36*
X51743648Y-86868961D02*
X50754802Y-88281179D01*
X49342584Y-87292333D01*
X50331430Y-85880115D01*
X51743648Y-86868961D01*
X51743648Y-86868961D01*
G37*
D14*
X52000000Y-85000000D03*
X53456885Y-82919354D03*
X54913769Y-80838708D03*
X56370653Y-78758062D03*
X186740000Y-56500000D03*
X189280000Y-56500000D03*
D15*
X191820000Y-56500000D03*
D14*
X194360000Y-56500000D03*
X196900000Y-56500000D03*
X199440000Y-56500000D03*
X201980000Y-56500000D03*
X270500000Y-88880000D03*
X270500000Y-91420000D03*
D15*
X270500000Y-93960000D03*
D14*
X270500000Y-96500000D03*
X270500000Y-99040000D03*
X270500000Y-101580000D03*
X270500000Y-104120000D03*
X224220000Y-95020000D03*
X224220000Y-82520000D03*
D16*
X242220000Y-119520000D03*
X242220000Y-74520000D03*
D17*
X141478000Y-64008000D03*
D18*
X144018000Y-64008000D03*
X146558000Y-64008000D03*
D12*
X53500000Y-93960000D03*
D13*
X53500000Y-96500000D03*
X53500000Y-99040000D03*
D19*
X194857100Y-136613460D03*
X199857100Y-136613460D03*
D20*
X193857100Y-139313460D03*
X200857100Y-139313460D03*
D12*
X153518000Y-105300000D03*
D13*
X153518000Y-102760000D03*
X153518000Y-100220000D03*
X153518000Y-97680000D03*
X153518000Y-95140000D03*
X153518000Y-92600000D03*
D21*
X75250000Y-81450000D03*
X67250000Y-81450000D03*
X75250000Y-111450000D03*
X67250000Y-111450000D03*
D17*
X251846979Y-123304249D03*
D18*
X254386979Y-123304249D03*
X256926979Y-123304249D03*
X259466979Y-123304249D03*
D22*
X43500000Y-110500000D03*
X43500000Y-82500000D03*
D23*
X170118000Y-114559060D03*
X170118000Y-119440940D03*
D24*
X124410000Y-59262000D03*
X127610000Y-59262000D03*
X130810000Y-59262000D03*
X134010000Y-59262000D03*
X124410000Y-64262000D03*
X127610000Y-64262000D03*
X130810000Y-64262000D03*
X134010000Y-64262000D03*
D22*
X267500000Y-120500000D03*
X267500000Y-72500000D03*
X107250000Y-129500000D03*
X107250000Y-63500000D03*
X210250000Y-129500000D03*
X210250000Y-63500000D03*
X154250000Y-129500000D03*
X154250000Y-63500000D03*
M02*
