G04 #@! TF.FileFunction,Soldermask,Bot*
%FSLAX46Y46*%
G04 Gerber Fmt 4.6, Leading zero omitted, Abs format (unit mm)*
G04 Created by KiCad (PCBNEW 4.0.4+dfsg1-stable) date Thu Jun  8 13:27:36 2017*
%MOMM*%
%LPD*%
G01*
G04 APERTURE LIST*
%ADD10C,0.100000*%
%ADD11R,2.232000X1.927200*%
%ADD12O,2.232000X1.927200*%
%ADD13C,1.724000*%
%ADD14R,1.724000X1.724000*%
%ADD15C,3.200000*%
%ADD16R,1.927200X2.232000*%
%ADD17O,1.927200X2.232000*%
%ADD18O,1.450000X1.150000*%
%ADD19O,1.200000X1.750000*%
%ADD20C,3.600000*%
%ADD21C,6.600000*%
%ADD22C,1.701140*%
%ADD23C,2.200000*%
G04 APERTURE END LIST*
D10*
D11*
X160758000Y-87510000D03*
D12*
X160758000Y-90050000D03*
X160758000Y-92590000D03*
X160758000Y-95130000D03*
X160758000Y-97670000D03*
X160758000Y-100210000D03*
X160758000Y-102750000D03*
X160758000Y-105290000D03*
D11*
X160758000Y-110390000D03*
D12*
X160758000Y-112930000D03*
X160758000Y-115470000D03*
X160758000Y-118010000D03*
X160758000Y-120550000D03*
X160758000Y-123090000D03*
D11*
X208758000Y-101270000D03*
D12*
X208758000Y-98730000D03*
X208758000Y-96190000D03*
X208758000Y-93650000D03*
X208758000Y-91110000D03*
X208758000Y-88570000D03*
X208758000Y-86030000D03*
X208758000Y-83490000D03*
X208758000Y-80950000D03*
X208758000Y-78410000D03*
D11*
X208758000Y-123110000D03*
D12*
X208758000Y-120570000D03*
X208758000Y-118030000D03*
X208758000Y-115490000D03*
X208758000Y-112950000D03*
X208758000Y-110410000D03*
X208758000Y-107870000D03*
X208758000Y-105330000D03*
D13*
X193108000Y-74200000D03*
D14*
X195648000Y-74200000D03*
D13*
X198188000Y-74200000D03*
X200728000Y-74200000D03*
X171608000Y-74250000D03*
D14*
X174148000Y-74250000D03*
D13*
X176688000Y-74250000D03*
X179228000Y-74250000D03*
X178368000Y-95570000D03*
X178368000Y-93030000D03*
X196148000Y-95570000D03*
X196148000Y-93030000D03*
X196148000Y-98110000D03*
X196148000Y-100650000D03*
X196148000Y-90490000D03*
X196148000Y-87950000D03*
X178368000Y-90490000D03*
X178368000Y-98110000D03*
X42000000Y-104080000D03*
X42000000Y-101540000D03*
D14*
X42000000Y-99000000D03*
D13*
X42000000Y-96460000D03*
X42000000Y-93920000D03*
X42000000Y-91380000D03*
X42000000Y-88840000D03*
X56241305Y-113483877D03*
X54784421Y-111403231D03*
D10*
G36*
X53539223Y-108122053D02*
X54528069Y-109534271D01*
X53115851Y-110523117D01*
X52127005Y-109110899D01*
X53539223Y-108122053D01*
X53539223Y-108122053D01*
G37*
D13*
X51870653Y-107241938D03*
X50413768Y-105161292D03*
X48956884Y-103080646D03*
X47500000Y-101000000D03*
X47629348Y-91241939D03*
X49086232Y-89161293D03*
D10*
G36*
X51743648Y-86868961D02*
X50754802Y-88281179D01*
X49342584Y-87292333D01*
X50331430Y-85880115D01*
X51743648Y-86868961D01*
X51743648Y-86868961D01*
G37*
D13*
X52000000Y-85000000D03*
X53456885Y-82919354D03*
X54913769Y-80838708D03*
X56370653Y-78758062D03*
X186740000Y-56500000D03*
X189280000Y-56500000D03*
D14*
X191820000Y-56500000D03*
D13*
X194360000Y-56500000D03*
X196900000Y-56500000D03*
X199440000Y-56500000D03*
X201980000Y-56500000D03*
X270500000Y-88880000D03*
X270500000Y-91420000D03*
D14*
X270500000Y-93960000D03*
D13*
X270500000Y-96500000D03*
X270500000Y-99040000D03*
X270500000Y-101580000D03*
X270500000Y-104120000D03*
X224220000Y-95020000D03*
X224220000Y-82520000D03*
D15*
X242220000Y-119520000D03*
X242220000Y-74520000D03*
D16*
X141478000Y-64008000D03*
D17*
X144018000Y-64008000D03*
X146558000Y-64008000D03*
D11*
X53500000Y-93960000D03*
D12*
X53500000Y-96500000D03*
X53500000Y-99040000D03*
D18*
X194857100Y-136613460D03*
X199857100Y-136613460D03*
D19*
X193857100Y-139313460D03*
X200857100Y-139313460D03*
D11*
X153518000Y-105300000D03*
D12*
X153518000Y-102760000D03*
X153518000Y-100220000D03*
X153518000Y-97680000D03*
X153518000Y-95140000D03*
X153518000Y-92600000D03*
D20*
X75250000Y-81450000D03*
X67250000Y-81450000D03*
X75250000Y-111450000D03*
X67250000Y-111450000D03*
D16*
X251846979Y-123304249D03*
D17*
X254386979Y-123304249D03*
X256926979Y-123304249D03*
X259466979Y-123304249D03*
D21*
X43500000Y-110500000D03*
X43500000Y-82500000D03*
D22*
X170118000Y-114559060D03*
X170118000Y-119440940D03*
D23*
X124410000Y-59262000D03*
X127610000Y-59262000D03*
X130810000Y-59262000D03*
X134010000Y-59262000D03*
X124410000Y-64262000D03*
X127610000Y-64262000D03*
X130810000Y-64262000D03*
X134010000Y-64262000D03*
D21*
X267500000Y-120500000D03*
X267500000Y-72500000D03*
X107250000Y-129500000D03*
X107250000Y-63500000D03*
X210250000Y-129500000D03*
X210250000Y-63500000D03*
X154250000Y-129500000D03*
X154250000Y-63500000D03*
M02*
