G04 #@! TF.FileFunction,Copper,L2,Bot,Signal*
%FSLAX46Y46*%
G04 Gerber Fmt 4.6, Leading zero omitted, Abs format (unit mm)*
G04 Created by KiCad (PCBNEW 4.0.4+dfsg1-stable) date Thu Jun  8 13:46:51 2017*
%MOMM*%
%LPD*%
G01*
G04 APERTURE LIST*
%ADD10C,0.100000*%
%ADD11R,2.032000X1.727200*%
%ADD12O,2.032000X1.727200*%
%ADD13C,1.524000*%
%ADD14C,0.600000*%
%ADD15C,0.250000*%
%ADD16C,0.254000*%
G04 APERTURE END LIST*
D10*
D11*
X133000000Y-62920000D03*
D12*
X133000000Y-65460000D03*
X133000000Y-68000000D03*
X133000000Y-70540000D03*
D13*
X122300000Y-71200000D03*
X123736841Y-72636841D03*
X120863159Y-69763159D03*
X122300000Y-81800000D03*
X120863159Y-83236841D03*
X123736841Y-80363159D03*
D14*
X128000000Y-72800000D03*
X127900000Y-77500006D03*
X123500000Y-85200000D03*
X124000000Y-63800000D03*
D15*
X128000000Y-72800000D02*
X124963159Y-69763159D01*
X124963159Y-69763159D02*
X120863159Y-69763159D01*
X127900000Y-77924270D02*
X127900000Y-77500006D01*
X124024270Y-81800000D02*
X127900000Y-77924270D01*
X122300000Y-81800000D02*
X124024270Y-81800000D01*
X122300000Y-81800000D02*
X122300000Y-84000000D01*
X122300000Y-84000000D02*
X123500000Y-85200000D01*
X133000000Y-65460000D02*
X125660000Y-65460000D01*
X125660000Y-65460000D02*
X124000000Y-63800000D01*
X133000000Y-71653600D02*
X133000000Y-70540000D01*
D16*
G36*
X131532559Y-61592310D02*
X131387569Y-61804510D01*
X131336560Y-62056400D01*
X131336560Y-63783600D01*
X131380838Y-64018917D01*
X131519910Y-64235041D01*
X131732110Y-64380031D01*
X131826927Y-64399232D01*
X131649268Y-64557964D01*
X131395291Y-65085209D01*
X131392642Y-65100974D01*
X131513783Y-65333000D01*
X132873000Y-65333000D01*
X132873000Y-65313000D01*
X133127000Y-65313000D01*
X133127000Y-65333000D01*
X133147000Y-65333000D01*
X133147000Y-65587000D01*
X133127000Y-65587000D01*
X133127000Y-65607000D01*
X132873000Y-65607000D01*
X132873000Y-65587000D01*
X131513783Y-65587000D01*
X131392642Y-65819026D01*
X131395291Y-65834791D01*
X131649268Y-66362036D01*
X132065069Y-66733539D01*
X131755585Y-66940330D01*
X131430729Y-67426511D01*
X131316655Y-68000000D01*
X131430729Y-68573489D01*
X131755585Y-69059670D01*
X132070366Y-69270000D01*
X131755585Y-69480330D01*
X131430729Y-69966511D01*
X131316655Y-70540000D01*
X131430729Y-71113489D01*
X131755585Y-71599670D01*
X132241766Y-71924526D01*
X132296038Y-71935321D01*
X132297852Y-71944439D01*
X132462599Y-72191001D01*
X132709161Y-72355748D01*
X133000000Y-72413600D01*
X133290839Y-72355748D01*
X133537401Y-72191001D01*
X133702148Y-71944439D01*
X133703962Y-71935321D01*
X133758234Y-71924526D01*
X134244415Y-71599670D01*
X134290000Y-71531447D01*
X134290000Y-83255302D01*
X120610024Y-88306370D01*
X120834333Y-87766175D01*
X120835664Y-86240518D01*
X120253050Y-84830485D01*
X119175189Y-83750741D01*
X117766175Y-83165667D01*
X116240518Y-83164336D01*
X114830485Y-83746950D01*
X113750741Y-84824811D01*
X113210000Y-86127059D01*
X113210000Y-84294092D01*
X114544092Y-82960000D01*
X117000000Y-82960000D01*
X117068584Y-82946358D01*
X117138514Y-82946358D01*
X118744034Y-82627000D01*
X119000000Y-82627000D01*
X119065341Y-82608902D01*
X119179565Y-82540367D01*
X119338944Y-82508665D01*
X119594885Y-82402650D01*
X119977578Y-82146943D01*
X119679530Y-82444471D01*
X119466402Y-82957741D01*
X119465917Y-83513502D01*
X119678149Y-84027144D01*
X120070789Y-84420470D01*
X120584059Y-84633598D01*
X121139820Y-84634083D01*
X121653462Y-84421851D01*
X122046788Y-84029211D01*
X122259916Y-83515941D01*
X122260401Y-82960180D01*
X122173000Y-82748653D01*
X122173000Y-82106608D01*
X122285859Y-81993749D01*
X122219110Y-81927000D01*
X122427000Y-81927000D01*
X122427000Y-83059231D01*
X122647369Y-83181362D01*
X123149551Y-82943280D01*
X123522397Y-82531144D01*
X123681362Y-82147369D01*
X123559231Y-81927000D01*
X122427000Y-81927000D01*
X122219110Y-81927000D01*
X122106251Y-81814141D01*
X121993392Y-81927000D01*
X121351576Y-81927000D01*
X121142259Y-81840084D01*
X120586498Y-81839599D01*
X120196193Y-82000870D01*
X120945136Y-81500442D01*
X121040769Y-81673000D01*
X121993392Y-81673000D01*
X122106251Y-81785859D01*
X122285859Y-81606251D01*
X122173000Y-81493392D01*
X122173000Y-80540769D01*
X122053037Y-80474284D01*
X122340077Y-80091563D01*
X122339599Y-80639820D01*
X122427000Y-80851347D01*
X122427000Y-81493392D01*
X122314141Y-81606251D01*
X122493749Y-81785859D01*
X122606608Y-81673000D01*
X123248424Y-81673000D01*
X123457741Y-81759916D01*
X124013502Y-81760401D01*
X124527144Y-81548169D01*
X124920470Y-81155529D01*
X125133598Y-80642259D01*
X125134083Y-80086498D01*
X124921851Y-79572856D01*
X124529211Y-79179530D01*
X124015941Y-78966402D01*
X123460180Y-78965917D01*
X123060434Y-79131088D01*
X123101600Y-79076200D01*
X123123241Y-79030668D01*
X123127000Y-79000000D01*
X123127000Y-78244034D01*
X123446358Y-76638514D01*
X123446358Y-76361486D01*
X123127000Y-74755966D01*
X123127000Y-74000000D01*
X123116994Y-73950590D01*
X123101600Y-73923800D01*
X123060118Y-73868491D01*
X123457741Y-74033598D01*
X124013502Y-74034083D01*
X124527144Y-73821851D01*
X124920470Y-73429211D01*
X125133598Y-72915941D01*
X125134083Y-72360180D01*
X124921851Y-71846538D01*
X124529211Y-71453212D01*
X124015941Y-71240084D01*
X123460180Y-71239599D01*
X123248653Y-71327000D01*
X122606608Y-71327000D01*
X122493749Y-71214141D01*
X122314141Y-71393749D01*
X122427000Y-71506608D01*
X122427000Y-72148424D01*
X122340084Y-72357741D01*
X122339604Y-72907805D01*
X122053037Y-72525716D01*
X122173000Y-72459231D01*
X122173000Y-71506608D01*
X122285859Y-71393749D01*
X122106251Y-71214141D01*
X121993392Y-71327000D01*
X121040769Y-71327000D01*
X120974284Y-71446963D01*
X120591563Y-71159923D01*
X121139820Y-71160401D01*
X121351347Y-71073000D01*
X121993392Y-71073000D01*
X122106251Y-71185859D01*
X122285859Y-71006251D01*
X122173000Y-70893392D01*
X122173000Y-70523159D01*
X122427000Y-70523159D01*
X122427000Y-70893392D01*
X122314141Y-71006251D01*
X122493749Y-71185859D01*
X122606608Y-71073000D01*
X123559231Y-71073000D01*
X123681362Y-70852631D01*
X123525161Y-70523159D01*
X124648357Y-70523159D01*
X127064878Y-72939680D01*
X127064838Y-72985167D01*
X127206883Y-73328943D01*
X127469673Y-73592192D01*
X127813201Y-73734838D01*
X128185167Y-73735162D01*
X128528943Y-73593117D01*
X128792192Y-73330327D01*
X128934838Y-72986799D01*
X128935162Y-72614833D01*
X128793117Y-72271057D01*
X128530327Y-72007808D01*
X128186799Y-71865162D01*
X128139923Y-71865121D01*
X125500560Y-69225758D01*
X125253998Y-69061011D01*
X124963159Y-69003159D01*
X122060690Y-69003159D01*
X122048169Y-68972856D01*
X121655529Y-68579530D01*
X121142259Y-68366402D01*
X120586498Y-68365917D01*
X120072856Y-68578149D01*
X119679530Y-68970789D01*
X119466402Y-69484059D01*
X119465917Y-70039820D01*
X119631088Y-70439566D01*
X119576200Y-70398400D01*
X119530668Y-70376759D01*
X119500000Y-70373000D01*
X118744034Y-70373000D01*
X117138514Y-70053642D01*
X117068584Y-70053642D01*
X117000000Y-70040000D01*
X111044092Y-70040000D01*
X109710000Y-68705908D01*
X109710000Y-66759482D01*
X113164336Y-66759482D01*
X113746950Y-68169515D01*
X114824811Y-69249259D01*
X116233825Y-69834333D01*
X117759482Y-69835664D01*
X119169515Y-69253050D01*
X120249259Y-68175189D01*
X120834333Y-66766175D01*
X120835664Y-65240518D01*
X120253050Y-63830485D01*
X119175189Y-62750741D01*
X117766175Y-62165667D01*
X116240518Y-62164336D01*
X114830485Y-62746950D01*
X113750741Y-63824811D01*
X113165667Y-65233825D01*
X113164336Y-66759482D01*
X109710000Y-66759482D01*
X109710000Y-62794092D01*
X111044092Y-61460000D01*
X131738175Y-61460000D01*
X131532559Y-61592310D01*
X131532559Y-61592310D01*
G37*
X131532559Y-61592310D02*
X131387569Y-61804510D01*
X131336560Y-62056400D01*
X131336560Y-63783600D01*
X131380838Y-64018917D01*
X131519910Y-64235041D01*
X131732110Y-64380031D01*
X131826927Y-64399232D01*
X131649268Y-64557964D01*
X131395291Y-65085209D01*
X131392642Y-65100974D01*
X131513783Y-65333000D01*
X132873000Y-65333000D01*
X132873000Y-65313000D01*
X133127000Y-65313000D01*
X133127000Y-65333000D01*
X133147000Y-65333000D01*
X133147000Y-65587000D01*
X133127000Y-65587000D01*
X133127000Y-65607000D01*
X132873000Y-65607000D01*
X132873000Y-65587000D01*
X131513783Y-65587000D01*
X131392642Y-65819026D01*
X131395291Y-65834791D01*
X131649268Y-66362036D01*
X132065069Y-66733539D01*
X131755585Y-66940330D01*
X131430729Y-67426511D01*
X131316655Y-68000000D01*
X131430729Y-68573489D01*
X131755585Y-69059670D01*
X132070366Y-69270000D01*
X131755585Y-69480330D01*
X131430729Y-69966511D01*
X131316655Y-70540000D01*
X131430729Y-71113489D01*
X131755585Y-71599670D01*
X132241766Y-71924526D01*
X132296038Y-71935321D01*
X132297852Y-71944439D01*
X132462599Y-72191001D01*
X132709161Y-72355748D01*
X133000000Y-72413600D01*
X133290839Y-72355748D01*
X133537401Y-72191001D01*
X133702148Y-71944439D01*
X133703962Y-71935321D01*
X133758234Y-71924526D01*
X134244415Y-71599670D01*
X134290000Y-71531447D01*
X134290000Y-83255302D01*
X120610024Y-88306370D01*
X120834333Y-87766175D01*
X120835664Y-86240518D01*
X120253050Y-84830485D01*
X119175189Y-83750741D01*
X117766175Y-83165667D01*
X116240518Y-83164336D01*
X114830485Y-83746950D01*
X113750741Y-84824811D01*
X113210000Y-86127059D01*
X113210000Y-84294092D01*
X114544092Y-82960000D01*
X117000000Y-82960000D01*
X117068584Y-82946358D01*
X117138514Y-82946358D01*
X118744034Y-82627000D01*
X119000000Y-82627000D01*
X119065341Y-82608902D01*
X119179565Y-82540367D01*
X119338944Y-82508665D01*
X119594885Y-82402650D01*
X119977578Y-82146943D01*
X119679530Y-82444471D01*
X119466402Y-82957741D01*
X119465917Y-83513502D01*
X119678149Y-84027144D01*
X120070789Y-84420470D01*
X120584059Y-84633598D01*
X121139820Y-84634083D01*
X121653462Y-84421851D01*
X122046788Y-84029211D01*
X122259916Y-83515941D01*
X122260401Y-82960180D01*
X122173000Y-82748653D01*
X122173000Y-82106608D01*
X122285859Y-81993749D01*
X122219110Y-81927000D01*
X122427000Y-81927000D01*
X122427000Y-83059231D01*
X122647369Y-83181362D01*
X123149551Y-82943280D01*
X123522397Y-82531144D01*
X123681362Y-82147369D01*
X123559231Y-81927000D01*
X122427000Y-81927000D01*
X122219110Y-81927000D01*
X122106251Y-81814141D01*
X121993392Y-81927000D01*
X121351576Y-81927000D01*
X121142259Y-81840084D01*
X120586498Y-81839599D01*
X120196193Y-82000870D01*
X120945136Y-81500442D01*
X121040769Y-81673000D01*
X121993392Y-81673000D01*
X122106251Y-81785859D01*
X122285859Y-81606251D01*
X122173000Y-81493392D01*
X122173000Y-80540769D01*
X122053037Y-80474284D01*
X122340077Y-80091563D01*
X122339599Y-80639820D01*
X122427000Y-80851347D01*
X122427000Y-81493392D01*
X122314141Y-81606251D01*
X122493749Y-81785859D01*
X122606608Y-81673000D01*
X123248424Y-81673000D01*
X123457741Y-81759916D01*
X124013502Y-81760401D01*
X124527144Y-81548169D01*
X124920470Y-81155529D01*
X125133598Y-80642259D01*
X125134083Y-80086498D01*
X124921851Y-79572856D01*
X124529211Y-79179530D01*
X124015941Y-78966402D01*
X123460180Y-78965917D01*
X123060434Y-79131088D01*
X123101600Y-79076200D01*
X123123241Y-79030668D01*
X123127000Y-79000000D01*
X123127000Y-78244034D01*
X123446358Y-76638514D01*
X123446358Y-76361486D01*
X123127000Y-74755966D01*
X123127000Y-74000000D01*
X123116994Y-73950590D01*
X123101600Y-73923800D01*
X123060118Y-73868491D01*
X123457741Y-74033598D01*
X124013502Y-74034083D01*
X124527144Y-73821851D01*
X124920470Y-73429211D01*
X125133598Y-72915941D01*
X125134083Y-72360180D01*
X124921851Y-71846538D01*
X124529211Y-71453212D01*
X124015941Y-71240084D01*
X123460180Y-71239599D01*
X123248653Y-71327000D01*
X122606608Y-71327000D01*
X122493749Y-71214141D01*
X122314141Y-71393749D01*
X122427000Y-71506608D01*
X122427000Y-72148424D01*
X122340084Y-72357741D01*
X122339604Y-72907805D01*
X122053037Y-72525716D01*
X122173000Y-72459231D01*
X122173000Y-71506608D01*
X122285859Y-71393749D01*
X122106251Y-71214141D01*
X121993392Y-71327000D01*
X121040769Y-71327000D01*
X120974284Y-71446963D01*
X120591563Y-71159923D01*
X121139820Y-71160401D01*
X121351347Y-71073000D01*
X121993392Y-71073000D01*
X122106251Y-71185859D01*
X122285859Y-71006251D01*
X122173000Y-70893392D01*
X122173000Y-70523159D01*
X122427000Y-70523159D01*
X122427000Y-70893392D01*
X122314141Y-71006251D01*
X122493749Y-71185859D01*
X122606608Y-71073000D01*
X123559231Y-71073000D01*
X123681362Y-70852631D01*
X123525161Y-70523159D01*
X124648357Y-70523159D01*
X127064878Y-72939680D01*
X127064838Y-72985167D01*
X127206883Y-73328943D01*
X127469673Y-73592192D01*
X127813201Y-73734838D01*
X128185167Y-73735162D01*
X128528943Y-73593117D01*
X128792192Y-73330327D01*
X128934838Y-72986799D01*
X128935162Y-72614833D01*
X128793117Y-72271057D01*
X128530327Y-72007808D01*
X128186799Y-71865162D01*
X128139923Y-71865121D01*
X125500560Y-69225758D01*
X125253998Y-69061011D01*
X124963159Y-69003159D01*
X122060690Y-69003159D01*
X122048169Y-68972856D01*
X121655529Y-68579530D01*
X121142259Y-68366402D01*
X120586498Y-68365917D01*
X120072856Y-68578149D01*
X119679530Y-68970789D01*
X119466402Y-69484059D01*
X119465917Y-70039820D01*
X119631088Y-70439566D01*
X119576200Y-70398400D01*
X119530668Y-70376759D01*
X119500000Y-70373000D01*
X118744034Y-70373000D01*
X117138514Y-70053642D01*
X117068584Y-70053642D01*
X117000000Y-70040000D01*
X111044092Y-70040000D01*
X109710000Y-68705908D01*
X109710000Y-66759482D01*
X113164336Y-66759482D01*
X113746950Y-68169515D01*
X114824811Y-69249259D01*
X116233825Y-69834333D01*
X117759482Y-69835664D01*
X119169515Y-69253050D01*
X120249259Y-68175189D01*
X120834333Y-66766175D01*
X120835664Y-65240518D01*
X120253050Y-63830485D01*
X119175189Y-62750741D01*
X117766175Y-62165667D01*
X116240518Y-62164336D01*
X114830485Y-62746950D01*
X113750741Y-63824811D01*
X113165667Y-65233825D01*
X113164336Y-66759482D01*
X109710000Y-66759482D01*
X109710000Y-62794092D01*
X111044092Y-61460000D01*
X131738175Y-61460000D01*
X131532559Y-61592310D01*
M02*
