G04 #@! TF.FileFunction,Copper,L1,Top,Signal*
%FSLAX46Y46*%
G04 Gerber Fmt 4.6, Leading zero omitted, Abs format (unit mm)*
G04 Created by KiCad (PCBNEW 4.0.4+dfsg1-stable) date Thu Jun  8 13:46:51 2017*
%MOMM*%
%LPD*%
G01*
G04 APERTURE LIST*
%ADD10C,0.100000*%
%ADD11R,2.032000X1.727200*%
%ADD12O,2.032000X1.727200*%
%ADD13R,1.500000X1.250000*%
%ADD14R,1.500000X1.300000*%
%ADD15C,1.524000*%
%ADD16C,0.600000*%
%ADD17C,0.250000*%
%ADD18C,0.254000*%
G04 APERTURE END LIST*
D10*
D11*
X133000000Y-62920000D03*
D12*
X133000000Y-65460000D03*
X133000000Y-68000000D03*
X133000000Y-70540000D03*
D13*
X129750000Y-78700000D03*
X132250000Y-78700000D03*
D14*
X129750000Y-76400000D03*
X132450000Y-76400000D03*
X129750000Y-74000000D03*
X132450000Y-74000000D03*
D15*
X122300000Y-71200000D03*
X123736841Y-72636841D03*
X120863159Y-69763159D03*
X122300000Y-81800000D03*
X120863159Y-83236841D03*
X123736841Y-80363159D03*
D16*
X128000000Y-72800000D03*
X127900000Y-77500006D03*
X123500000Y-85200000D03*
X124000000Y-63800000D03*
D17*
X133000000Y-62920000D02*
X127706318Y-62920000D01*
X127706318Y-62920000D02*
X120863159Y-69763159D01*
X123736841Y-80363159D02*
X128961841Y-80363159D01*
X128961841Y-80363159D02*
X129750000Y-79575000D01*
X129750000Y-79575000D02*
X129750000Y-78700000D01*
X128299999Y-73099999D02*
X128000000Y-72800000D01*
X129200000Y-74000000D02*
X128299999Y-73099999D01*
X130050000Y-74000000D02*
X129200000Y-74000000D01*
X129750000Y-78700000D02*
X129750000Y-76400000D01*
X129750000Y-74000000D02*
X129750000Y-76400000D01*
X130703949Y-70296051D02*
X126077631Y-70296051D01*
X126077631Y-70296051D02*
X123736841Y-72636841D01*
X130703949Y-70296051D02*
X132450000Y-72042102D01*
X132450000Y-72042102D02*
X132450000Y-74000000D01*
X130703949Y-70296051D02*
X133000000Y-68000000D01*
X132847600Y-68000000D02*
X133000000Y-68000000D01*
X133800000Y-80000000D02*
X130563159Y-83236841D01*
X130563159Y-83236841D02*
X120863159Y-83236841D01*
X132450000Y-76400000D02*
X133450000Y-76400000D01*
X133000000Y-71653600D02*
X133000000Y-70540000D01*
X133450000Y-76400000D02*
X134266000Y-75584000D01*
X134266000Y-75584000D02*
X134266000Y-72919600D01*
X134266000Y-72919600D02*
X133000000Y-71653600D01*
X133800000Y-76750000D02*
X133800000Y-80000000D01*
X133450000Y-76400000D02*
X133800000Y-76750000D01*
X131950000Y-76500000D02*
X131950000Y-76200000D01*
X132847600Y-70540000D02*
X133000000Y-70540000D01*
D18*
G36*
X134290000Y-83255302D02*
X120610024Y-88306370D01*
X120834333Y-87766175D01*
X120835664Y-86240518D01*
X120253050Y-84830485D01*
X119175189Y-83750741D01*
X117766175Y-83165667D01*
X116240518Y-83164336D01*
X114830485Y-83746950D01*
X113750741Y-84824811D01*
X113210000Y-86127059D01*
X113210000Y-84294092D01*
X114544092Y-82960000D01*
X117000000Y-82960000D01*
X117068584Y-82946358D01*
X117138514Y-82946358D01*
X118744034Y-82627000D01*
X119000000Y-82627000D01*
X119065341Y-82608902D01*
X119179565Y-82540367D01*
X119338944Y-82508665D01*
X119594885Y-82402650D01*
X119977578Y-82146943D01*
X119679530Y-82444471D01*
X119466402Y-82957741D01*
X119465917Y-83513502D01*
X119678149Y-84027144D01*
X120070789Y-84420470D01*
X120584059Y-84633598D01*
X121139820Y-84634083D01*
X121653462Y-84421851D01*
X122046788Y-84029211D01*
X122060229Y-83996841D01*
X130563159Y-83996841D01*
X130853998Y-83938989D01*
X131100560Y-83774242D01*
X134290000Y-80584802D01*
X134290000Y-83255302D01*
X134290000Y-83255302D01*
G37*
X134290000Y-83255302D02*
X120610024Y-88306370D01*
X120834333Y-87766175D01*
X120835664Y-86240518D01*
X120253050Y-84830485D01*
X119175189Y-83750741D01*
X117766175Y-83165667D01*
X116240518Y-83164336D01*
X114830485Y-83746950D01*
X113750741Y-84824811D01*
X113210000Y-86127059D01*
X113210000Y-84294092D01*
X114544092Y-82960000D01*
X117000000Y-82960000D01*
X117068584Y-82946358D01*
X117138514Y-82946358D01*
X118744034Y-82627000D01*
X119000000Y-82627000D01*
X119065341Y-82608902D01*
X119179565Y-82540367D01*
X119338944Y-82508665D01*
X119594885Y-82402650D01*
X119977578Y-82146943D01*
X119679530Y-82444471D01*
X119466402Y-82957741D01*
X119465917Y-83513502D01*
X119678149Y-84027144D01*
X120070789Y-84420470D01*
X120584059Y-84633598D01*
X121139820Y-84634083D01*
X121653462Y-84421851D01*
X122046788Y-84029211D01*
X122060229Y-83996841D01*
X130563159Y-83996841D01*
X130853998Y-83938989D01*
X131100560Y-83774242D01*
X134290000Y-80584802D01*
X134290000Y-83255302D01*
G36*
X132377000Y-78573000D02*
X132397000Y-78573000D01*
X132397000Y-78827000D01*
X132377000Y-78827000D01*
X132377000Y-79801250D01*
X132535750Y-79960000D01*
X132765198Y-79960000D01*
X130248357Y-82476841D01*
X123544890Y-82476841D01*
X123681362Y-82147369D01*
X123559231Y-81927000D01*
X122606608Y-81927000D01*
X122493749Y-81814141D01*
X122314141Y-81993749D01*
X122427000Y-82106608D01*
X122427000Y-82476841D01*
X122173000Y-82476841D01*
X122173000Y-82106608D01*
X122285859Y-81993749D01*
X122106251Y-81814141D01*
X121993392Y-81927000D01*
X121351576Y-81927000D01*
X121142259Y-81840084D01*
X120586498Y-81839599D01*
X120196193Y-82000870D01*
X120945136Y-81500442D01*
X121040769Y-81673000D01*
X121993392Y-81673000D01*
X122106251Y-81785859D01*
X122285859Y-81606251D01*
X122173000Y-81493392D01*
X122173000Y-80540769D01*
X122053037Y-80474284D01*
X122340077Y-80091563D01*
X122339599Y-80639820D01*
X122427000Y-80851347D01*
X122427000Y-81493392D01*
X122314141Y-81606251D01*
X122493749Y-81785859D01*
X122606608Y-81673000D01*
X123248424Y-81673000D01*
X123457741Y-81759916D01*
X124013502Y-81760401D01*
X124527144Y-81548169D01*
X124920470Y-81155529D01*
X124933911Y-81123159D01*
X128961841Y-81123159D01*
X129252680Y-81065307D01*
X129499242Y-80900560D01*
X130287401Y-80112401D01*
X130380920Y-79972440D01*
X130500000Y-79972440D01*
X130735317Y-79928162D01*
X130951441Y-79789090D01*
X130997969Y-79720994D01*
X131140302Y-79863327D01*
X131373691Y-79960000D01*
X131964250Y-79960000D01*
X132123000Y-79801250D01*
X132123000Y-78827000D01*
X132103000Y-78827000D01*
X132103000Y-78573000D01*
X132123000Y-78573000D01*
X132123000Y-78553000D01*
X132377000Y-78553000D01*
X132377000Y-78573000D01*
X132377000Y-78573000D01*
G37*
X132377000Y-78573000D02*
X132397000Y-78573000D01*
X132397000Y-78827000D01*
X132377000Y-78827000D01*
X132377000Y-79801250D01*
X132535750Y-79960000D01*
X132765198Y-79960000D01*
X130248357Y-82476841D01*
X123544890Y-82476841D01*
X123681362Y-82147369D01*
X123559231Y-81927000D01*
X122606608Y-81927000D01*
X122493749Y-81814141D01*
X122314141Y-81993749D01*
X122427000Y-82106608D01*
X122427000Y-82476841D01*
X122173000Y-82476841D01*
X122173000Y-82106608D01*
X122285859Y-81993749D01*
X122106251Y-81814141D01*
X121993392Y-81927000D01*
X121351576Y-81927000D01*
X121142259Y-81840084D01*
X120586498Y-81839599D01*
X120196193Y-82000870D01*
X120945136Y-81500442D01*
X121040769Y-81673000D01*
X121993392Y-81673000D01*
X122106251Y-81785859D01*
X122285859Y-81606251D01*
X122173000Y-81493392D01*
X122173000Y-80540769D01*
X122053037Y-80474284D01*
X122340077Y-80091563D01*
X122339599Y-80639820D01*
X122427000Y-80851347D01*
X122427000Y-81493392D01*
X122314141Y-81606251D01*
X122493749Y-81785859D01*
X122606608Y-81673000D01*
X123248424Y-81673000D01*
X123457741Y-81759916D01*
X124013502Y-81760401D01*
X124527144Y-81548169D01*
X124920470Y-81155529D01*
X124933911Y-81123159D01*
X128961841Y-81123159D01*
X129252680Y-81065307D01*
X129499242Y-80900560D01*
X130287401Y-80112401D01*
X130380920Y-79972440D01*
X130500000Y-79972440D01*
X130735317Y-79928162D01*
X130951441Y-79789090D01*
X130997969Y-79720994D01*
X131140302Y-79863327D01*
X131373691Y-79960000D01*
X131964250Y-79960000D01*
X132123000Y-79801250D01*
X132123000Y-78827000D01*
X132103000Y-78827000D01*
X132103000Y-78573000D01*
X132123000Y-78573000D01*
X132123000Y-78553000D01*
X132377000Y-78553000D01*
X132377000Y-78573000D01*
G36*
X131690000Y-72356904D02*
X131690000Y-72704442D01*
X131464683Y-72746838D01*
X131248559Y-72885910D01*
X131103569Y-73098110D01*
X131100919Y-73111197D01*
X130964090Y-72898559D01*
X130751890Y-72753569D01*
X130500000Y-72702560D01*
X129000000Y-72702560D01*
X128980947Y-72706145D01*
X128935122Y-72660320D01*
X128935162Y-72614833D01*
X128793117Y-72271057D01*
X128530327Y-72007808D01*
X128186799Y-71865162D01*
X127814833Y-71864838D01*
X127471057Y-72006883D01*
X127207808Y-72269673D01*
X127065162Y-72613201D01*
X127064838Y-72985167D01*
X127206883Y-73328943D01*
X127469673Y-73592192D01*
X127813201Y-73734838D01*
X127860077Y-73734879D01*
X128352560Y-74227362D01*
X128352560Y-74650000D01*
X128396838Y-74885317D01*
X128535910Y-75101441D01*
X128681083Y-75200633D01*
X128548559Y-75285910D01*
X128403569Y-75498110D01*
X128352560Y-75750000D01*
X128352560Y-77050000D01*
X128396838Y-77285317D01*
X128535910Y-77501441D01*
X128624554Y-77562009D01*
X128548559Y-77610910D01*
X128403569Y-77823110D01*
X128352560Y-78075000D01*
X128352560Y-79325000D01*
X128396838Y-79560317D01*
X128424406Y-79603159D01*
X124934372Y-79603159D01*
X124921851Y-79572856D01*
X124529211Y-79179530D01*
X124015941Y-78966402D01*
X123460180Y-78965917D01*
X123060434Y-79131088D01*
X123101600Y-79076200D01*
X123123241Y-79030668D01*
X123127000Y-79000000D01*
X123127000Y-78244034D01*
X123446358Y-76638514D01*
X123446358Y-76361486D01*
X123127000Y-74755966D01*
X123127000Y-74000000D01*
X123116994Y-73950590D01*
X123101600Y-73923800D01*
X123060118Y-73868491D01*
X123457741Y-74033598D01*
X124013502Y-74034083D01*
X124527144Y-73821851D01*
X124920470Y-73429211D01*
X125133598Y-72915941D01*
X125134083Y-72360180D01*
X125120698Y-72327786D01*
X126392433Y-71056051D01*
X130389147Y-71056051D01*
X131690000Y-72356904D01*
X131690000Y-72356904D01*
G37*
X131690000Y-72356904D02*
X131690000Y-72704442D01*
X131464683Y-72746838D01*
X131248559Y-72885910D01*
X131103569Y-73098110D01*
X131100919Y-73111197D01*
X130964090Y-72898559D01*
X130751890Y-72753569D01*
X130500000Y-72702560D01*
X129000000Y-72702560D01*
X128980947Y-72706145D01*
X128935122Y-72660320D01*
X128935162Y-72614833D01*
X128793117Y-72271057D01*
X128530327Y-72007808D01*
X128186799Y-71865162D01*
X127814833Y-71864838D01*
X127471057Y-72006883D01*
X127207808Y-72269673D01*
X127065162Y-72613201D01*
X127064838Y-72985167D01*
X127206883Y-73328943D01*
X127469673Y-73592192D01*
X127813201Y-73734838D01*
X127860077Y-73734879D01*
X128352560Y-74227362D01*
X128352560Y-74650000D01*
X128396838Y-74885317D01*
X128535910Y-75101441D01*
X128681083Y-75200633D01*
X128548559Y-75285910D01*
X128403569Y-75498110D01*
X128352560Y-75750000D01*
X128352560Y-77050000D01*
X128396838Y-77285317D01*
X128535910Y-77501441D01*
X128624554Y-77562009D01*
X128548559Y-77610910D01*
X128403569Y-77823110D01*
X128352560Y-78075000D01*
X128352560Y-79325000D01*
X128396838Y-79560317D01*
X128424406Y-79603159D01*
X124934372Y-79603159D01*
X124921851Y-79572856D01*
X124529211Y-79179530D01*
X124015941Y-78966402D01*
X123460180Y-78965917D01*
X123060434Y-79131088D01*
X123101600Y-79076200D01*
X123123241Y-79030668D01*
X123127000Y-79000000D01*
X123127000Y-78244034D01*
X123446358Y-76638514D01*
X123446358Y-76361486D01*
X123127000Y-74755966D01*
X123127000Y-74000000D01*
X123116994Y-73950590D01*
X123101600Y-73923800D01*
X123060118Y-73868491D01*
X123457741Y-74033598D01*
X124013502Y-74034083D01*
X124527144Y-73821851D01*
X124920470Y-73429211D01*
X125133598Y-72915941D01*
X125134083Y-72360180D01*
X125120698Y-72327786D01*
X126392433Y-71056051D01*
X130389147Y-71056051D01*
X131690000Y-72356904D01*
G36*
X131336560Y-63783600D02*
X131380838Y-64018917D01*
X131519910Y-64235041D01*
X131732110Y-64380031D01*
X131826927Y-64399232D01*
X131649268Y-64557964D01*
X131395291Y-65085209D01*
X131392642Y-65100974D01*
X131513783Y-65333000D01*
X132873000Y-65333000D01*
X132873000Y-65313000D01*
X133127000Y-65313000D01*
X133127000Y-65333000D01*
X133147000Y-65333000D01*
X133147000Y-65587000D01*
X133127000Y-65587000D01*
X133127000Y-65607000D01*
X132873000Y-65607000D01*
X132873000Y-65587000D01*
X131513783Y-65587000D01*
X131392642Y-65819026D01*
X131395291Y-65834791D01*
X131649268Y-66362036D01*
X132065069Y-66733539D01*
X131755585Y-66940330D01*
X131430729Y-67426511D01*
X131316655Y-68000000D01*
X131417619Y-68507579D01*
X130389147Y-69536051D01*
X126077631Y-69536051D01*
X125786792Y-69593903D01*
X125540230Y-69758650D01*
X124046222Y-71252658D01*
X124015941Y-71240084D01*
X123460180Y-71239599D01*
X123248653Y-71327000D01*
X122606608Y-71327000D01*
X122493749Y-71214141D01*
X122314141Y-71393749D01*
X122427000Y-71506608D01*
X122427000Y-72148424D01*
X122340084Y-72357741D01*
X122339604Y-72907805D01*
X122053037Y-72525716D01*
X122173000Y-72459231D01*
X122173000Y-71506608D01*
X122285859Y-71393749D01*
X122106251Y-71214141D01*
X121993392Y-71327000D01*
X121040769Y-71327000D01*
X120974284Y-71446963D01*
X120591563Y-71159923D01*
X121139820Y-71160401D01*
X121351347Y-71073000D01*
X121993392Y-71073000D01*
X122106251Y-71185859D01*
X122285859Y-71006251D01*
X122173000Y-70893392D01*
X122173000Y-70251576D01*
X122259916Y-70042259D01*
X122260004Y-69940769D01*
X122427000Y-69940769D01*
X122427000Y-71073000D01*
X123559231Y-71073000D01*
X123681362Y-70852631D01*
X123443280Y-70350449D01*
X123031144Y-69977603D01*
X122647369Y-69818638D01*
X122427000Y-69940769D01*
X122260004Y-69940769D01*
X122260401Y-69486498D01*
X122247016Y-69454104D01*
X128021120Y-63680000D01*
X131336560Y-63680000D01*
X131336560Y-63783600D01*
X131336560Y-63783600D01*
G37*
X131336560Y-63783600D02*
X131380838Y-64018917D01*
X131519910Y-64235041D01*
X131732110Y-64380031D01*
X131826927Y-64399232D01*
X131649268Y-64557964D01*
X131395291Y-65085209D01*
X131392642Y-65100974D01*
X131513783Y-65333000D01*
X132873000Y-65333000D01*
X132873000Y-65313000D01*
X133127000Y-65313000D01*
X133127000Y-65333000D01*
X133147000Y-65333000D01*
X133147000Y-65587000D01*
X133127000Y-65587000D01*
X133127000Y-65607000D01*
X132873000Y-65607000D01*
X132873000Y-65587000D01*
X131513783Y-65587000D01*
X131392642Y-65819026D01*
X131395291Y-65834791D01*
X131649268Y-66362036D01*
X132065069Y-66733539D01*
X131755585Y-66940330D01*
X131430729Y-67426511D01*
X131316655Y-68000000D01*
X131417619Y-68507579D01*
X130389147Y-69536051D01*
X126077631Y-69536051D01*
X125786792Y-69593903D01*
X125540230Y-69758650D01*
X124046222Y-71252658D01*
X124015941Y-71240084D01*
X123460180Y-71239599D01*
X123248653Y-71327000D01*
X122606608Y-71327000D01*
X122493749Y-71214141D01*
X122314141Y-71393749D01*
X122427000Y-71506608D01*
X122427000Y-72148424D01*
X122340084Y-72357741D01*
X122339604Y-72907805D01*
X122053037Y-72525716D01*
X122173000Y-72459231D01*
X122173000Y-71506608D01*
X122285859Y-71393749D01*
X122106251Y-71214141D01*
X121993392Y-71327000D01*
X121040769Y-71327000D01*
X120974284Y-71446963D01*
X120591563Y-71159923D01*
X121139820Y-71160401D01*
X121351347Y-71073000D01*
X121993392Y-71073000D01*
X122106251Y-71185859D01*
X122285859Y-71006251D01*
X122173000Y-70893392D01*
X122173000Y-70251576D01*
X122259916Y-70042259D01*
X122260004Y-69940769D01*
X122427000Y-69940769D01*
X122427000Y-71073000D01*
X123559231Y-71073000D01*
X123681362Y-70852631D01*
X123443280Y-70350449D01*
X123031144Y-69977603D01*
X122647369Y-69818638D01*
X122427000Y-69940769D01*
X122260004Y-69940769D01*
X122260401Y-69486498D01*
X122247016Y-69454104D01*
X128021120Y-63680000D01*
X131336560Y-63680000D01*
X131336560Y-63783600D01*
G36*
X131532559Y-61592310D02*
X131387569Y-61804510D01*
X131336560Y-62056400D01*
X131336560Y-62160000D01*
X127706318Y-62160000D01*
X127415478Y-62217852D01*
X127168917Y-62382599D01*
X121172540Y-68378976D01*
X121142259Y-68366402D01*
X120586498Y-68365917D01*
X120072856Y-68578149D01*
X119679530Y-68970789D01*
X119466402Y-69484059D01*
X119465917Y-70039820D01*
X119631088Y-70439566D01*
X119576200Y-70398400D01*
X119530668Y-70376759D01*
X119500000Y-70373000D01*
X118744034Y-70373000D01*
X117138514Y-70053642D01*
X117068584Y-70053642D01*
X117000000Y-70040000D01*
X111044092Y-70040000D01*
X109710000Y-68705908D01*
X109710000Y-66759482D01*
X113164336Y-66759482D01*
X113746950Y-68169515D01*
X114824811Y-69249259D01*
X116233825Y-69834333D01*
X117759482Y-69835664D01*
X119169515Y-69253050D01*
X120249259Y-68175189D01*
X120834333Y-66766175D01*
X120835664Y-65240518D01*
X120253050Y-63830485D01*
X119175189Y-62750741D01*
X117766175Y-62165667D01*
X116240518Y-62164336D01*
X114830485Y-62746950D01*
X113750741Y-63824811D01*
X113165667Y-65233825D01*
X113164336Y-66759482D01*
X109710000Y-66759482D01*
X109710000Y-62794092D01*
X111044092Y-61460000D01*
X131738175Y-61460000D01*
X131532559Y-61592310D01*
X131532559Y-61592310D01*
G37*
X131532559Y-61592310D02*
X131387569Y-61804510D01*
X131336560Y-62056400D01*
X131336560Y-62160000D01*
X127706318Y-62160000D01*
X127415478Y-62217852D01*
X127168917Y-62382599D01*
X121172540Y-68378976D01*
X121142259Y-68366402D01*
X120586498Y-68365917D01*
X120072856Y-68578149D01*
X119679530Y-68970789D01*
X119466402Y-69484059D01*
X119465917Y-70039820D01*
X119631088Y-70439566D01*
X119576200Y-70398400D01*
X119530668Y-70376759D01*
X119500000Y-70373000D01*
X118744034Y-70373000D01*
X117138514Y-70053642D01*
X117068584Y-70053642D01*
X117000000Y-70040000D01*
X111044092Y-70040000D01*
X109710000Y-68705908D01*
X109710000Y-66759482D01*
X113164336Y-66759482D01*
X113746950Y-68169515D01*
X114824811Y-69249259D01*
X116233825Y-69834333D01*
X117759482Y-69835664D01*
X119169515Y-69253050D01*
X120249259Y-68175189D01*
X120834333Y-66766175D01*
X120835664Y-65240518D01*
X120253050Y-63830485D01*
X119175189Y-62750741D01*
X117766175Y-62165667D01*
X116240518Y-62164336D01*
X114830485Y-62746950D01*
X113750741Y-63824811D01*
X113165667Y-65233825D01*
X113164336Y-66759482D01*
X109710000Y-66759482D01*
X109710000Y-62794092D01*
X111044092Y-61460000D01*
X131738175Y-61460000D01*
X131532559Y-61592310D01*
M02*
