G04 #@! TF.FileFunction,Soldermask,Bot*
%FSLAX46Y46*%
G04 Gerber Fmt 4.6, Leading zero omitted, Abs format (unit mm)*
G04 Created by KiCad (PCBNEW 4.0.4+dfsg1-stable) date Fri Feb  3 16:23:24 2017*
%MOMM*%
%LPD*%
G01*
G04 APERTURE LIST*
%ADD10C,0.100000*%
%ADD11C,5.100000*%
%ADD12R,2.232000X1.927200*%
%ADD13O,2.232000X1.927200*%
%ADD14C,1.724000*%
%ADD15R,1.724000X1.724000*%
%ADD16C,3.200000*%
%ADD17O,1.450000X1.150000*%
%ADD18O,1.200000X1.750000*%
%ADD19C,3.600000*%
%ADD20C,6.600000*%
%ADD21C,1.701140*%
G04 APERTURE END LIST*
D10*
D11*
X110350000Y-137900000D03*
X110350000Y-79900000D03*
X159350000Y-137900000D03*
X159350000Y-79900000D03*
D12*
X105640000Y-87510000D03*
D13*
X105640000Y-90050000D03*
X105640000Y-92590000D03*
X105640000Y-95130000D03*
X105640000Y-97670000D03*
X105640000Y-100210000D03*
X105640000Y-102750000D03*
X105640000Y-105290000D03*
D12*
X105640000Y-110390000D03*
D13*
X105640000Y-112930000D03*
X105640000Y-115470000D03*
X105640000Y-118010000D03*
X105640000Y-120550000D03*
X105640000Y-123090000D03*
D12*
X153640000Y-101270000D03*
D13*
X153640000Y-98730000D03*
X153640000Y-96190000D03*
X153640000Y-93650000D03*
X153640000Y-91110000D03*
X153640000Y-88570000D03*
X153640000Y-86030000D03*
X153640000Y-83490000D03*
X153640000Y-80950000D03*
X153640000Y-78410000D03*
D12*
X153640000Y-123110000D03*
D13*
X153640000Y-120570000D03*
X153640000Y-118030000D03*
X153640000Y-115490000D03*
X153640000Y-112950000D03*
X153640000Y-110410000D03*
X153640000Y-107870000D03*
X153640000Y-105330000D03*
D14*
X137990000Y-74200000D03*
D15*
X140530000Y-74200000D03*
D14*
X143070000Y-74200000D03*
X145610000Y-74200000D03*
X116490000Y-74250000D03*
D15*
X119030000Y-74250000D03*
D14*
X121570000Y-74250000D03*
X124110000Y-74250000D03*
X123250000Y-95570000D03*
X123250000Y-93030000D03*
X141030000Y-95570000D03*
X141030000Y-93030000D03*
X141030000Y-98110000D03*
X141030000Y-100650000D03*
X141030000Y-90490000D03*
X141030000Y-87950000D03*
X123250000Y-90490000D03*
X123250000Y-98110000D03*
X42000000Y-104080000D03*
X42000000Y-101540000D03*
D15*
X42000000Y-99000000D03*
D14*
X42000000Y-96460000D03*
X42000000Y-93920000D03*
X42000000Y-91380000D03*
X42000000Y-88840000D03*
X56241305Y-113483877D03*
X54784421Y-111403231D03*
D10*
G36*
X53539223Y-108122053D02*
X54528069Y-109534271D01*
X53115851Y-110523117D01*
X52127005Y-109110899D01*
X53539223Y-108122053D01*
X53539223Y-108122053D01*
G37*
D14*
X51870653Y-107241938D03*
X50413768Y-105161292D03*
X48956884Y-103080646D03*
X47500000Y-101000000D03*
X47629348Y-91241939D03*
X49086232Y-89161293D03*
D10*
G36*
X51743648Y-86868961D02*
X50754802Y-88281179D01*
X49342584Y-87292333D01*
X50331430Y-85880115D01*
X51743648Y-86868961D01*
X51743648Y-86868961D01*
G37*
D14*
X52000000Y-85000000D03*
X53456885Y-82919354D03*
X54913769Y-80838708D03*
X56370653Y-78758062D03*
X186740000Y-56500000D03*
X189280000Y-56500000D03*
D15*
X191820000Y-56500000D03*
D14*
X194360000Y-56500000D03*
X196900000Y-56500000D03*
X199440000Y-56500000D03*
X201980000Y-56500000D03*
X270500000Y-88880000D03*
X270500000Y-91420000D03*
D15*
X270500000Y-93960000D03*
D14*
X270500000Y-96500000D03*
X270500000Y-99040000D03*
X270500000Y-101580000D03*
X270500000Y-104120000D03*
X224250000Y-95000000D03*
X224250000Y-82500000D03*
D16*
X242250000Y-119500000D03*
X242250000Y-74500000D03*
D12*
X210500000Y-79760000D03*
D13*
X210500000Y-82300000D03*
X210500000Y-84840000D03*
D12*
X53500000Y-93960000D03*
D13*
X53500000Y-96500000D03*
X53500000Y-99040000D03*
D17*
X148250000Y-136500000D03*
X153250000Y-136500000D03*
D18*
X147250000Y-139200000D03*
X154250000Y-139200000D03*
D12*
X98400000Y-105300000D03*
D13*
X98400000Y-102760000D03*
X98400000Y-100220000D03*
X98400000Y-97680000D03*
X98400000Y-95140000D03*
X98400000Y-92600000D03*
D19*
X75250000Y-81450000D03*
X67250000Y-81450000D03*
X75250000Y-111450000D03*
X67250000Y-111450000D03*
D12*
X159350000Y-130730000D03*
D13*
X159350000Y-128190000D03*
X159350000Y-125650000D03*
X159350000Y-123110000D03*
X159350000Y-120570000D03*
D12*
X268600000Y-111120000D03*
D13*
X268600000Y-113660000D03*
X268600000Y-116200000D03*
X268600000Y-118740000D03*
D20*
X43500000Y-110500000D03*
X43500000Y-82500000D03*
D21*
X115000000Y-114559060D03*
X115000000Y-119440940D03*
M02*
