M48
INCH,TZ
T1C0.016
T2C0.020
T3C0.022
T4C0.030
T5C0.032
T6C0.040
T7C0.126
T8C0.108
T9C0.118
T10C0.134
%
G90
G05
T1
X40453Y-43533
X43898Y-50906
X44291Y-50079
X45669Y-38287
X46161Y-36535
X46161Y-38346
X46654Y-49370
X46834Y-38697
X47106Y-38524
X47417Y-40122
X47638Y-46984
X47835Y-53661
X47835Y-53937
X48579Y-45466
X48701Y-42441
X48701Y-43622
X48760Y-39390
X48800Y-45243
X49017Y-45006
X49272Y-46575
X50118Y-41142
X50197Y-50906
X50512Y-45669
X50551Y-46850
X50551Y-47638
X50571Y-46476
X50571Y-48425
X50591Y-48031
X50709Y-45157
X50787Y-43740
X50787Y-48819
X51024Y-42047
X51220Y-41053
X51280Y-49980
X51299Y-48622
X51543Y-48839
X51654Y-50236
X51654Y-51693
X51732Y-40709
X51772Y-48602
X52008Y-48839
X52165Y-37992
X52283Y-41142
X52323Y-43976
X52756Y-42598
X52992Y-37992
X53268Y-50374
X53465Y-36890
X53583Y-44488
X53593Y-50138
X53652Y-41703
X53898Y-37638
X53917Y-50669
X53927Y-53839
X54016Y-41260
X54026Y-49902
X54370Y-50669
X54449Y-51457
X54724Y-45472
X54843Y-44055
X54921Y-45866
X55059Y-41083
X55059Y-41417
X55059Y-41772
X55272Y-45902
X55276Y-46220
X55276Y-46575
X55276Y-46929
X55276Y-47283
X55276Y-47913
X55301Y-43667
X55354Y-42559
X55394Y-45197
X55748Y-51457
X56229Y-48859
X56476Y-41772
X56654Y-47165
X56654Y-47866
X56654Y-48228
X56705Y-41417
X56846Y-41083
X56969Y-47165
X57047Y-44646
X57126Y-45118
X57165Y-48386
X57244Y-48071
X57283Y-46732
X57520Y-45079
X57598Y-46969
X57756Y-31929
X58071Y-49134
X58346Y-48898
X58543Y-44929
X58546Y-45244
X58583Y-49134
X58789Y-45477
X58819Y-48898
X82018Y-35531
X83661Y-35000
X84252Y-32677
X84252Y-33071
X84252Y-33465
X84341Y-35886
X84508Y-34104
X84646Y-32677
X84646Y-33071
X84646Y-33465
X84783Y-35620
X84837Y-36122
X84841Y-34216
X84843Y-34577
X85039Y-33071
X85433Y-33071
X85827Y-33071
X86122Y-34252
X86122Y-34646
X86122Y-35039
X86122Y-35433
X86122Y-35827
X86122Y-36220
X87402Y-34449
X87402Y-34843
X87402Y-35236
X87402Y-35630
X87598Y-34252
X87598Y-34646
X87598Y-35039
X87598Y-35433
X87598Y-35827
X88780Y-34252
X88780Y-35630
X88809Y-33465
X88809Y-33858
X88976Y-33268
X88976Y-33661
X88976Y-34055
X88976Y-35827
X89173Y-35630
X89370Y-35827
T4
X16535Y-34976
X16535Y-35976
X16535Y-36976
X16535Y-37976
X16535Y-38976
X16535Y-39976
X16535Y-40976
X18701Y-39764
X18752Y-35922
X19274Y-40583
X19325Y-35103
X19848Y-41402
X19899Y-34284
X20422Y-42221
X20472Y-33465
X20995Y-43040
X21046Y-32645
X21569Y-43860
X21620Y-31826
X22142Y-44679
X22193Y-31007
X45862Y-29232
X46862Y-29232
X47862Y-29232
X48524Y-35626
X48524Y-36626
X48524Y-37626
X48524Y-38626
X48862Y-29232
X54327Y-29213
X55327Y-29213
X55524Y-34626
X55524Y-35626
X55524Y-36626
X55524Y-37626
X55524Y-38626
X55524Y-39626
X56327Y-29213
X57327Y-29213
X73520Y-22244
X74520Y-22244
X75520Y-22244
X76520Y-22244
X77520Y-22244
X78520Y-22244
X79520Y-22244
X88287Y-32480
X88287Y-37402
X106496Y-34992
X106496Y-35992
X106496Y-36992
X106496Y-37992
X106496Y-38992
X106496Y-39992
X106496Y-40992
T5
X45276Y-45102
X45276Y-47024
T6
X21063Y-36992
X21063Y-37992
X21063Y-38992
X38740Y-36457
X38740Y-37457
X38740Y-38457
X38740Y-39457
X38740Y-40457
X38740Y-41457
X41591Y-34453
X41591Y-35453
X41591Y-36453
X41591Y-37453
X41591Y-38453
X41591Y-39453
X41591Y-40453
X41591Y-41453
X41591Y-43461
X41591Y-44461
X41591Y-45461
X41591Y-46461
X41591Y-47461
X41591Y-48461
X60488Y-30870
X60488Y-31870
X60488Y-32870
X60488Y-33870
X60488Y-34870
X60488Y-35870
X60488Y-36870
X60488Y-37870
X60488Y-38870
X60488Y-39870
X60488Y-41469
X60488Y-42469
X60488Y-43469
X60488Y-44469
X60488Y-45469
X60488Y-46469
X60488Y-47469
X60488Y-48469
X62736Y-47469
X62736Y-48469
X62736Y-49469
X62736Y-50469
X62736Y-51469
X82874Y-31402
X82874Y-32402
X82874Y-33402
X105748Y-43748
X105748Y-44748
X105748Y-45748
X105748Y-46748
T7
X17126Y-32480
X17126Y-43504
T8
X43445Y-31457
X43445Y-54291
X62736Y-31457
X62736Y-54291
T9
X95374Y-29331
X95374Y-47047
T10
X26476Y-32067
X26476Y-43878
X29626Y-32067
X29626Y-43878
T2
X57972Y-54931G85X57972Y-54675
G05
X60728Y-54931G85X60728Y-54675
G05
T3
X58307Y-53740G85X58425Y-53740
G05
X60276Y-53740G85X60394Y-53740
G05
T0
M30
