G04 #@! TF.FileFunction,Copper,L2,Bot,Signal*
%FSLAX46Y46*%
G04 Gerber Fmt 4.6, Leading zero omitted, Abs format (unit mm)*
G04 Created by KiCad (PCBNEW 4.0.4+dfsg1-stable) date Thu Aug 10 19:21:35 2017*
%MOMM*%
%LPD*%
G01*
G04 APERTURE LIST*
%ADD10C,0.150000*%
%ADD11C,1.050000*%
%ADD12R,1.050000X1.050000*%
%ADD13C,1.524000*%
%ADD14R,1.524000X1.524000*%
%ADD15R,1.727200X2.032000*%
%ADD16O,1.727200X2.032000*%
%ADD17R,2.032000X1.727200*%
%ADD18O,2.032000X1.727200*%
%ADD19C,6.400000*%
%ADD20C,2.000000*%
%ADD21O,2.300000X1.600000*%
%ADD22C,0.600000*%
%ADD23C,0.635000*%
%ADD24C,0.160000*%
%ADD25C,0.250000*%
%ADD26C,2.000000*%
%ADD27C,0.203200*%
%ADD28C,0.200000*%
%ADD29C,0.254000*%
G04 APERTURE END LIST*
D10*
D11*
X197263347Y-105308227D03*
X197263347Y-89308227D03*
D12*
X197263347Y-87308227D03*
D11*
X197263347Y-101308227D03*
X197263347Y-103308227D03*
X197263347Y-91308227D03*
X197263347Y-93308227D03*
X197263347Y-99308227D03*
X197263347Y-97308227D03*
X197263347Y-95308227D03*
X175263347Y-105308227D03*
X175263347Y-89308227D03*
D12*
X175263347Y-87308227D03*
D11*
X175263347Y-101308227D03*
X175263347Y-103308227D03*
X175263347Y-91308227D03*
X175263347Y-93308227D03*
X175263347Y-99308227D03*
X175263347Y-97308227D03*
X175263347Y-95308227D03*
D13*
X193108000Y-74200000D03*
D14*
X195648000Y-74200000D03*
D13*
X198188000Y-74200000D03*
X200728000Y-74200000D03*
X171608000Y-74250000D03*
D14*
X174148000Y-74250000D03*
D13*
X176688000Y-74250000D03*
X179228000Y-74250000D03*
X42000000Y-104080000D03*
X42000000Y-101540000D03*
D14*
X42000000Y-99000000D03*
D13*
X42000000Y-96460000D03*
X42000000Y-93920000D03*
X42000000Y-91380000D03*
X42000000Y-88840000D03*
X56241305Y-113483877D03*
X54784421Y-111403231D03*
D10*
G36*
X53514666Y-108261326D02*
X54388796Y-109509714D01*
X53140408Y-110383844D01*
X52266278Y-109135456D01*
X53514666Y-108261326D01*
X53514666Y-108261326D01*
G37*
D13*
X51870653Y-107241938D03*
X50413768Y-105161292D03*
X48956884Y-103080646D03*
X47500000Y-101000000D03*
X47629348Y-91241939D03*
X49086232Y-89161293D03*
D10*
G36*
X51604375Y-86893518D02*
X50730245Y-88141906D01*
X49481857Y-87267776D01*
X50355987Y-86019388D01*
X51604375Y-86893518D01*
X51604375Y-86893518D01*
G37*
D13*
X52000000Y-85000000D03*
X53456885Y-82919354D03*
X54913769Y-80838708D03*
X56370653Y-78758062D03*
X186740000Y-56500000D03*
X189280000Y-56500000D03*
D14*
X191820000Y-56500000D03*
D13*
X194360000Y-56500000D03*
X196900000Y-56500000D03*
X199440000Y-56500000D03*
X201980000Y-56500000D03*
X270500000Y-88880000D03*
X270500000Y-91420000D03*
D14*
X270500000Y-93960000D03*
D13*
X270500000Y-96500000D03*
X270500000Y-99040000D03*
X270500000Y-101580000D03*
X270500000Y-104120000D03*
X224220000Y-95020000D03*
X224220000Y-82520000D03*
D15*
X141478000Y-64008000D03*
D16*
X144018000Y-64008000D03*
X146558000Y-64008000D03*
D17*
X53500000Y-93960000D03*
D18*
X53500000Y-96500000D03*
X53500000Y-99040000D03*
D15*
X251846979Y-123304249D03*
D16*
X254386979Y-123304249D03*
X256926979Y-123304249D03*
X259466979Y-123304249D03*
D19*
X43500000Y-110500000D03*
X43500000Y-82500000D03*
D20*
X124410000Y-59262000D03*
X127610000Y-59262000D03*
X130810000Y-59262000D03*
X134010000Y-59262000D03*
X124410000Y-64262000D03*
X127610000Y-64262000D03*
X130810000Y-64262000D03*
X134010000Y-64262000D03*
D19*
X267500000Y-120500000D03*
X267500000Y-72500000D03*
X107250000Y-129500000D03*
X107250000Y-63500000D03*
X210250000Y-129500000D03*
X210250000Y-63500000D03*
X154250000Y-129500000D03*
X154250000Y-63500000D03*
D17*
X157400000Y-75560000D03*
D18*
X157400000Y-78100000D03*
X157400000Y-80640000D03*
X157400000Y-83180000D03*
D13*
X176480000Y-137000000D03*
X179020000Y-137000000D03*
X181560000Y-137000000D03*
X184100000Y-137000000D03*
X186640000Y-137000000D03*
X189180000Y-137000000D03*
X191720000Y-137000000D03*
X194260000Y-137000000D03*
X176480000Y-124300000D03*
X179020000Y-124300000D03*
X181560000Y-124300000D03*
X184100000Y-124300000D03*
X186640000Y-124300000D03*
X189180000Y-124300000D03*
X191720000Y-124300000D03*
X194260000Y-124300000D03*
D21*
X164800000Y-108500000D03*
X164800000Y-105960000D03*
X164800000Y-103420000D03*
X164800000Y-100880000D03*
X164800000Y-98340000D03*
X164800000Y-95800000D03*
X164800000Y-93260000D03*
X164800000Y-90720000D03*
X164800000Y-88180000D03*
X157180000Y-88180000D03*
X157180000Y-90720000D03*
X157180000Y-93260000D03*
X157180000Y-95800000D03*
X157180000Y-98340000D03*
X157180000Y-100880000D03*
X157180000Y-103420000D03*
X157180000Y-105960000D03*
X157180000Y-108500000D03*
D22*
X227000000Y-91000000D03*
X226500000Y-90500000D03*
X226000000Y-91000000D03*
X225500000Y-90500000D03*
X225500000Y-87000000D03*
X226000000Y-84500000D03*
X225575002Y-85000000D03*
X226000000Y-85500000D03*
X225575002Y-86000000D03*
X226000000Y-86500000D03*
X222000000Y-90500000D03*
X222000000Y-89500000D03*
X222000000Y-88500000D03*
X222000000Y-87500000D03*
X222500000Y-91000000D03*
X222500000Y-90000000D03*
X222500000Y-89000000D03*
X222500000Y-88000000D03*
X222500000Y-87000000D03*
D23*
X212401000Y-90000920D03*
X172401000Y-98800910D03*
D22*
X215497390Y-86909573D03*
X214225000Y-91150000D03*
D23*
X171601000Y-101400920D03*
D22*
X215350000Y-90475000D03*
X215500000Y-87825000D03*
D23*
X185401000Y-71000920D03*
X190001000Y-66400920D03*
X191463053Y-85628490D03*
X188301000Y-84800920D03*
X199400000Y-61100000D03*
X202200000Y-70600000D03*
X180200000Y-91400000D03*
X198300000Y-61100000D03*
X201000000Y-70600000D03*
X178201000Y-95400920D03*
X177000000Y-110300000D03*
X207600000Y-102300000D03*
X210400994Y-89200920D03*
X178401000Y-99200920D03*
X187001000Y-89400920D03*
X179801000Y-82600920D03*
D22*
X218750000Y-87000000D03*
X218750000Y-88000000D03*
X218750000Y-89000000D03*
X218750000Y-90000000D03*
X218750000Y-91000000D03*
X218750000Y-92000000D03*
X218000000Y-84000000D03*
X217000000Y-84000000D03*
X214000000Y-83000000D03*
X215000000Y-83000000D03*
X216000000Y-84000000D03*
X215000000Y-84000000D03*
X214000000Y-84000000D03*
X214000000Y-85000000D03*
X215000000Y-85000000D03*
D23*
X166300000Y-83400000D03*
X169400000Y-86500000D03*
X165100000Y-83400000D03*
X168600000Y-86900000D03*
X194400000Y-89300000D03*
X188200000Y-104400000D03*
X185500000Y-104400000D03*
D22*
X214650000Y-86625000D03*
X215554278Y-91781337D03*
D24*
X224500000Y-91100000D02*
X225900000Y-91100000D01*
X225900000Y-91100000D02*
X226000000Y-91000000D01*
D25*
X226500000Y-90500000D02*
X227000000Y-91000000D01*
X225500000Y-90500000D02*
X226000000Y-91000000D01*
X226000000Y-85500000D02*
X226000000Y-85424998D01*
X226000000Y-85424998D02*
X225575002Y-85000000D01*
X226000000Y-86500000D02*
X226000000Y-86424998D01*
X226000000Y-86424998D02*
X225575002Y-86000000D01*
X222000000Y-89500000D02*
X222000000Y-90500000D01*
X222500000Y-87000000D02*
X222000000Y-87500000D01*
X222500000Y-89000000D02*
X222500000Y-90000000D01*
X222500000Y-87000000D02*
X222500000Y-88000000D01*
D26*
X130810000Y-64262000D02*
X133010001Y-62061999D01*
X133010001Y-62061999D02*
X133010001Y-61462001D01*
X144018000Y-64008000D02*
X144018000Y-62508398D01*
X131809999Y-60261999D02*
X130810000Y-59262000D01*
X144018000Y-62508398D02*
X142971603Y-61462001D01*
X142971603Y-61462001D02*
X133010001Y-61462001D01*
X133010001Y-61462001D02*
X131809999Y-60261999D01*
X157400000Y-80640000D02*
X153661920Y-80640000D01*
X65766000Y-87250000D02*
X56516000Y-96500000D01*
X153661920Y-80640000D02*
X147051920Y-87250000D01*
X147051920Y-87250000D02*
X65766000Y-87250000D01*
X56516000Y-96500000D02*
X53500000Y-96500000D01*
X171608000Y-74250000D02*
X165218000Y-80640000D01*
X165218000Y-80640000D02*
X157400000Y-80640000D01*
D27*
X212401000Y-90000920D02*
X212401000Y-89551908D01*
X212401000Y-89551908D02*
X199250012Y-76400920D01*
X199250012Y-76400920D02*
X195308920Y-76400920D01*
X195308920Y-76400920D02*
X193869999Y-74961999D01*
X193869999Y-74961999D02*
X193108000Y-74200000D01*
X172401000Y-105400920D02*
X172401000Y-99249922D01*
X198774080Y-106600920D02*
X173601000Y-106600920D01*
X172401000Y-99249922D02*
X172401000Y-98800910D01*
X214225000Y-91150000D02*
X198774080Y-106600920D01*
X173601000Y-106600920D02*
X172401000Y-105400920D01*
D24*
X214225000Y-91150000D02*
X214225000Y-88181963D01*
X215197391Y-87209572D02*
X215497390Y-86909573D01*
X214225000Y-88181963D02*
X215197391Y-87209572D01*
D28*
X186640000Y-124300000D02*
X185140000Y-122800000D01*
X185140000Y-122800000D02*
X183060000Y-122800000D01*
X183060000Y-122800000D02*
X182321999Y-123538001D01*
X182321999Y-123538001D02*
X181560000Y-124300000D01*
D27*
X172756611Y-106956531D02*
X171601000Y-105800920D01*
X215050001Y-91551919D02*
X199645389Y-106956531D01*
X171601000Y-101849932D02*
X171601000Y-101400920D01*
X215050001Y-90774999D02*
X215050001Y-91551919D01*
X199645389Y-106956531D02*
X172756611Y-106956531D01*
X215350000Y-90475000D02*
X215050001Y-90774999D01*
X171601000Y-105800920D02*
X171601000Y-101849932D01*
D24*
X215350000Y-90475000D02*
X215350000Y-87975000D01*
X215350000Y-87975000D02*
X215500000Y-87825000D01*
X270500000Y-101580000D02*
X205578186Y-101580000D01*
X205578186Y-101580000D02*
X198458186Y-108700000D01*
X167090000Y-110600000D02*
X162170000Y-110600000D01*
X198458186Y-108700000D02*
X168990000Y-108700000D01*
X160400000Y-108830000D02*
X160400000Y-106900000D01*
X168990000Y-108700000D02*
X167090000Y-110600000D01*
X162170000Y-110600000D02*
X160400000Y-108830000D01*
X160400000Y-106900000D02*
X159460000Y-105960000D01*
X159460000Y-105960000D02*
X157180000Y-105960000D01*
X147921920Y-103480000D02*
X147981920Y-103420000D01*
X147981920Y-103420000D02*
X157180000Y-103420000D01*
D28*
X43500000Y-104500000D02*
X54600000Y-115600000D01*
X54600000Y-115600000D02*
X58406400Y-115600000D01*
X43500000Y-92880000D02*
X43500000Y-104500000D01*
X42000000Y-91380000D02*
X43500000Y-92880000D01*
X58406400Y-115600000D02*
X65431400Y-108575000D01*
X65431400Y-108575000D02*
X142826920Y-108575000D01*
X142826920Y-108575000D02*
X147921920Y-103480000D01*
D24*
X152005152Y-98400000D02*
X152065152Y-98340000D01*
X152065152Y-98340000D02*
X157180000Y-98340000D01*
D28*
X54931378Y-114799978D02*
X58075022Y-114799978D01*
X65100022Y-107774978D02*
X142630174Y-107774978D01*
X142630174Y-107774978D02*
X152005152Y-98400000D01*
X58075022Y-114799978D02*
X65100022Y-107774978D01*
X48194885Y-108063485D02*
X54931378Y-114799978D01*
X48194885Y-103842645D02*
X48194885Y-108063485D01*
X48956884Y-103080646D02*
X48194885Y-103842645D01*
D24*
X149963536Y-100940000D02*
X150023536Y-100880000D01*
X150023536Y-100880000D02*
X157180000Y-100880000D01*
D28*
X142728547Y-108174989D02*
X149963536Y-100940000D01*
X58240711Y-115199989D02*
X65265711Y-108174989D01*
X54765689Y-115199989D02*
X58240711Y-115199989D01*
X44625000Y-105059300D02*
X54765689Y-115199989D01*
X65265711Y-108174989D02*
X142728547Y-108174989D01*
X44625000Y-90049847D02*
X44625000Y-105059300D01*
X54913769Y-80838708D02*
X53836139Y-80838708D01*
X53836139Y-80838708D02*
X44625000Y-90049847D01*
D24*
X157180000Y-95800000D02*
X158490000Y-95800000D01*
X158490000Y-95800000D02*
X159800000Y-94490000D01*
X159800000Y-94490000D02*
X159800000Y-85000000D01*
X159800000Y-85000000D02*
X162100000Y-82700000D01*
X162100000Y-82700000D02*
X173701920Y-82700000D01*
X173701920Y-82700000D02*
X185083501Y-71318419D01*
X185083501Y-71318419D02*
X185401000Y-71000920D01*
X190001000Y-65939000D02*
X190001000Y-66400920D01*
X199440000Y-56500000D02*
X190001000Y-65939000D01*
X191014041Y-85628490D02*
X191463053Y-85628490D01*
X188301000Y-84800920D02*
X189128570Y-85628490D01*
X189128570Y-85628490D02*
X191014041Y-85628490D01*
X201451714Y-54500000D02*
X196360000Y-54500000D01*
X196360000Y-54500000D02*
X194360000Y-56500000D01*
X199400000Y-61100000D02*
X202974401Y-57525599D01*
X202974401Y-57525599D02*
X202974401Y-56022687D01*
X202974401Y-56022687D02*
X201451714Y-54500000D01*
X189200000Y-71300000D02*
X201500000Y-71300000D01*
X201500000Y-71300000D02*
X202200000Y-70600000D01*
X178300000Y-82200000D02*
X189200000Y-71300000D01*
X178300000Y-89500000D02*
X178300000Y-82200000D01*
X180200000Y-91400000D02*
X178300000Y-89500000D01*
D25*
X51870653Y-107241938D02*
X50241938Y-107241938D01*
X50425000Y-90055049D02*
X52000000Y-88480049D01*
X52000000Y-88480049D02*
X52000000Y-86077630D01*
X50241938Y-107241938D02*
X49000000Y-106000000D01*
X49000000Y-104850000D02*
X50425000Y-103425000D01*
X49000000Y-106000000D02*
X49000000Y-104850000D01*
X50425000Y-103425000D02*
X50425000Y-90055049D01*
X52000000Y-86077630D02*
X52000000Y-85000000D01*
D24*
X178201000Y-95400920D02*
X177751988Y-95400920D01*
X177751988Y-95400920D02*
X176852908Y-96300000D01*
X176852908Y-96300000D02*
X168330000Y-96300000D01*
X168330000Y-96300000D02*
X167600000Y-97030000D01*
X167600000Y-97030000D02*
X167600000Y-106050000D01*
X165150000Y-108500000D02*
X164800000Y-108500000D01*
X167600000Y-106050000D02*
X165150000Y-108500000D01*
X189358186Y-70600000D02*
X200550988Y-70600000D01*
X177883501Y-82074685D02*
X189358186Y-70600000D01*
X177883501Y-95083421D02*
X177883501Y-82074685D01*
X178201000Y-95400920D02*
X177883501Y-95083421D01*
X200550988Y-70600000D02*
X201000000Y-70600000D01*
X198300000Y-61100000D02*
X198300000Y-60650988D01*
X198300000Y-60650988D02*
X200434401Y-58516587D01*
X200434401Y-58516587D02*
X200434401Y-56022687D01*
X200434401Y-56022687D02*
X199917313Y-55505599D01*
X199917313Y-55505599D02*
X197894401Y-55505599D01*
X197894401Y-55505599D02*
X197661999Y-55738001D01*
X197661999Y-55738001D02*
X196900000Y-56500000D01*
D25*
X50413768Y-105161292D02*
X50900000Y-104675060D01*
X50900000Y-104675060D02*
X50900000Y-90300000D01*
X50900000Y-90300000D02*
X53456885Y-87743115D01*
X53456885Y-87743115D02*
X53456885Y-83996984D01*
X53456885Y-83996984D02*
X53456885Y-82919354D01*
D24*
X197300000Y-110300000D02*
X177000000Y-110300000D01*
X255600000Y-110300000D02*
X248200000Y-102900000D01*
X248200000Y-102900000D02*
X204700000Y-102900000D01*
X204700000Y-102900000D02*
X197300000Y-110300000D01*
D28*
X256926979Y-123151849D02*
X256926979Y-111626979D01*
X256926979Y-111626979D02*
X255600000Y-110300000D01*
D24*
X256926979Y-123151849D02*
X256926979Y-123304249D01*
X256926979Y-123456649D02*
X256926979Y-123304249D01*
D28*
X259466979Y-123151849D02*
X259466979Y-113566979D01*
X259466979Y-113566979D02*
X248200000Y-102300000D01*
X248200000Y-102300000D02*
X208049012Y-102300000D01*
X208049012Y-102300000D02*
X207600000Y-102300000D01*
D24*
X259466979Y-123304249D02*
X259466979Y-123456649D01*
X259466979Y-123304249D02*
X259466979Y-123151849D01*
D27*
X210083495Y-88883421D02*
X210400994Y-89200920D01*
X178401000Y-99200920D02*
X191401920Y-86200000D01*
X207400074Y-86200000D02*
X210083495Y-88883421D01*
X191401920Y-86200000D02*
X207400074Y-86200000D01*
D24*
X179801000Y-82600920D02*
X186601000Y-89400920D01*
X186601000Y-89400920D02*
X187001000Y-89400920D01*
D26*
X214376000Y-74168000D02*
X214376000Y-82804000D01*
X138079019Y-68331019D02*
X208539019Y-68331019D01*
X134010000Y-64262000D02*
X138079019Y-68331019D01*
X208539019Y-68331019D02*
X214376000Y-74168000D01*
D25*
X218750000Y-89000000D02*
X218750000Y-88000000D01*
X218750000Y-90000000D02*
X218750000Y-89000000D01*
X218750000Y-92000000D02*
X218750000Y-91000000D01*
X216000000Y-84000000D02*
X217000000Y-84000000D01*
X216000000Y-84000000D02*
X215000000Y-83000000D01*
X214000000Y-84000000D02*
X215000000Y-84000000D01*
X215000000Y-85000000D02*
X214000000Y-85000000D01*
D24*
X169400000Y-86500000D02*
X166300000Y-83400000D01*
X168600000Y-86900000D02*
X165100000Y-83400000D01*
D28*
X188200000Y-104400000D02*
X188200000Y-95500000D01*
X188200000Y-95500000D02*
X194400000Y-89300000D01*
X185500000Y-104400000D02*
X185500000Y-94400000D01*
X185500000Y-94400000D02*
X192591773Y-87308227D01*
X192591773Y-87308227D02*
X197263347Y-87308227D01*
D24*
X214650000Y-86625000D02*
X214949999Y-86325001D01*
X214949999Y-86325001D02*
X215749265Y-86325001D01*
X215749265Y-86325001D02*
X216425000Y-87000736D01*
X216425000Y-87000736D02*
X216425000Y-90910615D01*
X215854277Y-91481338D02*
X215554278Y-91781337D01*
X216425000Y-90910615D02*
X215854277Y-91481338D01*
D29*
G36*
X218533130Y-81295752D02*
X218815545Y-81484455D01*
X219004248Y-81766870D01*
X219073000Y-82112509D01*
X219073000Y-92087491D01*
X219042308Y-92241790D01*
X218961991Y-92361991D01*
X218841790Y-92442308D01*
X218687491Y-92473000D01*
X218362509Y-92473000D01*
X218342149Y-92468950D01*
X218335496Y-92464504D01*
X218331050Y-92457851D01*
X218327000Y-92437491D01*
X218327000Y-87100000D01*
X218324560Y-87075224D01*
X218248440Y-86692541D01*
X218229477Y-86646760D01*
X218012704Y-86322336D01*
X217977664Y-86287296D01*
X217653240Y-86070523D01*
X217607459Y-86051560D01*
X217224776Y-85975440D01*
X217200000Y-85973000D01*
X215786462Y-85973000D01*
X215749265Y-85965601D01*
X214949999Y-85965601D01*
X214912802Y-85973000D01*
X214312509Y-85973000D01*
X213966870Y-85904248D01*
X213684455Y-85715545D01*
X213495752Y-85433130D01*
X213427000Y-85087491D01*
X213427000Y-82112509D01*
X213495752Y-81766870D01*
X213684455Y-81484455D01*
X213966870Y-81295752D01*
X214312509Y-81227000D01*
X218187491Y-81227000D01*
X218533130Y-81295752D01*
X218533130Y-81295752D01*
G37*
X218533130Y-81295752D02*
X218815545Y-81484455D01*
X219004248Y-81766870D01*
X219073000Y-82112509D01*
X219073000Y-92087491D01*
X219042308Y-92241790D01*
X218961991Y-92361991D01*
X218841790Y-92442308D01*
X218687491Y-92473000D01*
X218362509Y-92473000D01*
X218342149Y-92468950D01*
X218335496Y-92464504D01*
X218331050Y-92457851D01*
X218327000Y-92437491D01*
X218327000Y-87100000D01*
X218324560Y-87075224D01*
X218248440Y-86692541D01*
X218229477Y-86646760D01*
X218012704Y-86322336D01*
X217977664Y-86287296D01*
X217653240Y-86070523D01*
X217607459Y-86051560D01*
X217224776Y-85975440D01*
X217200000Y-85973000D01*
X215786462Y-85973000D01*
X215749265Y-85965601D01*
X214949999Y-85965601D01*
X214912802Y-85973000D01*
X214312509Y-85973000D01*
X213966870Y-85904248D01*
X213684455Y-85715545D01*
X213495752Y-85433130D01*
X213427000Y-85087491D01*
X213427000Y-82112509D01*
X213495752Y-81766870D01*
X213684455Y-81484455D01*
X213966870Y-81295752D01*
X214312509Y-81227000D01*
X218187491Y-81227000D01*
X218533130Y-81295752D01*
G36*
X220844441Y-66854375D02*
X220844794Y-66854612D01*
X220845032Y-66854968D01*
X220926180Y-66909189D01*
X221007119Y-66963467D01*
X221007539Y-66963551D01*
X221007893Y-66963788D01*
X221103243Y-66982754D01*
X221199162Y-67002000D01*
X221199583Y-67001917D01*
X221200000Y-67002000D01*
X240214205Y-67002000D01*
X240480591Y-67646703D01*
X241050298Y-68217405D01*
X241795036Y-68526647D01*
X242601426Y-68527351D01*
X243346703Y-68219409D01*
X243917405Y-67649702D01*
X244186354Y-67002000D01*
X268292064Y-67002000D01*
X272998000Y-71707935D01*
X272998000Y-121292065D01*
X268292064Y-125998000D01*
X244185795Y-125998000D01*
X243919409Y-125353297D01*
X243349702Y-124782595D01*
X242604964Y-124473353D01*
X241798574Y-124472649D01*
X241053297Y-124780591D01*
X240482595Y-125350298D01*
X240213646Y-125998000D01*
X221200000Y-125998000D01*
X221199583Y-125998083D01*
X221199162Y-125998000D01*
X221103243Y-126017246D01*
X221007893Y-126036212D01*
X221007539Y-126036449D01*
X221007119Y-126036533D01*
X220926180Y-126090811D01*
X220845032Y-126145032D01*
X220844794Y-126145388D01*
X220844441Y-126145625D01*
X206041573Y-140998000D01*
X106457935Y-140998000D01*
X103440149Y-137980213D01*
X175679392Y-137980213D01*
X175748857Y-138222397D01*
X176272302Y-138409144D01*
X176827368Y-138381362D01*
X177211143Y-138222397D01*
X177280608Y-137980213D01*
X176480000Y-137179605D01*
X175679392Y-137980213D01*
X103440149Y-137980213D01*
X102252238Y-136792302D01*
X175070856Y-136792302D01*
X175098638Y-137347368D01*
X175257603Y-137731143D01*
X175499787Y-137800608D01*
X176300395Y-137000000D01*
X176659605Y-137000000D01*
X177460213Y-137800608D01*
X177702397Y-137731143D01*
X177856790Y-137298385D01*
X178011427Y-137672635D01*
X178345606Y-138007397D01*
X178782456Y-138188793D01*
X179255469Y-138189206D01*
X179692635Y-138008573D01*
X180027397Y-137674394D01*
X180208793Y-137237544D01*
X180208794Y-137235469D01*
X180370794Y-137235469D01*
X180551427Y-137672635D01*
X180885606Y-138007397D01*
X181322456Y-138188793D01*
X181795469Y-138189206D01*
X182232635Y-138008573D01*
X182567397Y-137674394D01*
X182748793Y-137237544D01*
X182748794Y-137235469D01*
X182910794Y-137235469D01*
X183091427Y-137672635D01*
X183425606Y-138007397D01*
X183862456Y-138188793D01*
X184335469Y-138189206D01*
X184772635Y-138008573D01*
X185107397Y-137674394D01*
X185288793Y-137237544D01*
X185288794Y-137235469D01*
X185450794Y-137235469D01*
X185631427Y-137672635D01*
X185965606Y-138007397D01*
X186402456Y-138188793D01*
X186875469Y-138189206D01*
X187312635Y-138008573D01*
X187647397Y-137674394D01*
X187828793Y-137237544D01*
X187828794Y-137235469D01*
X187990794Y-137235469D01*
X188171427Y-137672635D01*
X188505606Y-138007397D01*
X188942456Y-138188793D01*
X189415469Y-138189206D01*
X189852635Y-138008573D01*
X190187397Y-137674394D01*
X190368793Y-137237544D01*
X190368794Y-137235469D01*
X190530794Y-137235469D01*
X190711427Y-137672635D01*
X191045606Y-138007397D01*
X191482456Y-138188793D01*
X191955469Y-138189206D01*
X192392635Y-138008573D01*
X192421044Y-137980213D01*
X193459392Y-137980213D01*
X193528857Y-138222397D01*
X194052302Y-138409144D01*
X194607368Y-138381362D01*
X194991143Y-138222397D01*
X195060608Y-137980213D01*
X194260000Y-137179605D01*
X193459392Y-137980213D01*
X192421044Y-137980213D01*
X192727397Y-137674394D01*
X192876976Y-137314167D01*
X192878638Y-137347368D01*
X193037603Y-137731143D01*
X193279787Y-137800608D01*
X194080395Y-137000000D01*
X194439605Y-137000000D01*
X195240213Y-137800608D01*
X195482397Y-137731143D01*
X195669144Y-137207698D01*
X195641362Y-136652632D01*
X195482397Y-136268857D01*
X195240213Y-136199392D01*
X194439605Y-137000000D01*
X194080395Y-137000000D01*
X193279787Y-136199392D01*
X193037603Y-136268857D01*
X192883210Y-136701615D01*
X192728573Y-136327365D01*
X192421531Y-136019787D01*
X193459392Y-136019787D01*
X194260000Y-136820395D01*
X195060608Y-136019787D01*
X194991143Y-135777603D01*
X194467698Y-135590856D01*
X193912632Y-135618638D01*
X193528857Y-135777603D01*
X193459392Y-136019787D01*
X192421531Y-136019787D01*
X192394394Y-135992603D01*
X191957544Y-135811207D01*
X191484531Y-135810794D01*
X191047365Y-135991427D01*
X190712603Y-136325606D01*
X190531207Y-136762456D01*
X190530794Y-137235469D01*
X190368794Y-137235469D01*
X190369206Y-136764531D01*
X190188573Y-136327365D01*
X189854394Y-135992603D01*
X189417544Y-135811207D01*
X188944531Y-135810794D01*
X188507365Y-135991427D01*
X188172603Y-136325606D01*
X187991207Y-136762456D01*
X187990794Y-137235469D01*
X187828794Y-137235469D01*
X187829206Y-136764531D01*
X187648573Y-136327365D01*
X187314394Y-135992603D01*
X186877544Y-135811207D01*
X186404531Y-135810794D01*
X185967365Y-135991427D01*
X185632603Y-136325606D01*
X185451207Y-136762456D01*
X185450794Y-137235469D01*
X185288794Y-137235469D01*
X185289206Y-136764531D01*
X185108573Y-136327365D01*
X184774394Y-135992603D01*
X184337544Y-135811207D01*
X183864531Y-135810794D01*
X183427365Y-135991427D01*
X183092603Y-136325606D01*
X182911207Y-136762456D01*
X182910794Y-137235469D01*
X182748794Y-137235469D01*
X182749206Y-136764531D01*
X182568573Y-136327365D01*
X182234394Y-135992603D01*
X181797544Y-135811207D01*
X181324531Y-135810794D01*
X180887365Y-135991427D01*
X180552603Y-136325606D01*
X180371207Y-136762456D01*
X180370794Y-137235469D01*
X180208794Y-137235469D01*
X180209206Y-136764531D01*
X180028573Y-136327365D01*
X179694394Y-135992603D01*
X179257544Y-135811207D01*
X178784531Y-135810794D01*
X178347365Y-135991427D01*
X178012603Y-136325606D01*
X177863024Y-136685833D01*
X177861362Y-136652632D01*
X177702397Y-136268857D01*
X177460213Y-136199392D01*
X176659605Y-137000000D01*
X176300395Y-137000000D01*
X175499787Y-136199392D01*
X175257603Y-136268857D01*
X175070856Y-136792302D01*
X102252238Y-136792302D01*
X101752000Y-136292064D01*
X101752000Y-136019787D01*
X175679392Y-136019787D01*
X176480000Y-136820395D01*
X177280608Y-136019787D01*
X177211143Y-135777603D01*
X176687698Y-135590856D01*
X176132632Y-135618638D01*
X175748857Y-135777603D01*
X175679392Y-136019787D01*
X101752000Y-136019787D01*
X101752000Y-130218290D01*
X103622372Y-130218290D01*
X104173386Y-131551846D01*
X105192787Y-132573028D01*
X106525380Y-133126369D01*
X107968290Y-133127628D01*
X109301846Y-132576614D01*
X110323028Y-131557213D01*
X110876369Y-130224620D01*
X110876374Y-130218290D01*
X150622372Y-130218290D01*
X151173386Y-131551846D01*
X152192787Y-132573028D01*
X153525380Y-133126369D01*
X154968290Y-133127628D01*
X156301846Y-132576614D01*
X157323028Y-131557213D01*
X157876369Y-130224620D01*
X157876374Y-130218290D01*
X206622372Y-130218290D01*
X207173386Y-131551846D01*
X208192787Y-132573028D01*
X209525380Y-133126369D01*
X210968290Y-133127628D01*
X212301846Y-132576614D01*
X213323028Y-131557213D01*
X213876369Y-130224620D01*
X213877628Y-128781710D01*
X213326614Y-127448154D01*
X212307213Y-126426972D01*
X210974620Y-125873631D01*
X209531710Y-125872372D01*
X208198154Y-126423386D01*
X207176972Y-127442787D01*
X206623631Y-128775380D01*
X206622372Y-130218290D01*
X157876374Y-130218290D01*
X157877628Y-128781710D01*
X157326614Y-127448154D01*
X156307213Y-126426972D01*
X154974620Y-125873631D01*
X153531710Y-125872372D01*
X152198154Y-126423386D01*
X151176972Y-127442787D01*
X150623631Y-128775380D01*
X150622372Y-130218290D01*
X110876374Y-130218290D01*
X110877628Y-128781710D01*
X110326614Y-127448154D01*
X109307213Y-126426972D01*
X107974620Y-125873631D01*
X106531710Y-125872372D01*
X105198154Y-126423386D01*
X104176972Y-127442787D01*
X103623631Y-128775380D01*
X103622372Y-130218290D01*
X101752000Y-130218290D01*
X101752000Y-124535469D01*
X175290794Y-124535469D01*
X175471427Y-124972635D01*
X175805606Y-125307397D01*
X176242456Y-125488793D01*
X176715469Y-125489206D01*
X177152635Y-125308573D01*
X177487397Y-124974394D01*
X177668793Y-124537544D01*
X177668794Y-124535469D01*
X177830794Y-124535469D01*
X178011427Y-124972635D01*
X178345606Y-125307397D01*
X178782456Y-125488793D01*
X179255469Y-125489206D01*
X179692635Y-125308573D01*
X180027397Y-124974394D01*
X180208793Y-124537544D01*
X180208794Y-124535469D01*
X180370794Y-124535469D01*
X180551427Y-124972635D01*
X180885606Y-125307397D01*
X181322456Y-125488793D01*
X181795469Y-125489206D01*
X182232635Y-125308573D01*
X182567397Y-124974394D01*
X182748793Y-124537544D01*
X182749206Y-124064531D01*
X182688260Y-123917031D01*
X182694644Y-123910647D01*
X182694646Y-123910644D01*
X183278290Y-123327000D01*
X183391730Y-123327000D01*
X183092603Y-123625606D01*
X182911207Y-124062456D01*
X182910794Y-124535469D01*
X183091427Y-124972635D01*
X183425606Y-125307397D01*
X183862456Y-125488793D01*
X184335469Y-125489206D01*
X184772635Y-125308573D01*
X185107397Y-124974394D01*
X185288793Y-124537544D01*
X185289206Y-124064531D01*
X185108573Y-123627365D01*
X184808731Y-123327000D01*
X184921710Y-123327000D01*
X185511636Y-123916927D01*
X185451207Y-124062456D01*
X185450794Y-124535469D01*
X185631427Y-124972635D01*
X185965606Y-125307397D01*
X186402456Y-125488793D01*
X186875469Y-125489206D01*
X187312635Y-125308573D01*
X187647397Y-124974394D01*
X187828793Y-124537544D01*
X187828794Y-124535469D01*
X187990794Y-124535469D01*
X188171427Y-124972635D01*
X188505606Y-125307397D01*
X188942456Y-125488793D01*
X189415469Y-125489206D01*
X189852635Y-125308573D01*
X190187397Y-124974394D01*
X190368793Y-124537544D01*
X190368794Y-124535469D01*
X190530794Y-124535469D01*
X190711427Y-124972635D01*
X191045606Y-125307397D01*
X191482456Y-125488793D01*
X191955469Y-125489206D01*
X192392635Y-125308573D01*
X192421044Y-125280213D01*
X193459392Y-125280213D01*
X193528857Y-125522397D01*
X194052302Y-125709144D01*
X194607368Y-125681362D01*
X194991143Y-125522397D01*
X195060608Y-125280213D01*
X194260000Y-124479605D01*
X193459392Y-125280213D01*
X192421044Y-125280213D01*
X192727397Y-124974394D01*
X192876976Y-124614167D01*
X192878638Y-124647368D01*
X193037603Y-125031143D01*
X193279787Y-125100608D01*
X194080395Y-124300000D01*
X194439605Y-124300000D01*
X195240213Y-125100608D01*
X195482397Y-125031143D01*
X195669144Y-124507698D01*
X195641362Y-123952632D01*
X195482397Y-123568857D01*
X195240213Y-123499392D01*
X194439605Y-124300000D01*
X194080395Y-124300000D01*
X193279787Y-123499392D01*
X193037603Y-123568857D01*
X192883210Y-124001615D01*
X192728573Y-123627365D01*
X192421531Y-123319787D01*
X193459392Y-123319787D01*
X194260000Y-124120395D01*
X195060608Y-123319787D01*
X194991143Y-123077603D01*
X194467698Y-122890856D01*
X193912632Y-122918638D01*
X193528857Y-123077603D01*
X193459392Y-123319787D01*
X192421531Y-123319787D01*
X192394394Y-123292603D01*
X191957544Y-123111207D01*
X191484531Y-123110794D01*
X191047365Y-123291427D01*
X190712603Y-123625606D01*
X190531207Y-124062456D01*
X190530794Y-124535469D01*
X190368794Y-124535469D01*
X190369206Y-124064531D01*
X190188573Y-123627365D01*
X189854394Y-123292603D01*
X189417544Y-123111207D01*
X188944531Y-123110794D01*
X188507365Y-123291427D01*
X188172603Y-123625606D01*
X187991207Y-124062456D01*
X187990794Y-124535469D01*
X187828794Y-124535469D01*
X187829206Y-124064531D01*
X187648573Y-123627365D01*
X187314394Y-123292603D01*
X186877544Y-123111207D01*
X186404531Y-123110794D01*
X186257030Y-123171740D01*
X185512645Y-122427355D01*
X185341675Y-122313115D01*
X185216664Y-122288249D01*
X250548014Y-122288249D01*
X250548014Y-124320249D01*
X250577788Y-124478486D01*
X250671306Y-124623816D01*
X250813998Y-124721313D01*
X250983379Y-124755614D01*
X252710579Y-124755614D01*
X252868816Y-124725840D01*
X253014146Y-124632322D01*
X253111643Y-124489630D01*
X253145944Y-124320249D01*
X253145944Y-124275560D01*
X253484943Y-124654981D01*
X254012188Y-124908958D01*
X254027953Y-124911607D01*
X254259979Y-124790466D01*
X254259979Y-123431249D01*
X254239979Y-123431249D01*
X254239979Y-123177249D01*
X254259979Y-123177249D01*
X254259979Y-121818032D01*
X254027953Y-121696891D01*
X254012188Y-121699540D01*
X253484943Y-121953517D01*
X253145944Y-122332938D01*
X253145944Y-122288249D01*
X253116170Y-122130012D01*
X253022652Y-121984682D01*
X252879960Y-121887185D01*
X252710579Y-121852884D01*
X250983379Y-121852884D01*
X250825142Y-121882658D01*
X250679812Y-121976176D01*
X250582315Y-122118868D01*
X250548014Y-122288249D01*
X185216664Y-122288249D01*
X185140000Y-122273000D01*
X183060000Y-122273000D01*
X182858325Y-122313115D01*
X182687355Y-122427355D01*
X181949356Y-123165354D01*
X181949353Y-123165356D01*
X181943073Y-123171636D01*
X181797544Y-123111207D01*
X181324531Y-123110794D01*
X180887365Y-123291427D01*
X180552603Y-123625606D01*
X180371207Y-124062456D01*
X180370794Y-124535469D01*
X180208794Y-124535469D01*
X180209206Y-124064531D01*
X180028573Y-123627365D01*
X179694394Y-123292603D01*
X179257544Y-123111207D01*
X178784531Y-123110794D01*
X178347365Y-123291427D01*
X178012603Y-123625606D01*
X177831207Y-124062456D01*
X177830794Y-124535469D01*
X177668794Y-124535469D01*
X177669206Y-124064531D01*
X177488573Y-123627365D01*
X177154394Y-123292603D01*
X176717544Y-123111207D01*
X176244531Y-123110794D01*
X175807365Y-123291427D01*
X175472603Y-123625606D01*
X175291207Y-124062456D01*
X175290794Y-124535469D01*
X101752000Y-124535469D01*
X101752000Y-121500005D01*
X101752001Y-121500000D01*
X101713788Y-121307893D01*
X101611350Y-121154584D01*
X101604968Y-121145032D01*
X101604965Y-121145030D01*
X100361558Y-119901622D01*
X240292666Y-119901622D01*
X240585416Y-120610132D01*
X241127017Y-121152678D01*
X241835014Y-121446665D01*
X242601622Y-121447334D01*
X243310132Y-121154584D01*
X243852678Y-120612983D01*
X244146665Y-119904986D01*
X244147334Y-119138378D01*
X243854584Y-118429868D01*
X243312983Y-117887322D01*
X242604986Y-117593335D01*
X241838378Y-117592666D01*
X241129868Y-117885416D01*
X240587322Y-118427017D01*
X240293335Y-119135014D01*
X240292666Y-119901622D01*
X100361558Y-119901622D01*
X96604968Y-116145032D01*
X96442107Y-116036212D01*
X96250000Y-115997999D01*
X96249995Y-115998000D01*
X58741099Y-115998000D01*
X58779045Y-115972645D01*
X62790852Y-111960838D01*
X64922597Y-111960838D01*
X65276115Y-112816418D01*
X65930139Y-113471585D01*
X66785100Y-113826596D01*
X67710838Y-113827403D01*
X68566418Y-113473885D01*
X69221585Y-112819861D01*
X69576596Y-111964900D01*
X69576599Y-111960838D01*
X72922597Y-111960838D01*
X73276115Y-112816418D01*
X73930139Y-113471585D01*
X74785100Y-113826596D01*
X75710838Y-113827403D01*
X76566418Y-113473885D01*
X77221585Y-112819861D01*
X77576596Y-111964900D01*
X77577403Y-111039162D01*
X77223885Y-110183582D01*
X76569861Y-109528415D01*
X75714900Y-109173404D01*
X74789162Y-109172597D01*
X73933582Y-109526115D01*
X73278415Y-110180139D01*
X72923404Y-111035100D01*
X72922597Y-111960838D01*
X69576599Y-111960838D01*
X69577403Y-111039162D01*
X69223885Y-110183582D01*
X68569861Y-109528415D01*
X67714900Y-109173404D01*
X66789162Y-109172597D01*
X65933582Y-109526115D01*
X65278415Y-110180139D01*
X64923404Y-111035100D01*
X64922597Y-111960838D01*
X62790852Y-111960838D01*
X65649690Y-109102000D01*
X142826920Y-109102000D01*
X143028595Y-109061885D01*
X143199565Y-108947645D01*
X143647210Y-108500000D01*
X155572105Y-108500000D01*
X155665505Y-108969553D01*
X155931485Y-109367620D01*
X156329552Y-109633600D01*
X156799105Y-109727000D01*
X157560895Y-109727000D01*
X158030448Y-109633600D01*
X158428515Y-109367620D01*
X158694495Y-108969553D01*
X158787895Y-108500000D01*
X158694495Y-108030447D01*
X158428515Y-107632380D01*
X158030448Y-107366400D01*
X157560895Y-107273000D01*
X156799105Y-107273000D01*
X156329552Y-107366400D01*
X155931485Y-107632380D01*
X155665505Y-108030447D01*
X155572105Y-108500000D01*
X143647210Y-108500000D01*
X148220210Y-103927000D01*
X155690526Y-103927000D01*
X155931485Y-104287620D01*
X156329552Y-104553600D01*
X156799105Y-104647000D01*
X157560895Y-104647000D01*
X158030448Y-104553600D01*
X158428515Y-104287620D01*
X158694495Y-103889553D01*
X158718466Y-103769039D01*
X163058096Y-103769039D01*
X163075633Y-103851819D01*
X163345500Y-104344896D01*
X163783517Y-104697166D01*
X164113665Y-104793756D01*
X163949552Y-104826400D01*
X163551485Y-105092380D01*
X163285505Y-105490447D01*
X163192105Y-105960000D01*
X163285505Y-106429553D01*
X163551485Y-106827620D01*
X163949552Y-107093600D01*
X164419105Y-107187000D01*
X165180895Y-107187000D01*
X165650448Y-107093600D01*
X166048515Y-106827620D01*
X166314495Y-106429553D01*
X166407895Y-105960000D01*
X166314495Y-105490447D01*
X166048515Y-105092380D01*
X165650448Y-104826400D01*
X165486335Y-104793756D01*
X165816483Y-104697166D01*
X166254500Y-104344896D01*
X166524367Y-103851819D01*
X166541904Y-103769039D01*
X166419915Y-103547000D01*
X164927000Y-103547000D01*
X164927000Y-103567000D01*
X164673000Y-103567000D01*
X164673000Y-103547000D01*
X163180085Y-103547000D01*
X163058096Y-103769039D01*
X158718466Y-103769039D01*
X158787895Y-103420000D01*
X158694495Y-102950447D01*
X158428515Y-102552380D01*
X158030448Y-102286400D01*
X157560895Y-102193000D01*
X156799105Y-102193000D01*
X156329552Y-102286400D01*
X155931485Y-102552380D01*
X155690526Y-102913000D01*
X148735827Y-102913000D01*
X150261827Y-101387000D01*
X155690526Y-101387000D01*
X155931485Y-101747620D01*
X156329552Y-102013600D01*
X156799105Y-102107000D01*
X157560895Y-102107000D01*
X158030448Y-102013600D01*
X158428515Y-101747620D01*
X158694495Y-101349553D01*
X158718466Y-101229039D01*
X163058096Y-101229039D01*
X163075633Y-101311819D01*
X163345500Y-101804896D01*
X163774607Y-102150000D01*
X163345500Y-102495104D01*
X163075633Y-102988181D01*
X163058096Y-103070961D01*
X163180085Y-103293000D01*
X164673000Y-103293000D01*
X164673000Y-101007000D01*
X164927000Y-101007000D01*
X164927000Y-103293000D01*
X166419915Y-103293000D01*
X166541904Y-103070961D01*
X166524367Y-102988181D01*
X166254500Y-102495104D01*
X165825393Y-102150000D01*
X166254500Y-101804896D01*
X166524367Y-101311819D01*
X166541904Y-101229039D01*
X166419915Y-101007000D01*
X164927000Y-101007000D01*
X164673000Y-101007000D01*
X163180085Y-101007000D01*
X163058096Y-101229039D01*
X158718466Y-101229039D01*
X158787895Y-100880000D01*
X158694495Y-100410447D01*
X158428515Y-100012380D01*
X158030448Y-99746400D01*
X157560895Y-99653000D01*
X156799105Y-99653000D01*
X156329552Y-99746400D01*
X155931485Y-100012380D01*
X155690526Y-100373000D01*
X150777442Y-100373000D01*
X152303442Y-98847000D01*
X155690526Y-98847000D01*
X155931485Y-99207620D01*
X156329552Y-99473600D01*
X156799105Y-99567000D01*
X157560895Y-99567000D01*
X158030448Y-99473600D01*
X158428515Y-99207620D01*
X158694495Y-98809553D01*
X158718466Y-98689039D01*
X163058096Y-98689039D01*
X163075633Y-98771819D01*
X163345500Y-99264896D01*
X163774607Y-99610000D01*
X163345500Y-99955104D01*
X163075633Y-100448181D01*
X163058096Y-100530961D01*
X163180085Y-100753000D01*
X164673000Y-100753000D01*
X164673000Y-98467000D01*
X164927000Y-98467000D01*
X164927000Y-100753000D01*
X166419915Y-100753000D01*
X166541904Y-100530961D01*
X166524367Y-100448181D01*
X166254500Y-99955104D01*
X165825393Y-99610000D01*
X166254500Y-99264896D01*
X166524367Y-98771819D01*
X166541904Y-98689039D01*
X166419915Y-98467000D01*
X164927000Y-98467000D01*
X164673000Y-98467000D01*
X163180085Y-98467000D01*
X163058096Y-98689039D01*
X158718466Y-98689039D01*
X158787895Y-98340000D01*
X158718467Y-97990961D01*
X163058096Y-97990961D01*
X163180085Y-98213000D01*
X164673000Y-98213000D01*
X164673000Y-98193000D01*
X164927000Y-98193000D01*
X164927000Y-98213000D01*
X166419915Y-98213000D01*
X166541904Y-97990961D01*
X166524367Y-97908181D01*
X166254500Y-97415104D01*
X165816483Y-97062834D01*
X165486335Y-96966244D01*
X165650448Y-96933600D01*
X166048515Y-96667620D01*
X166314495Y-96269553D01*
X166407895Y-95800000D01*
X166314495Y-95330447D01*
X166048515Y-94932380D01*
X165650448Y-94666400D01*
X165180895Y-94573000D01*
X164419105Y-94573000D01*
X163949552Y-94666400D01*
X163551485Y-94932380D01*
X163285505Y-95330447D01*
X163192105Y-95800000D01*
X163285505Y-96269553D01*
X163551485Y-96667620D01*
X163949552Y-96933600D01*
X164113665Y-96966244D01*
X163783517Y-97062834D01*
X163345500Y-97415104D01*
X163075633Y-97908181D01*
X163058096Y-97990961D01*
X158718467Y-97990961D01*
X158694495Y-97870447D01*
X158428515Y-97472380D01*
X158030448Y-97206400D01*
X157560895Y-97113000D01*
X156799105Y-97113000D01*
X156329552Y-97206400D01*
X155931485Y-97472380D01*
X155690526Y-97833000D01*
X152065152Y-97833000D01*
X151871131Y-97871593D01*
X151811326Y-97911554D01*
X151803477Y-97913115D01*
X151632507Y-98027355D01*
X142411884Y-107247978D01*
X65100022Y-107247978D01*
X64931807Y-107281438D01*
X64898347Y-107288093D01*
X64727377Y-107402333D01*
X57856732Y-114272978D01*
X57133795Y-114272978D01*
X57248702Y-114158271D01*
X57430098Y-113721421D01*
X57430511Y-113248408D01*
X57249878Y-112811242D01*
X56915699Y-112476480D01*
X56478849Y-112295084D01*
X56005836Y-112294671D01*
X55568670Y-112475304D01*
X55233908Y-112809483D01*
X55052512Y-113246333D01*
X55052099Y-113719346D01*
X55232732Y-114156512D01*
X55348995Y-114272978D01*
X55149668Y-114272978D01*
X51234634Y-110357944D01*
X52347081Y-110357944D01*
X52547799Y-110644599D01*
X52692695Y-110851532D01*
X52905752Y-110987264D01*
X53154533Y-111031130D01*
X53401163Y-110976454D01*
X53829242Y-110676710D01*
X53777024Y-110728837D01*
X53595628Y-111165687D01*
X53595215Y-111638700D01*
X53775848Y-112075866D01*
X54110027Y-112410628D01*
X54546877Y-112592024D01*
X55019890Y-112592437D01*
X55457056Y-112411804D01*
X55791818Y-112077625D01*
X55973214Y-111640775D01*
X55973627Y-111167762D01*
X55792994Y-110730596D01*
X55458815Y-110395834D01*
X55021965Y-110214438D01*
X54548952Y-110214025D01*
X54405191Y-110273426D01*
X54856483Y-109957427D01*
X54992215Y-109744371D01*
X55036083Y-109495590D01*
X54981406Y-109248960D01*
X54836510Y-109042026D01*
X54635792Y-108755371D01*
X54414696Y-108716386D01*
X53504414Y-109353773D01*
X53515886Y-109370156D01*
X53307820Y-109515845D01*
X53296349Y-109499462D01*
X52386066Y-110136848D01*
X52347081Y-110357944D01*
X51234634Y-110357944D01*
X48721885Y-107845195D01*
X48721885Y-106502531D01*
X49851615Y-107632261D01*
X50030697Y-107751920D01*
X50241938Y-107793938D01*
X50812235Y-107793938D01*
X50862080Y-107914573D01*
X51196259Y-108249335D01*
X51633109Y-108430731D01*
X52106122Y-108431144D01*
X52249887Y-108371742D01*
X51798591Y-108687743D01*
X51662859Y-108900799D01*
X51618991Y-109149580D01*
X51673668Y-109396210D01*
X51818564Y-109603144D01*
X52019282Y-109889799D01*
X52240378Y-109928784D01*
X53150660Y-109291397D01*
X53139188Y-109275014D01*
X53347254Y-109129325D01*
X53358725Y-109145708D01*
X54269008Y-108508322D01*
X54307993Y-108287226D01*
X54107275Y-108000571D01*
X53962379Y-107793638D01*
X53749322Y-107657906D01*
X53500541Y-107614040D01*
X53253911Y-107668716D01*
X52825828Y-107968463D01*
X52878050Y-107916332D01*
X53059446Y-107479482D01*
X53059859Y-107006469D01*
X52879226Y-106569303D01*
X52545047Y-106234541D01*
X52108197Y-106053145D01*
X51635184Y-106052732D01*
X51198018Y-106233365D01*
X50863256Y-106567544D01*
X50812434Y-106689938D01*
X50470584Y-106689938D01*
X50098427Y-106317781D01*
X50176224Y-106350085D01*
X50649237Y-106350498D01*
X51086403Y-106169865D01*
X51421165Y-105835686D01*
X51602561Y-105398836D01*
X51602974Y-104925823D01*
X51452000Y-104560437D01*
X51452000Y-94245750D01*
X51849000Y-94245750D01*
X51849000Y-94949910D01*
X51945673Y-95183299D01*
X52124302Y-95361927D01*
X52357691Y-95458600D01*
X52539388Y-95458600D01*
X52490959Y-95490959D01*
X52442464Y-95563537D01*
X52406738Y-95587408D01*
X52126971Y-96006109D01*
X52028730Y-96500000D01*
X52126971Y-96993891D01*
X52406738Y-97412592D01*
X52442464Y-97436463D01*
X52490959Y-97509041D01*
X52953911Y-97818376D01*
X52963238Y-97820231D01*
X52825439Y-97847641D01*
X52406738Y-98127408D01*
X52126971Y-98546109D01*
X52028730Y-99040000D01*
X52126971Y-99533891D01*
X52406738Y-99952592D01*
X52825439Y-100232359D01*
X53319330Y-100330600D01*
X53680670Y-100330600D01*
X54174561Y-100232359D01*
X54593262Y-99952592D01*
X54873029Y-99533891D01*
X54971270Y-99040000D01*
X54873029Y-98546109D01*
X54593262Y-98127408D01*
X54293330Y-97927000D01*
X56516000Y-97927000D01*
X57062089Y-97818376D01*
X57525041Y-97509041D01*
X59234082Y-95800000D01*
X155572105Y-95800000D01*
X155665505Y-96269553D01*
X155931485Y-96667620D01*
X156329552Y-96933600D01*
X156799105Y-97027000D01*
X157560895Y-97027000D01*
X158030448Y-96933600D01*
X158428515Y-96667620D01*
X158694495Y-96269553D01*
X158696363Y-96260160D01*
X158848503Y-96158503D01*
X160158503Y-94848503D01*
X160209190Y-94772645D01*
X160268407Y-94684021D01*
X160307000Y-94490000D01*
X160307000Y-93260000D01*
X163192105Y-93260000D01*
X163285505Y-93729553D01*
X163551485Y-94127620D01*
X163949552Y-94393600D01*
X164419105Y-94487000D01*
X165180895Y-94487000D01*
X165650448Y-94393600D01*
X166048515Y-94127620D01*
X166314495Y-93729553D01*
X166360800Y-93496761D01*
X174311182Y-93496761D01*
X174455810Y-93846787D01*
X174723378Y-94114823D01*
X175073152Y-94260062D01*
X175451881Y-94260392D01*
X175801907Y-94115764D01*
X176069943Y-93848196D01*
X176215182Y-93498422D01*
X176215512Y-93119693D01*
X176070884Y-92769667D01*
X175803316Y-92501631D01*
X175453542Y-92356392D01*
X175074813Y-92356062D01*
X174724787Y-92500690D01*
X174456751Y-92768258D01*
X174311512Y-93118032D01*
X174311182Y-93496761D01*
X166360800Y-93496761D01*
X166407895Y-93260000D01*
X166314495Y-92790447D01*
X166048515Y-92392380D01*
X165650448Y-92126400D01*
X165180895Y-92033000D01*
X164419105Y-92033000D01*
X163949552Y-92126400D01*
X163551485Y-92392380D01*
X163285505Y-92790447D01*
X163192105Y-93260000D01*
X160307000Y-93260000D01*
X160307000Y-88529039D01*
X163058096Y-88529039D01*
X163075633Y-88611819D01*
X163345500Y-89104896D01*
X163783517Y-89457166D01*
X164113665Y-89553756D01*
X163949552Y-89586400D01*
X163551485Y-89852380D01*
X163285505Y-90250447D01*
X163192105Y-90720000D01*
X163285505Y-91189553D01*
X163551485Y-91587620D01*
X163949552Y-91853600D01*
X164419105Y-91947000D01*
X165180895Y-91947000D01*
X165650448Y-91853600D01*
X166048515Y-91587620D01*
X166109225Y-91496761D01*
X174311182Y-91496761D01*
X174455810Y-91846787D01*
X174723378Y-92114823D01*
X175073152Y-92260062D01*
X175451881Y-92260392D01*
X175801907Y-92115764D01*
X176069943Y-91848196D01*
X176215182Y-91498422D01*
X176215512Y-91119693D01*
X176070884Y-90769667D01*
X175803316Y-90501631D01*
X175453542Y-90356392D01*
X175074813Y-90356062D01*
X174724787Y-90500690D01*
X174456751Y-90768258D01*
X174311512Y-91118032D01*
X174311182Y-91496761D01*
X166109225Y-91496761D01*
X166314495Y-91189553D01*
X166407895Y-90720000D01*
X166314495Y-90250447D01*
X166048515Y-89852380D01*
X165650448Y-89586400D01*
X165486335Y-89553756D01*
X165681145Y-89496761D01*
X174311182Y-89496761D01*
X174455810Y-89846787D01*
X174723378Y-90114823D01*
X175073152Y-90260062D01*
X175451881Y-90260392D01*
X175801907Y-90115764D01*
X176069943Y-89848196D01*
X176215182Y-89498422D01*
X176215512Y-89119693D01*
X176070884Y-88769667D01*
X175803316Y-88501631D01*
X175453542Y-88356392D01*
X175074813Y-88356062D01*
X174724787Y-88500690D01*
X174456751Y-88768258D01*
X174311512Y-89118032D01*
X174311182Y-89496761D01*
X165681145Y-89496761D01*
X165816483Y-89457166D01*
X166254500Y-89104896D01*
X166524367Y-88611819D01*
X166541904Y-88529039D01*
X166419915Y-88307000D01*
X164927000Y-88307000D01*
X164927000Y-88327000D01*
X164673000Y-88327000D01*
X164673000Y-88307000D01*
X163180085Y-88307000D01*
X163058096Y-88529039D01*
X160307000Y-88529039D01*
X160307000Y-87830961D01*
X163058096Y-87830961D01*
X163180085Y-88053000D01*
X164673000Y-88053000D01*
X164673000Y-86745000D01*
X164927000Y-86745000D01*
X164927000Y-88053000D01*
X166419915Y-88053000D01*
X166541904Y-87830961D01*
X166524367Y-87748181D01*
X166254500Y-87255104D01*
X165816483Y-86902834D01*
X165277000Y-86745000D01*
X164927000Y-86745000D01*
X164673000Y-86745000D01*
X164323000Y-86745000D01*
X163783517Y-86902834D01*
X163345500Y-87255104D01*
X163075633Y-87748181D01*
X163058096Y-87830961D01*
X160307000Y-87830961D01*
X160307000Y-85210006D01*
X162310006Y-83207000D01*
X164374007Y-83207000D01*
X164355629Y-83251260D01*
X164355371Y-83547441D01*
X164468475Y-83821175D01*
X164677724Y-84030789D01*
X164951260Y-84144371D01*
X165127519Y-84144525D01*
X167855523Y-86872529D01*
X167855371Y-87047441D01*
X167968475Y-87321175D01*
X168177724Y-87530789D01*
X168451260Y-87644371D01*
X168747441Y-87644629D01*
X169021175Y-87531525D01*
X169230789Y-87322276D01*
X169263134Y-87244381D01*
X169547441Y-87244629D01*
X169821175Y-87131525D01*
X170030789Y-86922276D01*
X170088527Y-86783227D01*
X174302982Y-86783227D01*
X174302982Y-87833227D01*
X174332756Y-87991464D01*
X174426274Y-88136794D01*
X174568966Y-88234291D01*
X174738347Y-88268592D01*
X175788347Y-88268592D01*
X175946584Y-88238818D01*
X176091914Y-88145300D01*
X176189411Y-88002608D01*
X176223712Y-87833227D01*
X176223712Y-86783227D01*
X176193938Y-86624990D01*
X176100420Y-86479660D01*
X175957728Y-86382163D01*
X175788347Y-86347862D01*
X174738347Y-86347862D01*
X174580110Y-86377636D01*
X174434780Y-86471154D01*
X174337283Y-86613846D01*
X174302982Y-86783227D01*
X170088527Y-86783227D01*
X170144371Y-86648740D01*
X170144629Y-86352559D01*
X170031525Y-86078825D01*
X169822276Y-85869211D01*
X169548740Y-85755629D01*
X169372481Y-85755475D01*
X167044477Y-83427471D01*
X167044629Y-83252559D01*
X167025805Y-83207000D01*
X173701920Y-83207000D01*
X173895941Y-83168407D01*
X174060423Y-83058503D01*
X185373529Y-71745397D01*
X185548441Y-71745549D01*
X185822175Y-71632445D01*
X186031789Y-71423196D01*
X186145371Y-71149660D01*
X186145629Y-70853479D01*
X186032525Y-70579745D01*
X185823276Y-70370131D01*
X185549740Y-70256549D01*
X185253559Y-70256291D01*
X184979825Y-70369395D01*
X184770211Y-70578644D01*
X184656629Y-70852180D01*
X184656475Y-71028439D01*
X173491914Y-82193000D01*
X162100000Y-82193000D01*
X161905979Y-82231593D01*
X161741497Y-82341497D01*
X159441497Y-84641497D01*
X159331593Y-84805979D01*
X159293000Y-85000000D01*
X159293000Y-94279994D01*
X158513470Y-95059524D01*
X158428515Y-94932380D01*
X158030448Y-94666400D01*
X157560895Y-94573000D01*
X156799105Y-94573000D01*
X156329552Y-94666400D01*
X155931485Y-94932380D01*
X155665505Y-95330447D01*
X155572105Y-95800000D01*
X59234082Y-95800000D01*
X61774082Y-93260000D01*
X155572105Y-93260000D01*
X155665505Y-93729553D01*
X155931485Y-94127620D01*
X156329552Y-94393600D01*
X156799105Y-94487000D01*
X157560895Y-94487000D01*
X158030448Y-94393600D01*
X158428515Y-94127620D01*
X158694495Y-93729553D01*
X158787895Y-93260000D01*
X158694495Y-92790447D01*
X158428515Y-92392380D01*
X158030448Y-92126400D01*
X157560895Y-92033000D01*
X156799105Y-92033000D01*
X156329552Y-92126400D01*
X155931485Y-92392380D01*
X155665505Y-92790447D01*
X155572105Y-93260000D01*
X61774082Y-93260000D01*
X64314082Y-90720000D01*
X155572105Y-90720000D01*
X155665505Y-91189553D01*
X155931485Y-91587620D01*
X156329552Y-91853600D01*
X156799105Y-91947000D01*
X157560895Y-91947000D01*
X158030448Y-91853600D01*
X158428515Y-91587620D01*
X158694495Y-91189553D01*
X158787895Y-90720000D01*
X158694495Y-90250447D01*
X158428515Y-89852380D01*
X158030448Y-89586400D01*
X157560895Y-89493000D01*
X156799105Y-89493000D01*
X156329552Y-89586400D01*
X155931485Y-89852380D01*
X155665505Y-90250447D01*
X155572105Y-90720000D01*
X64314082Y-90720000D01*
X66357083Y-88677000D01*
X147051920Y-88677000D01*
X147598009Y-88568376D01*
X148060961Y-88259041D01*
X148140002Y-88180000D01*
X155572105Y-88180000D01*
X155665505Y-88649553D01*
X155931485Y-89047620D01*
X156329552Y-89313600D01*
X156799105Y-89407000D01*
X157560895Y-89407000D01*
X158030448Y-89313600D01*
X158428515Y-89047620D01*
X158694495Y-88649553D01*
X158787895Y-88180000D01*
X158694495Y-87710447D01*
X158428515Y-87312380D01*
X158030448Y-87046400D01*
X157560895Y-86953000D01*
X156799105Y-86953000D01*
X156329552Y-87046400D01*
X155931485Y-87312380D01*
X155665505Y-87710447D01*
X155572105Y-88180000D01*
X148140002Y-88180000D01*
X152780976Y-83539026D01*
X155792642Y-83539026D01*
X155795291Y-83554791D01*
X156049268Y-84082036D01*
X156485680Y-84471954D01*
X157038087Y-84665184D01*
X157273000Y-84520924D01*
X157273000Y-83307000D01*
X157527000Y-83307000D01*
X157527000Y-84520924D01*
X157761913Y-84665184D01*
X158314320Y-84471954D01*
X158750732Y-84082036D01*
X159004709Y-83554791D01*
X159007358Y-83539026D01*
X158886217Y-83307000D01*
X157527000Y-83307000D01*
X157273000Y-83307000D01*
X155913783Y-83307000D01*
X155792642Y-83539026D01*
X152780976Y-83539026D01*
X154253003Y-82067000D01*
X156285387Y-82067000D01*
X156049268Y-82277964D01*
X155795291Y-82805209D01*
X155792642Y-82820974D01*
X155913783Y-83053000D01*
X157273000Y-83053000D01*
X157273000Y-83033000D01*
X157527000Y-83033000D01*
X157527000Y-83053000D01*
X158886217Y-83053000D01*
X159007358Y-82820974D01*
X159004709Y-82805209D01*
X158750732Y-82277964D01*
X158514613Y-82067000D01*
X165218000Y-82067000D01*
X165764089Y-81958376D01*
X166227041Y-81649041D01*
X172617042Y-75259041D01*
X172751000Y-75058558D01*
X172751000Y-75138309D01*
X172847673Y-75371698D01*
X173026301Y-75550327D01*
X173259690Y-75647000D01*
X173862250Y-75647000D01*
X174021000Y-75488250D01*
X174021000Y-74377000D01*
X174001000Y-74377000D01*
X174001000Y-74123000D01*
X174021000Y-74123000D01*
X174021000Y-73011750D01*
X174275000Y-73011750D01*
X174275000Y-74123000D01*
X174295000Y-74123000D01*
X174295000Y-74377000D01*
X174275000Y-74377000D01*
X174275000Y-75488250D01*
X174433750Y-75647000D01*
X175036310Y-75647000D01*
X175269699Y-75550327D01*
X175448327Y-75371698D01*
X175545000Y-75138309D01*
X175545000Y-74597296D01*
X175679427Y-74922635D01*
X176013606Y-75257397D01*
X176450456Y-75438793D01*
X176923469Y-75439206D01*
X177360635Y-75258573D01*
X177695397Y-74924394D01*
X177876793Y-74487544D01*
X177876794Y-74485469D01*
X178038794Y-74485469D01*
X178219427Y-74922635D01*
X178553606Y-75257397D01*
X178990456Y-75438793D01*
X179463469Y-75439206D01*
X179900635Y-75258573D01*
X180235397Y-74924394D01*
X180416793Y-74487544D01*
X180417206Y-74014531D01*
X180236573Y-73577365D01*
X179902394Y-73242603D01*
X179465544Y-73061207D01*
X178992531Y-73060794D01*
X178555365Y-73241427D01*
X178220603Y-73575606D01*
X178039207Y-74012456D01*
X178038794Y-74485469D01*
X177876794Y-74485469D01*
X177877206Y-74014531D01*
X177696573Y-73577365D01*
X177362394Y-73242603D01*
X176925544Y-73061207D01*
X176452531Y-73060794D01*
X176015365Y-73241427D01*
X175680603Y-73575606D01*
X175545000Y-73902174D01*
X175545000Y-73361691D01*
X175448327Y-73128302D01*
X175269699Y-72949673D01*
X175036310Y-72853000D01*
X174433750Y-72853000D01*
X174275000Y-73011750D01*
X174021000Y-73011750D01*
X173862250Y-72853000D01*
X173259690Y-72853000D01*
X173026301Y-72949673D01*
X172847673Y-73128302D01*
X172751000Y-73361691D01*
X172751000Y-73441441D01*
X172617042Y-73240958D01*
X172154090Y-72931624D01*
X171608000Y-72823000D01*
X171061911Y-72931624D01*
X170598959Y-73240958D01*
X164626918Y-79213000D01*
X158193330Y-79213000D01*
X158493262Y-79012592D01*
X158773029Y-78593891D01*
X158871270Y-78100000D01*
X158773029Y-77606109D01*
X158493262Y-77187408D01*
X158074561Y-76907641D01*
X157829850Y-76858965D01*
X158416000Y-76858965D01*
X158574237Y-76829191D01*
X158719567Y-76735673D01*
X158817064Y-76592981D01*
X158851365Y-76423600D01*
X158851365Y-74696400D01*
X158821591Y-74538163D01*
X158728073Y-74392833D01*
X158585381Y-74295336D01*
X158416000Y-74261035D01*
X156384000Y-74261035D01*
X156225763Y-74290809D01*
X156080433Y-74384327D01*
X155982936Y-74527019D01*
X155948635Y-74696400D01*
X155948635Y-76423600D01*
X155978409Y-76581837D01*
X156071927Y-76727167D01*
X156214619Y-76824664D01*
X156384000Y-76858965D01*
X156970150Y-76858965D01*
X156725439Y-76907641D01*
X156306738Y-77187408D01*
X156026971Y-77606109D01*
X155928730Y-78100000D01*
X156026971Y-78593891D01*
X156306738Y-79012592D01*
X156606670Y-79213000D01*
X153661920Y-79213000D01*
X153115831Y-79321624D01*
X152652879Y-79630958D01*
X146460838Y-85823000D01*
X65766000Y-85823000D01*
X65388317Y-85898126D01*
X65219910Y-85931624D01*
X64756958Y-86240959D01*
X55924918Y-95073000D01*
X55100014Y-95073000D01*
X55151000Y-94949910D01*
X55151000Y-94245750D01*
X54992250Y-94087000D01*
X53627000Y-94087000D01*
X53627000Y-94107000D01*
X53373000Y-94107000D01*
X53373000Y-94087000D01*
X52007750Y-94087000D01*
X51849000Y-94245750D01*
X51452000Y-94245750D01*
X51452000Y-92970090D01*
X51849000Y-92970090D01*
X51849000Y-93674250D01*
X52007750Y-93833000D01*
X53373000Y-93833000D01*
X53373000Y-92620150D01*
X53627000Y-92620150D01*
X53627000Y-93833000D01*
X54992250Y-93833000D01*
X55151000Y-93674250D01*
X55151000Y-92970090D01*
X55054327Y-92736701D01*
X54875698Y-92558073D01*
X54642309Y-92461400D01*
X53785750Y-92461400D01*
X53627000Y-92620150D01*
X53373000Y-92620150D01*
X53214250Y-92461400D01*
X52357691Y-92461400D01*
X52124302Y-92558073D01*
X51945673Y-92736701D01*
X51849000Y-92970090D01*
X51452000Y-92970090D01*
X51452000Y-90528646D01*
X53847208Y-88133438D01*
X53934626Y-88002608D01*
X53966867Y-87954356D01*
X54008885Y-87743115D01*
X54008885Y-83977772D01*
X54129520Y-83927927D01*
X54464282Y-83593748D01*
X54645678Y-83156898D01*
X54646091Y-82683885D01*
X54465458Y-82246719D01*
X54131279Y-81911957D01*
X53694429Y-81730561D01*
X53689580Y-81730557D01*
X53906993Y-81513144D01*
X54239375Y-81846105D01*
X54676225Y-82027501D01*
X55149238Y-82027914D01*
X55311574Y-81960838D01*
X64922597Y-81960838D01*
X65276115Y-82816418D01*
X65930139Y-83471585D01*
X66785100Y-83826596D01*
X67710838Y-83827403D01*
X68566418Y-83473885D01*
X69221585Y-82819861D01*
X69576596Y-81964900D01*
X69576599Y-81960838D01*
X72922597Y-81960838D01*
X73276115Y-82816418D01*
X73930139Y-83471585D01*
X74785100Y-83826596D01*
X75710838Y-83827403D01*
X76566418Y-83473885D01*
X77221585Y-82819861D01*
X77576596Y-81964900D01*
X77577403Y-81039162D01*
X77223885Y-80183582D01*
X76569861Y-79528415D01*
X75714900Y-79173404D01*
X74789162Y-79172597D01*
X73933582Y-79526115D01*
X73278415Y-80180139D01*
X72923404Y-81035100D01*
X72922597Y-81960838D01*
X69576599Y-81960838D01*
X69577403Y-81039162D01*
X69223885Y-80183582D01*
X68569861Y-79528415D01*
X67714900Y-79173404D01*
X66789162Y-79172597D01*
X65933582Y-79526115D01*
X65278415Y-80180139D01*
X64923404Y-81035100D01*
X64922597Y-81960838D01*
X55311574Y-81960838D01*
X55586404Y-81847281D01*
X55921166Y-81513102D01*
X56102562Y-81076252D01*
X56102975Y-80603239D01*
X55922342Y-80166073D01*
X55588163Y-79831311D01*
X55151313Y-79649915D01*
X54678300Y-79649502D01*
X54241134Y-79830135D01*
X53906372Y-80164314D01*
X53845169Y-80311708D01*
X53836139Y-80311708D01*
X53634465Y-80351823D01*
X53463494Y-80466063D01*
X44252355Y-89677202D01*
X44138115Y-89848172D01*
X44133907Y-89869327D01*
X44098000Y-90049847D01*
X44098000Y-104352710D01*
X44027000Y-104281710D01*
X44027000Y-92880000D01*
X43986885Y-92678326D01*
X43902476Y-92552000D01*
X43872645Y-92507354D01*
X43128364Y-91763073D01*
X43188793Y-91617544D01*
X43189206Y-91144531D01*
X43008573Y-90707365D01*
X42674394Y-90372603D01*
X42237544Y-90191207D01*
X41764531Y-90190794D01*
X41327365Y-90371427D01*
X40992603Y-90705606D01*
X40811207Y-91142456D01*
X40810794Y-91615469D01*
X40991427Y-92052635D01*
X41325606Y-92387397D01*
X41762456Y-92568793D01*
X42235469Y-92569206D01*
X42382970Y-92508260D01*
X42973000Y-93098291D01*
X42973000Y-93211730D01*
X42674394Y-92912603D01*
X42237544Y-92731207D01*
X41764531Y-92730794D01*
X41327365Y-92911427D01*
X40992603Y-93245606D01*
X40811207Y-93682456D01*
X40810794Y-94155469D01*
X40991427Y-94592635D01*
X41325606Y-94927397D01*
X41762456Y-95108793D01*
X42235469Y-95109206D01*
X42672635Y-94928573D01*
X42973000Y-94628731D01*
X42973000Y-95751730D01*
X42674394Y-95452603D01*
X42237544Y-95271207D01*
X41764531Y-95270794D01*
X41327365Y-95451427D01*
X40992603Y-95785606D01*
X40811207Y-96222456D01*
X40810794Y-96695469D01*
X40991427Y-97132635D01*
X41325606Y-97467397D01*
X41652174Y-97603000D01*
X41111691Y-97603000D01*
X40878302Y-97699673D01*
X40699673Y-97878301D01*
X40603000Y-98111690D01*
X40603000Y-98714250D01*
X40761750Y-98873000D01*
X41873000Y-98873000D01*
X41873000Y-98853000D01*
X42127000Y-98853000D01*
X42127000Y-98873000D01*
X42147000Y-98873000D01*
X42147000Y-99127000D01*
X42127000Y-99127000D01*
X42127000Y-99147000D01*
X41873000Y-99147000D01*
X41873000Y-99127000D01*
X40761750Y-99127000D01*
X40603000Y-99285750D01*
X40603000Y-99888310D01*
X40699673Y-100121699D01*
X40878302Y-100300327D01*
X41111691Y-100397000D01*
X41652704Y-100397000D01*
X41327365Y-100531427D01*
X40992603Y-100865606D01*
X40811207Y-101302456D01*
X40810794Y-101775469D01*
X40991427Y-102212635D01*
X41325606Y-102547397D01*
X41762456Y-102728793D01*
X42235469Y-102729206D01*
X42672635Y-102548573D01*
X42973000Y-102248731D01*
X42973000Y-103371730D01*
X42674394Y-103072603D01*
X42237544Y-102891207D01*
X41764531Y-102890794D01*
X41327365Y-103071427D01*
X40992603Y-103405606D01*
X40811207Y-103842456D01*
X40810794Y-104315469D01*
X40991427Y-104752635D01*
X41325606Y-105087397D01*
X41762456Y-105268793D01*
X42235469Y-105269206D01*
X42672635Y-105088573D01*
X43007397Y-104754394D01*
X43023089Y-104716603D01*
X43127355Y-104872645D01*
X54227355Y-115972646D01*
X54265300Y-115998000D01*
X42807935Y-115998000D01*
X38102000Y-111292064D01*
X38102000Y-111218290D01*
X39872372Y-111218290D01*
X40423386Y-112551846D01*
X41442787Y-113573028D01*
X42775380Y-114126369D01*
X44218290Y-114127628D01*
X45551846Y-113576614D01*
X46573028Y-112557213D01*
X47126369Y-111224620D01*
X47127628Y-109781710D01*
X46576614Y-108448154D01*
X45557213Y-107426972D01*
X44224620Y-106873631D01*
X42781710Y-106872372D01*
X41448154Y-107423386D01*
X40426972Y-108442787D01*
X39873631Y-109775380D01*
X39872372Y-111218290D01*
X38102000Y-111218290D01*
X38102000Y-89075469D01*
X40810794Y-89075469D01*
X40991427Y-89512635D01*
X41325606Y-89847397D01*
X41762456Y-90028793D01*
X42235469Y-90029206D01*
X42672635Y-89848573D01*
X43007397Y-89514394D01*
X43188793Y-89077544D01*
X43189206Y-88604531D01*
X43008573Y-88167365D01*
X42674394Y-87832603D01*
X42237544Y-87651207D01*
X41764531Y-87650794D01*
X41327365Y-87831427D01*
X40992603Y-88165606D01*
X40811207Y-88602456D01*
X40810794Y-89075469D01*
X38102000Y-89075469D01*
X38102000Y-83218290D01*
X39872372Y-83218290D01*
X40423386Y-84551846D01*
X41442787Y-85573028D01*
X42775380Y-86126369D01*
X44218290Y-86127628D01*
X45551846Y-85576614D01*
X46573028Y-84557213D01*
X47126369Y-83224620D01*
X47127628Y-81781710D01*
X46576614Y-80448154D01*
X45557213Y-79426972D01*
X44513372Y-78993531D01*
X55181447Y-78993531D01*
X55362080Y-79430697D01*
X55696259Y-79765459D01*
X56133109Y-79946855D01*
X56606122Y-79947268D01*
X57043288Y-79766635D01*
X57378050Y-79432456D01*
X57559446Y-78995606D01*
X57559859Y-78522593D01*
X57379226Y-78085427D01*
X57045047Y-77750665D01*
X56608197Y-77569269D01*
X56135184Y-77568856D01*
X55698018Y-77749489D01*
X55363256Y-78083668D01*
X55181860Y-78520518D01*
X55181447Y-78993531D01*
X44513372Y-78993531D01*
X44224620Y-78873631D01*
X42781710Y-78872372D01*
X41448154Y-79423386D01*
X40426972Y-80442787D01*
X39873631Y-81775380D01*
X39872372Y-83218290D01*
X38102000Y-83218290D01*
X38102000Y-81707936D01*
X42807935Y-77002000D01*
X96249995Y-77002000D01*
X96250000Y-77002001D01*
X96442107Y-76963788D01*
X96604968Y-76854968D01*
X101604965Y-71854970D01*
X101604968Y-71854968D01*
X101713788Y-71692107D01*
X101752001Y-71500000D01*
X101752000Y-71499995D01*
X101752000Y-64218290D01*
X103622372Y-64218290D01*
X104173386Y-65551846D01*
X105192787Y-66573028D01*
X106525380Y-67126369D01*
X107968290Y-67127628D01*
X109301846Y-66576614D01*
X110323028Y-65557213D01*
X110743500Y-64544603D01*
X122982752Y-64544603D01*
X123199543Y-65069275D01*
X123600614Y-65471047D01*
X124124907Y-65688752D01*
X124692603Y-65689248D01*
X125217275Y-65472457D01*
X125619047Y-65071386D01*
X125836752Y-64547093D01*
X125836754Y-64544603D01*
X126182752Y-64544603D01*
X126399543Y-65069275D01*
X126800614Y-65471047D01*
X127324907Y-65688752D01*
X127892603Y-65689248D01*
X128417275Y-65472457D01*
X128819047Y-65071386D01*
X129036752Y-64547093D01*
X129037248Y-63979397D01*
X128820457Y-63454725D01*
X128419386Y-63052953D01*
X127895093Y-62835248D01*
X127327397Y-62834752D01*
X126802725Y-63051543D01*
X126400953Y-63452614D01*
X126183248Y-63976907D01*
X126182752Y-64544603D01*
X125836754Y-64544603D01*
X125837248Y-63979397D01*
X125620457Y-63454725D01*
X125219386Y-63052953D01*
X124695093Y-62835248D01*
X124127397Y-62834752D01*
X123602725Y-63051543D01*
X123200953Y-63452614D01*
X122983248Y-63976907D01*
X122982752Y-64544603D01*
X110743500Y-64544603D01*
X110876369Y-64224620D01*
X110877628Y-62781710D01*
X110326614Y-61448154D01*
X109307213Y-60426972D01*
X107974620Y-59873631D01*
X106531710Y-59872372D01*
X105198154Y-60423386D01*
X104176972Y-61442787D01*
X103623631Y-62775380D01*
X103622372Y-64218290D01*
X101752000Y-64218290D01*
X101752000Y-59544603D01*
X122982752Y-59544603D01*
X123199543Y-60069275D01*
X123600614Y-60471047D01*
X124124907Y-60688752D01*
X124692603Y-60689248D01*
X125217275Y-60472457D01*
X125619047Y-60071386D01*
X125836752Y-59547093D01*
X125836754Y-59544603D01*
X126182752Y-59544603D01*
X126399543Y-60069275D01*
X126800614Y-60471047D01*
X127324907Y-60688752D01*
X127892603Y-60689248D01*
X128417275Y-60472457D01*
X128819047Y-60071386D01*
X129036752Y-59547093D01*
X129036754Y-59544603D01*
X129382752Y-59544603D01*
X129599543Y-60069275D01*
X130000614Y-60471047D01*
X130001214Y-60471296D01*
X131291918Y-61762000D01*
X129802125Y-63251793D01*
X129600953Y-63452614D01*
X129383248Y-63976907D01*
X129382752Y-64544603D01*
X129599543Y-65069275D01*
X130000614Y-65471047D01*
X130524907Y-65688752D01*
X131092603Y-65689248D01*
X131617275Y-65472457D01*
X132019047Y-65071386D01*
X132019296Y-65070786D01*
X132582785Y-64507298D01*
X132582752Y-64544603D01*
X132799543Y-65069275D01*
X133200614Y-65471047D01*
X133201214Y-65471296D01*
X137069978Y-69340060D01*
X137532930Y-69649395D01*
X138079019Y-69758019D01*
X207947937Y-69758019D01*
X212949000Y-74759083D01*
X212949000Y-81675867D01*
X212881205Y-82016697D01*
X212873000Y-82100000D01*
X212873000Y-85100000D01*
X212881205Y-85183303D01*
X212957325Y-85565986D01*
X213021082Y-85719911D01*
X213237855Y-86044335D01*
X213355665Y-86162145D01*
X213680089Y-86378918D01*
X213834014Y-86442675D01*
X213930550Y-86461877D01*
X213923126Y-86479756D01*
X213922874Y-86768975D01*
X214033320Y-87036275D01*
X214237650Y-87240961D01*
X214386986Y-87302971D01*
X213866497Y-87823460D01*
X213756593Y-87987942D01*
X213718000Y-88181963D01*
X213718000Y-90628879D01*
X213609039Y-90737650D01*
X213498126Y-91004756D01*
X213498017Y-91129430D01*
X198555126Y-106072320D01*
X197845427Y-106072320D01*
X198069943Y-105848196D01*
X198215182Y-105498422D01*
X198215512Y-105119693D01*
X198070884Y-104769667D01*
X197803316Y-104501631D01*
X197453542Y-104356392D01*
X197074813Y-104356062D01*
X196724787Y-104500690D01*
X196456751Y-104768258D01*
X196311512Y-105118032D01*
X196311182Y-105496761D01*
X196455810Y-105846787D01*
X196680949Y-106072320D01*
X176168362Y-106072320D01*
X176187705Y-106052977D01*
X176071622Y-105936894D01*
X176289309Y-105896652D01*
X176436393Y-105459242D01*
X176404890Y-104998841D01*
X176289309Y-104719802D01*
X176071620Y-104679560D01*
X175442952Y-105308227D01*
X175457095Y-105322369D01*
X175277489Y-105501975D01*
X175263347Y-105487832D01*
X175249205Y-105501975D01*
X175069599Y-105322369D01*
X175083742Y-105308227D01*
X174455074Y-104679560D01*
X174237385Y-104719802D01*
X174090301Y-105157212D01*
X174121804Y-105617613D01*
X174237385Y-105896652D01*
X174455072Y-105936894D01*
X174338989Y-106052977D01*
X174358332Y-106072320D01*
X173819953Y-106072320D01*
X172929600Y-105181966D01*
X172929600Y-103496761D01*
X174311182Y-103496761D01*
X174455810Y-103846787D01*
X174723378Y-104114823D01*
X174901052Y-104188600D01*
X174674922Y-104282265D01*
X174634680Y-104499954D01*
X175263347Y-105128622D01*
X175892014Y-104499954D01*
X175851772Y-104282265D01*
X175602117Y-104198316D01*
X175801907Y-104115764D01*
X176069943Y-103848196D01*
X176215182Y-103498422D01*
X176215512Y-103119693D01*
X176070884Y-102769667D01*
X175803316Y-102501631D01*
X175453542Y-102356392D01*
X175074813Y-102356062D01*
X174724787Y-102500690D01*
X174456751Y-102768258D01*
X174311512Y-103118032D01*
X174311182Y-103496761D01*
X172929600Y-103496761D01*
X172929600Y-101496761D01*
X174311182Y-101496761D01*
X174455810Y-101846787D01*
X174723378Y-102114823D01*
X175073152Y-102260062D01*
X175451881Y-102260392D01*
X175801907Y-102115764D01*
X176069943Y-101848196D01*
X176215182Y-101498422D01*
X176215512Y-101119693D01*
X176070884Y-100769667D01*
X175803316Y-100501631D01*
X175453542Y-100356392D01*
X175074813Y-100356062D01*
X174724787Y-100500690D01*
X174456751Y-100768258D01*
X174311512Y-101118032D01*
X174311182Y-101496761D01*
X172929600Y-101496761D01*
X172929600Y-99496761D01*
X174311182Y-99496761D01*
X174455810Y-99846787D01*
X174723378Y-100114823D01*
X175073152Y-100260062D01*
X175451881Y-100260392D01*
X175801907Y-100115764D01*
X176069943Y-99848196D01*
X176215182Y-99498422D01*
X176215312Y-99348361D01*
X177656371Y-99348361D01*
X177769475Y-99622095D01*
X177978724Y-99831709D01*
X178252260Y-99945291D01*
X178548441Y-99945549D01*
X178822175Y-99832445D01*
X179031789Y-99623196D01*
X179145371Y-99349660D01*
X179145498Y-99203976D01*
X191620873Y-86728600D01*
X196314044Y-86728600D01*
X196303387Y-86781227D01*
X192591773Y-86781227D01*
X192390099Y-86821342D01*
X192219128Y-86935581D01*
X185127355Y-94027355D01*
X185013115Y-94198325D01*
X184983470Y-94347365D01*
X184973000Y-94400000D01*
X184973000Y-103874116D01*
X184869211Y-103977724D01*
X184755629Y-104251260D01*
X184755371Y-104547441D01*
X184868475Y-104821175D01*
X185077724Y-105030789D01*
X185351260Y-105144371D01*
X185647441Y-105144629D01*
X185921175Y-105031525D01*
X186130789Y-104822276D01*
X186244371Y-104548740D01*
X186244372Y-104547441D01*
X187455371Y-104547441D01*
X187568475Y-104821175D01*
X187777724Y-105030789D01*
X188051260Y-105144371D01*
X188347441Y-105144629D01*
X188621175Y-105031525D01*
X188830789Y-104822276D01*
X188944371Y-104548740D01*
X188944629Y-104252559D01*
X188831525Y-103978825D01*
X188727000Y-103874118D01*
X188727000Y-103496761D01*
X196311182Y-103496761D01*
X196455810Y-103846787D01*
X196723378Y-104114823D01*
X197073152Y-104260062D01*
X197451881Y-104260392D01*
X197801907Y-104115764D01*
X198069943Y-103848196D01*
X198215182Y-103498422D01*
X198215512Y-103119693D01*
X198070884Y-102769667D01*
X197803316Y-102501631D01*
X197453542Y-102356392D01*
X197074813Y-102356062D01*
X196724787Y-102500690D01*
X196456751Y-102768258D01*
X196311512Y-103118032D01*
X196311182Y-103496761D01*
X188727000Y-103496761D01*
X188727000Y-101496761D01*
X196311182Y-101496761D01*
X196455810Y-101846787D01*
X196723378Y-102114823D01*
X197073152Y-102260062D01*
X197451881Y-102260392D01*
X197801907Y-102115764D01*
X198069943Y-101848196D01*
X198215182Y-101498422D01*
X198215512Y-101119693D01*
X198070884Y-100769667D01*
X197803316Y-100501631D01*
X197453542Y-100356392D01*
X197074813Y-100356062D01*
X196724787Y-100500690D01*
X196456751Y-100768258D01*
X196311512Y-101118032D01*
X196311182Y-101496761D01*
X188727000Y-101496761D01*
X188727000Y-99496761D01*
X196311182Y-99496761D01*
X196455810Y-99846787D01*
X196723378Y-100114823D01*
X197073152Y-100260062D01*
X197451881Y-100260392D01*
X197801907Y-100115764D01*
X198069943Y-99848196D01*
X198215182Y-99498422D01*
X198215512Y-99119693D01*
X198070884Y-98769667D01*
X197803316Y-98501631D01*
X197453542Y-98356392D01*
X197074813Y-98356062D01*
X196724787Y-98500690D01*
X196456751Y-98768258D01*
X196311512Y-99118032D01*
X196311182Y-99496761D01*
X188727000Y-99496761D01*
X188727000Y-97496761D01*
X196311182Y-97496761D01*
X196455810Y-97846787D01*
X196723378Y-98114823D01*
X197073152Y-98260062D01*
X197451881Y-98260392D01*
X197801907Y-98115764D01*
X198069943Y-97848196D01*
X198215182Y-97498422D01*
X198215512Y-97119693D01*
X198070884Y-96769667D01*
X197803316Y-96501631D01*
X197453542Y-96356392D01*
X197074813Y-96356062D01*
X196724787Y-96500690D01*
X196456751Y-96768258D01*
X196311512Y-97118032D01*
X196311182Y-97496761D01*
X188727000Y-97496761D01*
X188727000Y-95718290D01*
X188948529Y-95496761D01*
X196311182Y-95496761D01*
X196455810Y-95846787D01*
X196723378Y-96114823D01*
X197073152Y-96260062D01*
X197451881Y-96260392D01*
X197801907Y-96115764D01*
X198069943Y-95848196D01*
X198215182Y-95498422D01*
X198215512Y-95119693D01*
X198070884Y-94769667D01*
X197803316Y-94501631D01*
X197453542Y-94356392D01*
X197074813Y-94356062D01*
X196724787Y-94500690D01*
X196456751Y-94768258D01*
X196311512Y-95118032D01*
X196311182Y-95496761D01*
X188948529Y-95496761D01*
X190948529Y-93496761D01*
X196311182Y-93496761D01*
X196455810Y-93846787D01*
X196723378Y-94114823D01*
X197073152Y-94260062D01*
X197451881Y-94260392D01*
X197801907Y-94115764D01*
X198069943Y-93848196D01*
X198215182Y-93498422D01*
X198215512Y-93119693D01*
X198070884Y-92769667D01*
X197803316Y-92501631D01*
X197453542Y-92356392D01*
X197074813Y-92356062D01*
X196724787Y-92500690D01*
X196456751Y-92768258D01*
X196311512Y-93118032D01*
X196311182Y-93496761D01*
X190948529Y-93496761D01*
X192948529Y-91496761D01*
X196311182Y-91496761D01*
X196455810Y-91846787D01*
X196723378Y-92114823D01*
X197073152Y-92260062D01*
X197451881Y-92260392D01*
X197801907Y-92115764D01*
X198069943Y-91848196D01*
X198215182Y-91498422D01*
X198215512Y-91119693D01*
X198070884Y-90769667D01*
X197803316Y-90501631D01*
X197453542Y-90356392D01*
X197074813Y-90356062D01*
X196724787Y-90500690D01*
X196456751Y-90768258D01*
X196311512Y-91118032D01*
X196311182Y-91496761D01*
X192948529Y-91496761D01*
X194400789Y-90044501D01*
X194547441Y-90044629D01*
X194821175Y-89931525D01*
X195030789Y-89722276D01*
X195124430Y-89496761D01*
X196311182Y-89496761D01*
X196455810Y-89846787D01*
X196723378Y-90114823D01*
X197073152Y-90260062D01*
X197451881Y-90260392D01*
X197801907Y-90115764D01*
X198069943Y-89848196D01*
X198215182Y-89498422D01*
X198215512Y-89119693D01*
X198070884Y-88769667D01*
X197803316Y-88501631D01*
X197453542Y-88356392D01*
X197074813Y-88356062D01*
X196724787Y-88500690D01*
X196456751Y-88768258D01*
X196311512Y-89118032D01*
X196311182Y-89496761D01*
X195124430Y-89496761D01*
X195144371Y-89448740D01*
X195144629Y-89152559D01*
X195031525Y-88878825D01*
X194822276Y-88669211D01*
X194548740Y-88555629D01*
X194252559Y-88555371D01*
X193978825Y-88668475D01*
X193769211Y-88877724D01*
X193655629Y-89151260D01*
X193655500Y-89299210D01*
X187827355Y-95127355D01*
X187713115Y-95298325D01*
X187713115Y-95298326D01*
X187673000Y-95500000D01*
X187673000Y-103874116D01*
X187569211Y-103977724D01*
X187455629Y-104251260D01*
X187455371Y-104547441D01*
X186244372Y-104547441D01*
X186244629Y-104252559D01*
X186131525Y-103978825D01*
X186027000Y-103874118D01*
X186027000Y-94618290D01*
X192810064Y-87835227D01*
X196303358Y-87835227D01*
X196332756Y-87991464D01*
X196426274Y-88136794D01*
X196568966Y-88234291D01*
X196738347Y-88268592D01*
X197788347Y-88268592D01*
X197946584Y-88238818D01*
X198091914Y-88145300D01*
X198189411Y-88002608D01*
X198223712Y-87833227D01*
X198223712Y-86783227D01*
X198213433Y-86728600D01*
X207181120Y-86728600D01*
X209656491Y-89203970D01*
X209656365Y-89348361D01*
X209769469Y-89622095D01*
X209978718Y-89831709D01*
X210252254Y-89945291D01*
X210548435Y-89945549D01*
X210822169Y-89832445D01*
X211031783Y-89623196D01*
X211145365Y-89349660D01*
X211145623Y-89053479D01*
X211139008Y-89037469D01*
X211743796Y-89642257D01*
X211656629Y-89852180D01*
X211656371Y-90148361D01*
X211769475Y-90422095D01*
X211978724Y-90631709D01*
X212252260Y-90745291D01*
X212548441Y-90745549D01*
X212822175Y-90632445D01*
X213031789Y-90423196D01*
X213145371Y-90149660D01*
X213145629Y-89853479D01*
X213032525Y-89579745D01*
X212910904Y-89457912D01*
X212889363Y-89349621D01*
X212827174Y-89256549D01*
X212774777Y-89178131D01*
X212774774Y-89178129D01*
X199623789Y-76027143D01*
X199452299Y-75912557D01*
X199250012Y-75872319D01*
X199250007Y-75872320D01*
X195527873Y-75872320D01*
X195252553Y-75597000D01*
X195362250Y-75597000D01*
X195521000Y-75438250D01*
X195521000Y-74327000D01*
X195501000Y-74327000D01*
X195501000Y-74073000D01*
X195521000Y-74073000D01*
X195521000Y-72961750D01*
X195775000Y-72961750D01*
X195775000Y-74073000D01*
X195795000Y-74073000D01*
X195795000Y-74327000D01*
X195775000Y-74327000D01*
X195775000Y-75438250D01*
X195933750Y-75597000D01*
X196536310Y-75597000D01*
X196769699Y-75500327D01*
X196948327Y-75321698D01*
X197045000Y-75088309D01*
X197045000Y-74547296D01*
X197179427Y-74872635D01*
X197513606Y-75207397D01*
X197950456Y-75388793D01*
X198423469Y-75389206D01*
X198860635Y-75208573D01*
X199195397Y-74874394D01*
X199376793Y-74437544D01*
X199376794Y-74435469D01*
X199538794Y-74435469D01*
X199719427Y-74872635D01*
X200053606Y-75207397D01*
X200490456Y-75388793D01*
X200963469Y-75389206D01*
X201400635Y-75208573D01*
X201735397Y-74874394D01*
X201916793Y-74437544D01*
X201917206Y-73964531D01*
X201736573Y-73527365D01*
X201402394Y-73192603D01*
X200965544Y-73011207D01*
X200492531Y-73010794D01*
X200055365Y-73191427D01*
X199720603Y-73525606D01*
X199539207Y-73962456D01*
X199538794Y-74435469D01*
X199376794Y-74435469D01*
X199377206Y-73964531D01*
X199196573Y-73527365D01*
X198862394Y-73192603D01*
X198425544Y-73011207D01*
X197952531Y-73010794D01*
X197515365Y-73191427D01*
X197180603Y-73525606D01*
X197045000Y-73852174D01*
X197045000Y-73311691D01*
X196948327Y-73078302D01*
X196769699Y-72899673D01*
X196536310Y-72803000D01*
X195933750Y-72803000D01*
X195775000Y-72961750D01*
X195521000Y-72961750D01*
X195362250Y-72803000D01*
X194759690Y-72803000D01*
X194526301Y-72899673D01*
X194347673Y-73078302D01*
X194251000Y-73311691D01*
X194251000Y-73852704D01*
X194116573Y-73527365D01*
X193782394Y-73192603D01*
X193345544Y-73011207D01*
X192872531Y-73010794D01*
X192435365Y-73191427D01*
X192100603Y-73525606D01*
X191919207Y-73962456D01*
X191918794Y-74435469D01*
X192099427Y-74872635D01*
X192433606Y-75207397D01*
X192870456Y-75388793D01*
X193343469Y-75389206D01*
X193489369Y-75328922D01*
X193496220Y-75335773D01*
X193496222Y-75335776D01*
X194935141Y-76774694D01*
X194935143Y-76774697D01*
X195020889Y-76831990D01*
X195106633Y-76889283D01*
X195308920Y-76929521D01*
X195308925Y-76929520D01*
X199031058Y-76929520D01*
X210564020Y-88462481D01*
X210549734Y-88456549D01*
X210404049Y-88456422D01*
X207773851Y-85826223D01*
X207602361Y-85711637D01*
X207400074Y-85671399D01*
X207400069Y-85671400D01*
X192207516Y-85671400D01*
X192207682Y-85481049D01*
X192094578Y-85207315D01*
X191885329Y-84997701D01*
X191611793Y-84884119D01*
X191315612Y-84883861D01*
X191041878Y-84996965D01*
X190917136Y-85121490D01*
X189338576Y-85121490D01*
X189045477Y-84828391D01*
X189045629Y-84653479D01*
X188932525Y-84379745D01*
X188723276Y-84170131D01*
X188449740Y-84056549D01*
X188153559Y-84056291D01*
X187879825Y-84169395D01*
X187670211Y-84378644D01*
X187556629Y-84652180D01*
X187556371Y-84948361D01*
X187669475Y-85222095D01*
X187878724Y-85431709D01*
X188152260Y-85545291D01*
X188328519Y-85545445D01*
X188770067Y-85986993D01*
X188934550Y-86096898D01*
X189128570Y-86135490D01*
X190718877Y-86135490D01*
X187703309Y-89151057D01*
X187632525Y-88979745D01*
X187423276Y-88770131D01*
X187149740Y-88656549D01*
X186853559Y-88656291D01*
X186655297Y-88738211D01*
X180545477Y-82628391D01*
X180545629Y-82453479D01*
X180432525Y-82179745D01*
X180223276Y-81970131D01*
X179949740Y-81856549D01*
X179653559Y-81856291D01*
X179379825Y-81969395D01*
X179170211Y-82178644D01*
X179056629Y-82452180D01*
X179056371Y-82748361D01*
X179169475Y-83022095D01*
X179378724Y-83231709D01*
X179652260Y-83345291D01*
X179828519Y-83345445D01*
X186242497Y-89759423D01*
X186406979Y-89869327D01*
X186419015Y-89871721D01*
X186578724Y-90031709D01*
X186751087Y-90103280D01*
X178397949Y-98456417D01*
X178253559Y-98456291D01*
X177979825Y-98569395D01*
X177770211Y-98778644D01*
X177656629Y-99052180D01*
X177656371Y-99348361D01*
X176215312Y-99348361D01*
X176215512Y-99119693D01*
X176070884Y-98769667D01*
X175803316Y-98501631D01*
X175453542Y-98356392D01*
X175074813Y-98356062D01*
X174724787Y-98500690D01*
X174456751Y-98768258D01*
X174311512Y-99118032D01*
X174311182Y-99496761D01*
X172929600Y-99496761D01*
X172929600Y-99325197D01*
X173031789Y-99223186D01*
X173145371Y-98949650D01*
X173145629Y-98653469D01*
X173032525Y-98379735D01*
X172823276Y-98170121D01*
X172549740Y-98056539D01*
X172253559Y-98056281D01*
X171979825Y-98169385D01*
X171770211Y-98378634D01*
X171656629Y-98652170D01*
X171656371Y-98948351D01*
X171769475Y-99222085D01*
X171872400Y-99325190D01*
X171872400Y-100707482D01*
X171749740Y-100656549D01*
X171453559Y-100656291D01*
X171179825Y-100769395D01*
X170970211Y-100978644D01*
X170856629Y-101252180D01*
X170856371Y-101548361D01*
X170969475Y-101822095D01*
X171072400Y-101925200D01*
X171072400Y-105800915D01*
X171072399Y-105800920D01*
X171112637Y-106003207D01*
X171227223Y-106174697D01*
X172382832Y-107330305D01*
X172382834Y-107330308D01*
X172436850Y-107366400D01*
X172554324Y-107444894D01*
X172756611Y-107485132D01*
X172756616Y-107485131D01*
X198956049Y-107485131D01*
X198248180Y-108193000D01*
X168990000Y-108193000D01*
X168795979Y-108231593D01*
X168745743Y-108265160D01*
X168631497Y-108341497D01*
X166879994Y-110093000D01*
X162380006Y-110093000D01*
X160907000Y-108619994D01*
X160907000Y-108500000D01*
X163192105Y-108500000D01*
X163285505Y-108969553D01*
X163551485Y-109367620D01*
X163949552Y-109633600D01*
X164419105Y-109727000D01*
X165180895Y-109727000D01*
X165650448Y-109633600D01*
X166048515Y-109367620D01*
X166314495Y-108969553D01*
X166407895Y-108500000D01*
X166318156Y-108048850D01*
X167958503Y-106408503D01*
X167968862Y-106393000D01*
X168068407Y-106244021D01*
X168107000Y-106050000D01*
X168107000Y-97240006D01*
X168540006Y-96807000D01*
X174440664Y-96807000D01*
X174311512Y-97118032D01*
X174311182Y-97496761D01*
X174455810Y-97846787D01*
X174723378Y-98114823D01*
X175073152Y-98260062D01*
X175451881Y-98260392D01*
X175801907Y-98115764D01*
X176069943Y-97848196D01*
X176215182Y-97498422D01*
X176215512Y-97119693D01*
X176086310Y-96807000D01*
X176852908Y-96807000D01*
X177046929Y-96768407D01*
X177211411Y-96658503D01*
X177820753Y-96049161D01*
X178052260Y-96145291D01*
X178348441Y-96145549D01*
X178622175Y-96032445D01*
X178831789Y-95823196D01*
X178945371Y-95549660D01*
X178945629Y-95253479D01*
X178832525Y-94979745D01*
X178623276Y-94770131D01*
X178390501Y-94673474D01*
X178390501Y-90307507D01*
X179455523Y-91372529D01*
X179455371Y-91547441D01*
X179568475Y-91821175D01*
X179777724Y-92030789D01*
X180051260Y-92144371D01*
X180347441Y-92144629D01*
X180621175Y-92031525D01*
X180830789Y-91822276D01*
X180944371Y-91548740D01*
X180944629Y-91252559D01*
X180831525Y-90978825D01*
X180622276Y-90769211D01*
X180348740Y-90655629D01*
X180172481Y-90655475D01*
X178807000Y-89289994D01*
X178807000Y-82410006D01*
X189410006Y-71807000D01*
X201500000Y-71807000D01*
X201694021Y-71768407D01*
X201858503Y-71658503D01*
X202172529Y-71344477D01*
X202347441Y-71344629D01*
X202621175Y-71231525D01*
X202830789Y-71022276D01*
X202944371Y-70748740D01*
X202944629Y-70452559D01*
X202831525Y-70178825D01*
X202622276Y-69969211D01*
X202348740Y-69855629D01*
X202052559Y-69855371D01*
X201778825Y-69968475D01*
X201599872Y-70147117D01*
X201422276Y-69969211D01*
X201148740Y-69855629D01*
X200852559Y-69855371D01*
X200578825Y-69968475D01*
X200454083Y-70093000D01*
X189358186Y-70093000D01*
X189164165Y-70131593D01*
X189093478Y-70178825D01*
X188999683Y-70241497D01*
X177524998Y-81716182D01*
X177415094Y-81880664D01*
X177376501Y-82074685D01*
X177376501Y-95059401D01*
X176642902Y-95793000D01*
X176092862Y-95793000D01*
X176215182Y-95498422D01*
X176215512Y-95119693D01*
X176070884Y-94769667D01*
X175803316Y-94501631D01*
X175453542Y-94356392D01*
X175074813Y-94356062D01*
X174724787Y-94500690D01*
X174456751Y-94768258D01*
X174311512Y-95118032D01*
X174311182Y-95496761D01*
X174433586Y-95793000D01*
X168330000Y-95793000D01*
X168135979Y-95831593D01*
X167971497Y-95941497D01*
X167241497Y-96671497D01*
X167131593Y-96835979D01*
X167093000Y-97030000D01*
X167093000Y-105839994D01*
X165580506Y-107352488D01*
X165180895Y-107273000D01*
X164419105Y-107273000D01*
X163949552Y-107366400D01*
X163551485Y-107632380D01*
X163285505Y-108030447D01*
X163192105Y-108500000D01*
X160907000Y-108500000D01*
X160907000Y-106900000D01*
X160901755Y-106873631D01*
X160868408Y-106705980D01*
X160758503Y-106541497D01*
X159818503Y-105601497D01*
X159788715Y-105581593D01*
X159654021Y-105491593D01*
X159460000Y-105453000D01*
X158669474Y-105453000D01*
X158428515Y-105092380D01*
X158030448Y-104826400D01*
X157560895Y-104733000D01*
X156799105Y-104733000D01*
X156329552Y-104826400D01*
X155931485Y-105092380D01*
X155665505Y-105490447D01*
X155572105Y-105960000D01*
X155665505Y-106429553D01*
X155931485Y-106827620D01*
X156329552Y-107093600D01*
X156799105Y-107187000D01*
X157560895Y-107187000D01*
X158030448Y-107093600D01*
X158428515Y-106827620D01*
X158669474Y-106467000D01*
X159249994Y-106467000D01*
X159893000Y-107110006D01*
X159893000Y-108830000D01*
X159931593Y-109024021D01*
X160012902Y-109145708D01*
X160041497Y-109188503D01*
X161811497Y-110958503D01*
X161975979Y-111068407D01*
X162170000Y-111107000D01*
X167090000Y-111107000D01*
X167284021Y-111068407D01*
X167448503Y-110958503D01*
X169200006Y-109207000D01*
X197675994Y-109207000D01*
X197089994Y-109793000D01*
X177545849Y-109793000D01*
X177422276Y-109669211D01*
X177148740Y-109555629D01*
X176852559Y-109555371D01*
X176578825Y-109668475D01*
X176369211Y-109877724D01*
X176255629Y-110151260D01*
X176255371Y-110447441D01*
X176368475Y-110721175D01*
X176577724Y-110930789D01*
X176851260Y-111044371D01*
X177147441Y-111044629D01*
X177421175Y-110931525D01*
X177545917Y-110807000D01*
X197300000Y-110807000D01*
X197494021Y-110768407D01*
X197658503Y-110658503D01*
X202817006Y-105500000D01*
X225748000Y-105500000D01*
X225748000Y-115500000D01*
X225786212Y-115692107D01*
X225895032Y-115854968D01*
X226057893Y-115963788D01*
X226250000Y-116002000D01*
X246250000Y-116002000D01*
X246442107Y-115963788D01*
X246604968Y-115854968D01*
X246713788Y-115692107D01*
X246752000Y-115500000D01*
X246752000Y-105500000D01*
X246713788Y-105307893D01*
X246604968Y-105145032D01*
X246442107Y-105036212D01*
X246250000Y-104998000D01*
X226250000Y-104998000D01*
X226057893Y-105036212D01*
X225895032Y-105145032D01*
X225786212Y-105307893D01*
X225748000Y-105500000D01*
X202817006Y-105500000D01*
X204910006Y-103407000D01*
X247989994Y-103407000D01*
X255170398Y-110587404D01*
X255227355Y-110672645D01*
X256399979Y-111845269D01*
X256399979Y-121953343D01*
X256014387Y-122210987D01*
X255753117Y-122602006D01*
X255678933Y-122389929D01*
X255289015Y-121953517D01*
X254761770Y-121699540D01*
X254746005Y-121696891D01*
X254513979Y-121818032D01*
X254513979Y-123177249D01*
X254533979Y-123177249D01*
X254533979Y-123431249D01*
X254513979Y-123431249D01*
X254513979Y-124790466D01*
X254746005Y-124911607D01*
X254761770Y-124908958D01*
X255289015Y-124654981D01*
X255678933Y-124218569D01*
X255753117Y-124006492D01*
X256014387Y-124397511D01*
X256433088Y-124677278D01*
X256926979Y-124775519D01*
X257420870Y-124677278D01*
X257839571Y-124397511D01*
X258119338Y-123978810D01*
X258196979Y-123588482D01*
X258274620Y-123978810D01*
X258554387Y-124397511D01*
X258973088Y-124677278D01*
X259466979Y-124775519D01*
X259960870Y-124677278D01*
X260379571Y-124397511D01*
X260659338Y-123978810D01*
X260757579Y-123484919D01*
X260757579Y-123123579D01*
X260659338Y-122629688D01*
X260379571Y-122210987D01*
X259993979Y-121953343D01*
X259993979Y-121218290D01*
X263872372Y-121218290D01*
X264423386Y-122551846D01*
X265442787Y-123573028D01*
X266775380Y-124126369D01*
X268218290Y-124127628D01*
X269551846Y-123576614D01*
X270573028Y-122557213D01*
X271126369Y-121224620D01*
X271127628Y-119781710D01*
X270576614Y-118448154D01*
X269557213Y-117426972D01*
X268224620Y-116873631D01*
X266781710Y-116872372D01*
X265448154Y-117423386D01*
X264426972Y-118442787D01*
X263873631Y-119775380D01*
X263872372Y-121218290D01*
X259993979Y-121218290D01*
X259993979Y-113566979D01*
X259953864Y-113365305D01*
X259839625Y-113194334D01*
X251000760Y-104355469D01*
X269310794Y-104355469D01*
X269491427Y-104792635D01*
X269825606Y-105127397D01*
X270262456Y-105308793D01*
X270735469Y-105309206D01*
X271172635Y-105128573D01*
X271507397Y-104794394D01*
X271688793Y-104357544D01*
X271689206Y-103884531D01*
X271508573Y-103447365D01*
X271174394Y-103112603D01*
X270737544Y-102931207D01*
X270264531Y-102930794D01*
X269827365Y-103111427D01*
X269492603Y-103445606D01*
X269311207Y-103882456D01*
X269310794Y-104355469D01*
X251000760Y-104355469D01*
X248732290Y-102087000D01*
X269422988Y-102087000D01*
X269491427Y-102252635D01*
X269825606Y-102587397D01*
X270262456Y-102768793D01*
X270735469Y-102769206D01*
X271172635Y-102588573D01*
X271507397Y-102254394D01*
X271688793Y-101817544D01*
X271689206Y-101344531D01*
X271508573Y-100907365D01*
X271174394Y-100572603D01*
X270737544Y-100391207D01*
X270264531Y-100390794D01*
X269827365Y-100571427D01*
X269492603Y-100905606D01*
X269423095Y-101073000D01*
X206276474Y-101073000D01*
X208074004Y-99275469D01*
X269310794Y-99275469D01*
X269491427Y-99712635D01*
X269825606Y-100047397D01*
X270262456Y-100228793D01*
X270735469Y-100229206D01*
X271172635Y-100048573D01*
X271507397Y-99714394D01*
X271688793Y-99277544D01*
X271689206Y-98804531D01*
X271508573Y-98367365D01*
X271174394Y-98032603D01*
X270737544Y-97851207D01*
X270264531Y-97850794D01*
X269827365Y-98031427D01*
X269492603Y-98365606D01*
X269311207Y-98802456D01*
X269310794Y-99275469D01*
X208074004Y-99275469D01*
X212094004Y-95255469D01*
X223030794Y-95255469D01*
X223211427Y-95692635D01*
X223545606Y-96027397D01*
X223982456Y-96208793D01*
X224455469Y-96209206D01*
X224892635Y-96028573D01*
X225227397Y-95694394D01*
X225408793Y-95257544D01*
X225409206Y-94784531D01*
X225228573Y-94347365D01*
X225127135Y-94245750D01*
X269103000Y-94245750D01*
X269103000Y-94848310D01*
X269199673Y-95081699D01*
X269378302Y-95260327D01*
X269611691Y-95357000D01*
X270152704Y-95357000D01*
X269827365Y-95491427D01*
X269492603Y-95825606D01*
X269311207Y-96262456D01*
X269310794Y-96735469D01*
X269491427Y-97172635D01*
X269825606Y-97507397D01*
X270262456Y-97688793D01*
X270735469Y-97689206D01*
X271172635Y-97508573D01*
X271507397Y-97174394D01*
X271688793Y-96737544D01*
X271689206Y-96264531D01*
X271508573Y-95827365D01*
X271174394Y-95492603D01*
X270847826Y-95357000D01*
X271388309Y-95357000D01*
X271621698Y-95260327D01*
X271800327Y-95081699D01*
X271897000Y-94848310D01*
X271897000Y-94245750D01*
X271738250Y-94087000D01*
X270627000Y-94087000D01*
X270627000Y-94107000D01*
X270373000Y-94107000D01*
X270373000Y-94087000D01*
X269261750Y-94087000D01*
X269103000Y-94245750D01*
X225127135Y-94245750D01*
X224894394Y-94012603D01*
X224457544Y-93831207D01*
X223984531Y-93830794D01*
X223547365Y-94011427D01*
X223212603Y-94345606D01*
X223031207Y-94782456D01*
X223030794Y-95255469D01*
X212094004Y-95255469D01*
X214277783Y-93071690D01*
X269103000Y-93071690D01*
X269103000Y-93674250D01*
X269261750Y-93833000D01*
X270373000Y-93833000D01*
X270373000Y-93813000D01*
X270627000Y-93813000D01*
X270627000Y-93833000D01*
X271738250Y-93833000D01*
X271897000Y-93674250D01*
X271897000Y-93071690D01*
X271800327Y-92838301D01*
X271621698Y-92659673D01*
X271388309Y-92563000D01*
X270847296Y-92563000D01*
X271172635Y-92428573D01*
X271507397Y-92094394D01*
X271688793Y-91657544D01*
X271689206Y-91184531D01*
X271508573Y-90747365D01*
X271174394Y-90412603D01*
X270737544Y-90231207D01*
X270264531Y-90230794D01*
X269827365Y-90411427D01*
X269492603Y-90745606D01*
X269311207Y-91182456D01*
X269310794Y-91655469D01*
X269491427Y-92092635D01*
X269825606Y-92427397D01*
X270152174Y-92563000D01*
X269611691Y-92563000D01*
X269378302Y-92659673D01*
X269199673Y-92838301D01*
X269103000Y-93071690D01*
X214277783Y-93071690D01*
X215047134Y-92302339D01*
X215141928Y-92397298D01*
X215409034Y-92508211D01*
X215698253Y-92508463D01*
X215965553Y-92398017D01*
X216170239Y-92193687D01*
X216281152Y-91926581D01*
X216281287Y-91771334D01*
X216783503Y-91269118D01*
X216795435Y-91251260D01*
X216893407Y-91104636D01*
X216932000Y-90910615D01*
X216932000Y-87000736D01*
X216928572Y-86983503D01*
X216893408Y-86806716D01*
X216783503Y-86642233D01*
X216668270Y-86527000D01*
X217157947Y-86527000D01*
X217416075Y-86578345D01*
X217599257Y-86700743D01*
X217721655Y-86883925D01*
X217773000Y-87142053D01*
X217773000Y-92450000D01*
X217781204Y-92533302D01*
X217792622Y-92590705D01*
X217856382Y-92744634D01*
X217888898Y-92793297D01*
X218006703Y-92911102D01*
X218055366Y-92943618D01*
X218209295Y-93007378D01*
X218266698Y-93018796D01*
X218350000Y-93027000D01*
X218700000Y-93027000D01*
X218783303Y-93018795D01*
X218974645Y-92980735D01*
X219128572Y-92916976D01*
X219290783Y-92808589D01*
X219408589Y-92690783D01*
X219516976Y-92528572D01*
X219580735Y-92374645D01*
X219618795Y-92183303D01*
X219627000Y-92100000D01*
X219627000Y-89115469D01*
X269310794Y-89115469D01*
X269491427Y-89552635D01*
X269825606Y-89887397D01*
X270262456Y-90068793D01*
X270735469Y-90069206D01*
X271172635Y-89888573D01*
X271507397Y-89554394D01*
X271688793Y-89117544D01*
X271689206Y-88644531D01*
X271508573Y-88207365D01*
X271174394Y-87872603D01*
X270737544Y-87691207D01*
X270264531Y-87690794D01*
X269827365Y-87871427D01*
X269492603Y-88205606D01*
X269311207Y-88642456D01*
X269310794Y-89115469D01*
X219627000Y-89115469D01*
X219627000Y-82755469D01*
X223030794Y-82755469D01*
X223211427Y-83192635D01*
X223545606Y-83527397D01*
X223982456Y-83708793D01*
X224455469Y-83709206D01*
X224892635Y-83528573D01*
X225227397Y-83194394D01*
X225408793Y-82757544D01*
X225409206Y-82284531D01*
X225228573Y-81847365D01*
X224894394Y-81512603D01*
X224457544Y-81331207D01*
X223984531Y-81330794D01*
X223547365Y-81511427D01*
X223212603Y-81845606D01*
X223031207Y-82282456D01*
X223030794Y-82755469D01*
X219627000Y-82755469D01*
X219627000Y-82100000D01*
X219618795Y-82016697D01*
X219542675Y-81634014D01*
X219478918Y-81480089D01*
X219262145Y-81155665D01*
X219144335Y-81037855D01*
X218819911Y-80821082D01*
X218665986Y-80757325D01*
X218283303Y-80681205D01*
X218200000Y-80673000D01*
X215803000Y-80673000D01*
X215803000Y-74901622D01*
X240292666Y-74901622D01*
X240585416Y-75610132D01*
X241127017Y-76152678D01*
X241835014Y-76446665D01*
X242601622Y-76447334D01*
X243310132Y-76154584D01*
X243852678Y-75612983D01*
X244146665Y-74904986D01*
X244147334Y-74138378D01*
X243854584Y-73429868D01*
X243643375Y-73218290D01*
X263872372Y-73218290D01*
X264423386Y-74551846D01*
X265442787Y-75573028D01*
X266775380Y-76126369D01*
X268218290Y-76127628D01*
X269551846Y-75576614D01*
X270573028Y-74557213D01*
X271126369Y-73224620D01*
X271127628Y-71781710D01*
X270576614Y-70448154D01*
X269557213Y-69426972D01*
X268224620Y-68873631D01*
X266781710Y-68872372D01*
X265448154Y-69423386D01*
X264426972Y-70442787D01*
X263873631Y-71775380D01*
X263872372Y-73218290D01*
X243643375Y-73218290D01*
X243312983Y-72887322D01*
X242604986Y-72593335D01*
X241838378Y-72592666D01*
X241129868Y-72885416D01*
X240587322Y-73427017D01*
X240293335Y-74135014D01*
X240292666Y-74901622D01*
X215803000Y-74901622D01*
X215803000Y-74168000D01*
X215694376Y-73621911D01*
X215663436Y-73575606D01*
X215385042Y-73158959D01*
X209548060Y-67321978D01*
X209085108Y-67012643D01*
X209031602Y-67002000D01*
X208539019Y-66904019D01*
X190550825Y-66904019D01*
X190631789Y-66823196D01*
X190745371Y-66549660D01*
X190745629Y-66253479D01*
X190645605Y-66011401D01*
X192438716Y-64218290D01*
X206622372Y-64218290D01*
X207173386Y-65551846D01*
X208192787Y-66573028D01*
X209525380Y-67126369D01*
X210968290Y-67127628D01*
X212301846Y-66576614D01*
X213323028Y-65557213D01*
X213876369Y-64224620D01*
X213877628Y-62781710D01*
X213326614Y-61448154D01*
X212307213Y-60426972D01*
X210974620Y-59873631D01*
X209531710Y-59872372D01*
X208198154Y-60423386D01*
X207176972Y-61442787D01*
X206623631Y-62775380D01*
X206622372Y-64218290D01*
X192438716Y-64218290D01*
X199036941Y-57620065D01*
X199202456Y-57688793D01*
X199675469Y-57689206D01*
X199927401Y-57585110D01*
X199927401Y-58306581D01*
X197941497Y-60292485D01*
X197831593Y-60456967D01*
X197817034Y-60530158D01*
X197669211Y-60677724D01*
X197555629Y-60951260D01*
X197555371Y-61247441D01*
X197668475Y-61521175D01*
X197877724Y-61730789D01*
X198151260Y-61844371D01*
X198447441Y-61844629D01*
X198721175Y-61731525D01*
X198850041Y-61602883D01*
X198977724Y-61730789D01*
X199251260Y-61844371D01*
X199547441Y-61844629D01*
X199821175Y-61731525D01*
X200030789Y-61522276D01*
X200144371Y-61248740D01*
X200144525Y-61072481D01*
X203332904Y-57884102D01*
X203388881Y-57800327D01*
X203442808Y-57719620D01*
X203481401Y-57525599D01*
X203481401Y-56022687D01*
X203479394Y-56012599D01*
X203442809Y-55828667D01*
X203332904Y-55664184D01*
X201810217Y-54141497D01*
X201645735Y-54031593D01*
X201451714Y-53993000D01*
X196360000Y-53993000D01*
X196165979Y-54031593D01*
X196001497Y-54141497D01*
X194763059Y-55379935D01*
X194597544Y-55311207D01*
X194124531Y-55310794D01*
X193687365Y-55491427D01*
X193352603Y-55825606D01*
X193217000Y-56152174D01*
X193217000Y-55611691D01*
X193120327Y-55378302D01*
X192941699Y-55199673D01*
X192708310Y-55103000D01*
X192105750Y-55103000D01*
X191947000Y-55261750D01*
X191947000Y-56373000D01*
X191967000Y-56373000D01*
X191967000Y-56627000D01*
X191947000Y-56627000D01*
X191947000Y-57738250D01*
X192105750Y-57897000D01*
X192708310Y-57897000D01*
X192941699Y-57800327D01*
X193120327Y-57621698D01*
X193217000Y-57388309D01*
X193217000Y-56847296D01*
X193351427Y-57172635D01*
X193685606Y-57507397D01*
X194122456Y-57688793D01*
X194595469Y-57689206D01*
X195032635Y-57508573D01*
X195367397Y-57174394D01*
X195548793Y-56737544D01*
X195549206Y-56264531D01*
X195479990Y-56097016D01*
X196570006Y-55007000D01*
X197852166Y-55007000D01*
X197700380Y-55037192D01*
X197601892Y-55103000D01*
X197535898Y-55147096D01*
X197303059Y-55379935D01*
X197137544Y-55311207D01*
X196664531Y-55310794D01*
X196227365Y-55491427D01*
X195892603Y-55825606D01*
X195711207Y-56262456D01*
X195710794Y-56735469D01*
X195891427Y-57172635D01*
X196225606Y-57507397D01*
X196662456Y-57688793D01*
X197135469Y-57689206D01*
X197572635Y-57508573D01*
X197907397Y-57174394D01*
X198088793Y-56737544D01*
X198089206Y-56264531D01*
X198019990Y-56097016D01*
X198104407Y-56012599D01*
X198354957Y-56012599D01*
X198251207Y-56262456D01*
X198250794Y-56735469D01*
X198320010Y-56902984D01*
X189642497Y-65580497D01*
X189532593Y-65744979D01*
X189514831Y-65834276D01*
X189370211Y-65978644D01*
X189256629Y-66252180D01*
X189256371Y-66548361D01*
X189369475Y-66822095D01*
X189451256Y-66904019D01*
X155509465Y-66904019D01*
X156301846Y-66576614D01*
X157323028Y-65557213D01*
X157876369Y-64224620D01*
X157877628Y-62781710D01*
X157326614Y-61448154D01*
X156307213Y-60426972D01*
X154974620Y-59873631D01*
X153531710Y-59872372D01*
X152198154Y-60423386D01*
X151176972Y-61442787D01*
X150623631Y-62775380D01*
X150622372Y-64218290D01*
X151173386Y-65551846D01*
X152192787Y-66573028D01*
X152989902Y-66904019D01*
X138670101Y-66904019D01*
X136059832Y-64293750D01*
X139979400Y-64293750D01*
X139979400Y-65150309D01*
X140076073Y-65383698D01*
X140254701Y-65562327D01*
X140488090Y-65659000D01*
X141192250Y-65659000D01*
X141351000Y-65500250D01*
X141351000Y-64135000D01*
X140138150Y-64135000D01*
X139979400Y-64293750D01*
X136059832Y-64293750D01*
X135020208Y-63254126D01*
X134819386Y-63052953D01*
X134424545Y-62889001D01*
X139979400Y-62889001D01*
X139979400Y-63722250D01*
X140138150Y-63881000D01*
X141351000Y-63881000D01*
X141351000Y-63861000D01*
X141605000Y-63861000D01*
X141605000Y-63881000D01*
X141625000Y-63881000D01*
X141625000Y-64135000D01*
X141605000Y-64135000D01*
X141605000Y-65500250D01*
X141763750Y-65659000D01*
X142467910Y-65659000D01*
X142701299Y-65562327D01*
X142879927Y-65383698D01*
X142976600Y-65150309D01*
X142976600Y-64968612D01*
X143008959Y-65017041D01*
X143081537Y-65065536D01*
X143105408Y-65101262D01*
X143524109Y-65381029D01*
X144018000Y-65479270D01*
X144511891Y-65381029D01*
X144930592Y-65101262D01*
X144954463Y-65065536D01*
X145027041Y-65017041D01*
X145336376Y-64554089D01*
X145338231Y-64544762D01*
X145365641Y-64682561D01*
X145645408Y-65101262D01*
X146064109Y-65381029D01*
X146558000Y-65479270D01*
X147051891Y-65381029D01*
X147470592Y-65101262D01*
X147750359Y-64682561D01*
X147848600Y-64188670D01*
X147848600Y-63827330D01*
X147750359Y-63333439D01*
X147470592Y-62914738D01*
X147051891Y-62634971D01*
X146558000Y-62536730D01*
X146064109Y-62634971D01*
X145645408Y-62914738D01*
X145445000Y-63214670D01*
X145445000Y-62508398D01*
X145336376Y-61962309D01*
X145027041Y-61499357D01*
X143980644Y-60452960D01*
X143517692Y-60143625D01*
X142971603Y-60035001D01*
X135234155Y-60035001D01*
X135436752Y-59547093D01*
X135437248Y-58979397D01*
X135220457Y-58454725D01*
X134819386Y-58052953D01*
X134295093Y-57835248D01*
X133727397Y-57834752D01*
X133202725Y-58051543D01*
X132800953Y-58452614D01*
X132583248Y-58976907D01*
X132583213Y-59017131D01*
X131820208Y-58254126D01*
X131619386Y-58052953D01*
X131095093Y-57835248D01*
X130527397Y-57834752D01*
X130002725Y-58051543D01*
X129600953Y-58452614D01*
X129383248Y-58976907D01*
X129382752Y-59544603D01*
X129036754Y-59544603D01*
X129037248Y-58979397D01*
X128820457Y-58454725D01*
X128419386Y-58052953D01*
X127895093Y-57835248D01*
X127327397Y-57834752D01*
X126802725Y-58051543D01*
X126400953Y-58452614D01*
X126183248Y-58976907D01*
X126182752Y-59544603D01*
X125836754Y-59544603D01*
X125837248Y-58979397D01*
X125620457Y-58454725D01*
X125219386Y-58052953D01*
X124695093Y-57835248D01*
X124127397Y-57834752D01*
X123602725Y-58051543D01*
X123200953Y-58452614D01*
X122983248Y-58976907D01*
X122982752Y-59544603D01*
X101752000Y-59544603D01*
X101752000Y-56735469D01*
X185550794Y-56735469D01*
X185731427Y-57172635D01*
X186065606Y-57507397D01*
X186502456Y-57688793D01*
X186975469Y-57689206D01*
X187412635Y-57508573D01*
X187747397Y-57174394D01*
X187928793Y-56737544D01*
X187928794Y-56735469D01*
X188090794Y-56735469D01*
X188271427Y-57172635D01*
X188605606Y-57507397D01*
X189042456Y-57688793D01*
X189515469Y-57689206D01*
X189952635Y-57508573D01*
X190287397Y-57174394D01*
X190423000Y-56847826D01*
X190423000Y-57388309D01*
X190519673Y-57621698D01*
X190698301Y-57800327D01*
X190931690Y-57897000D01*
X191534250Y-57897000D01*
X191693000Y-57738250D01*
X191693000Y-56627000D01*
X191673000Y-56627000D01*
X191673000Y-56373000D01*
X191693000Y-56373000D01*
X191693000Y-55261750D01*
X191534250Y-55103000D01*
X190931690Y-55103000D01*
X190698301Y-55199673D01*
X190519673Y-55378302D01*
X190423000Y-55611691D01*
X190423000Y-56152704D01*
X190288573Y-55827365D01*
X189954394Y-55492603D01*
X189517544Y-55311207D01*
X189044531Y-55310794D01*
X188607365Y-55491427D01*
X188272603Y-55825606D01*
X188091207Y-56262456D01*
X188090794Y-56735469D01*
X187928794Y-56735469D01*
X187929206Y-56264531D01*
X187748573Y-55827365D01*
X187414394Y-55492603D01*
X186977544Y-55311207D01*
X186504531Y-55310794D01*
X186067365Y-55491427D01*
X185732603Y-55825606D01*
X185551207Y-56262456D01*
X185550794Y-56735469D01*
X101752000Y-56735469D01*
X101752000Y-56707936D01*
X106457935Y-52002000D01*
X206041573Y-52002000D01*
X220844441Y-66854375D01*
X220844441Y-66854375D01*
G37*
X220844441Y-66854375D02*
X220844794Y-66854612D01*
X220845032Y-66854968D01*
X220926180Y-66909189D01*
X221007119Y-66963467D01*
X221007539Y-66963551D01*
X221007893Y-66963788D01*
X221103243Y-66982754D01*
X221199162Y-67002000D01*
X221199583Y-67001917D01*
X221200000Y-67002000D01*
X240214205Y-67002000D01*
X240480591Y-67646703D01*
X241050298Y-68217405D01*
X241795036Y-68526647D01*
X242601426Y-68527351D01*
X243346703Y-68219409D01*
X243917405Y-67649702D01*
X244186354Y-67002000D01*
X268292064Y-67002000D01*
X272998000Y-71707935D01*
X272998000Y-121292065D01*
X268292064Y-125998000D01*
X244185795Y-125998000D01*
X243919409Y-125353297D01*
X243349702Y-124782595D01*
X242604964Y-124473353D01*
X241798574Y-124472649D01*
X241053297Y-124780591D01*
X240482595Y-125350298D01*
X240213646Y-125998000D01*
X221200000Y-125998000D01*
X221199583Y-125998083D01*
X221199162Y-125998000D01*
X221103243Y-126017246D01*
X221007893Y-126036212D01*
X221007539Y-126036449D01*
X221007119Y-126036533D01*
X220926180Y-126090811D01*
X220845032Y-126145032D01*
X220844794Y-126145388D01*
X220844441Y-126145625D01*
X206041573Y-140998000D01*
X106457935Y-140998000D01*
X103440149Y-137980213D01*
X175679392Y-137980213D01*
X175748857Y-138222397D01*
X176272302Y-138409144D01*
X176827368Y-138381362D01*
X177211143Y-138222397D01*
X177280608Y-137980213D01*
X176480000Y-137179605D01*
X175679392Y-137980213D01*
X103440149Y-137980213D01*
X102252238Y-136792302D01*
X175070856Y-136792302D01*
X175098638Y-137347368D01*
X175257603Y-137731143D01*
X175499787Y-137800608D01*
X176300395Y-137000000D01*
X176659605Y-137000000D01*
X177460213Y-137800608D01*
X177702397Y-137731143D01*
X177856790Y-137298385D01*
X178011427Y-137672635D01*
X178345606Y-138007397D01*
X178782456Y-138188793D01*
X179255469Y-138189206D01*
X179692635Y-138008573D01*
X180027397Y-137674394D01*
X180208793Y-137237544D01*
X180208794Y-137235469D01*
X180370794Y-137235469D01*
X180551427Y-137672635D01*
X180885606Y-138007397D01*
X181322456Y-138188793D01*
X181795469Y-138189206D01*
X182232635Y-138008573D01*
X182567397Y-137674394D01*
X182748793Y-137237544D01*
X182748794Y-137235469D01*
X182910794Y-137235469D01*
X183091427Y-137672635D01*
X183425606Y-138007397D01*
X183862456Y-138188793D01*
X184335469Y-138189206D01*
X184772635Y-138008573D01*
X185107397Y-137674394D01*
X185288793Y-137237544D01*
X185288794Y-137235469D01*
X185450794Y-137235469D01*
X185631427Y-137672635D01*
X185965606Y-138007397D01*
X186402456Y-138188793D01*
X186875469Y-138189206D01*
X187312635Y-138008573D01*
X187647397Y-137674394D01*
X187828793Y-137237544D01*
X187828794Y-137235469D01*
X187990794Y-137235469D01*
X188171427Y-137672635D01*
X188505606Y-138007397D01*
X188942456Y-138188793D01*
X189415469Y-138189206D01*
X189852635Y-138008573D01*
X190187397Y-137674394D01*
X190368793Y-137237544D01*
X190368794Y-137235469D01*
X190530794Y-137235469D01*
X190711427Y-137672635D01*
X191045606Y-138007397D01*
X191482456Y-138188793D01*
X191955469Y-138189206D01*
X192392635Y-138008573D01*
X192421044Y-137980213D01*
X193459392Y-137980213D01*
X193528857Y-138222397D01*
X194052302Y-138409144D01*
X194607368Y-138381362D01*
X194991143Y-138222397D01*
X195060608Y-137980213D01*
X194260000Y-137179605D01*
X193459392Y-137980213D01*
X192421044Y-137980213D01*
X192727397Y-137674394D01*
X192876976Y-137314167D01*
X192878638Y-137347368D01*
X193037603Y-137731143D01*
X193279787Y-137800608D01*
X194080395Y-137000000D01*
X194439605Y-137000000D01*
X195240213Y-137800608D01*
X195482397Y-137731143D01*
X195669144Y-137207698D01*
X195641362Y-136652632D01*
X195482397Y-136268857D01*
X195240213Y-136199392D01*
X194439605Y-137000000D01*
X194080395Y-137000000D01*
X193279787Y-136199392D01*
X193037603Y-136268857D01*
X192883210Y-136701615D01*
X192728573Y-136327365D01*
X192421531Y-136019787D01*
X193459392Y-136019787D01*
X194260000Y-136820395D01*
X195060608Y-136019787D01*
X194991143Y-135777603D01*
X194467698Y-135590856D01*
X193912632Y-135618638D01*
X193528857Y-135777603D01*
X193459392Y-136019787D01*
X192421531Y-136019787D01*
X192394394Y-135992603D01*
X191957544Y-135811207D01*
X191484531Y-135810794D01*
X191047365Y-135991427D01*
X190712603Y-136325606D01*
X190531207Y-136762456D01*
X190530794Y-137235469D01*
X190368794Y-137235469D01*
X190369206Y-136764531D01*
X190188573Y-136327365D01*
X189854394Y-135992603D01*
X189417544Y-135811207D01*
X188944531Y-135810794D01*
X188507365Y-135991427D01*
X188172603Y-136325606D01*
X187991207Y-136762456D01*
X187990794Y-137235469D01*
X187828794Y-137235469D01*
X187829206Y-136764531D01*
X187648573Y-136327365D01*
X187314394Y-135992603D01*
X186877544Y-135811207D01*
X186404531Y-135810794D01*
X185967365Y-135991427D01*
X185632603Y-136325606D01*
X185451207Y-136762456D01*
X185450794Y-137235469D01*
X185288794Y-137235469D01*
X185289206Y-136764531D01*
X185108573Y-136327365D01*
X184774394Y-135992603D01*
X184337544Y-135811207D01*
X183864531Y-135810794D01*
X183427365Y-135991427D01*
X183092603Y-136325606D01*
X182911207Y-136762456D01*
X182910794Y-137235469D01*
X182748794Y-137235469D01*
X182749206Y-136764531D01*
X182568573Y-136327365D01*
X182234394Y-135992603D01*
X181797544Y-135811207D01*
X181324531Y-135810794D01*
X180887365Y-135991427D01*
X180552603Y-136325606D01*
X180371207Y-136762456D01*
X180370794Y-137235469D01*
X180208794Y-137235469D01*
X180209206Y-136764531D01*
X180028573Y-136327365D01*
X179694394Y-135992603D01*
X179257544Y-135811207D01*
X178784531Y-135810794D01*
X178347365Y-135991427D01*
X178012603Y-136325606D01*
X177863024Y-136685833D01*
X177861362Y-136652632D01*
X177702397Y-136268857D01*
X177460213Y-136199392D01*
X176659605Y-137000000D01*
X176300395Y-137000000D01*
X175499787Y-136199392D01*
X175257603Y-136268857D01*
X175070856Y-136792302D01*
X102252238Y-136792302D01*
X101752000Y-136292064D01*
X101752000Y-136019787D01*
X175679392Y-136019787D01*
X176480000Y-136820395D01*
X177280608Y-136019787D01*
X177211143Y-135777603D01*
X176687698Y-135590856D01*
X176132632Y-135618638D01*
X175748857Y-135777603D01*
X175679392Y-136019787D01*
X101752000Y-136019787D01*
X101752000Y-130218290D01*
X103622372Y-130218290D01*
X104173386Y-131551846D01*
X105192787Y-132573028D01*
X106525380Y-133126369D01*
X107968290Y-133127628D01*
X109301846Y-132576614D01*
X110323028Y-131557213D01*
X110876369Y-130224620D01*
X110876374Y-130218290D01*
X150622372Y-130218290D01*
X151173386Y-131551846D01*
X152192787Y-132573028D01*
X153525380Y-133126369D01*
X154968290Y-133127628D01*
X156301846Y-132576614D01*
X157323028Y-131557213D01*
X157876369Y-130224620D01*
X157876374Y-130218290D01*
X206622372Y-130218290D01*
X207173386Y-131551846D01*
X208192787Y-132573028D01*
X209525380Y-133126369D01*
X210968290Y-133127628D01*
X212301846Y-132576614D01*
X213323028Y-131557213D01*
X213876369Y-130224620D01*
X213877628Y-128781710D01*
X213326614Y-127448154D01*
X212307213Y-126426972D01*
X210974620Y-125873631D01*
X209531710Y-125872372D01*
X208198154Y-126423386D01*
X207176972Y-127442787D01*
X206623631Y-128775380D01*
X206622372Y-130218290D01*
X157876374Y-130218290D01*
X157877628Y-128781710D01*
X157326614Y-127448154D01*
X156307213Y-126426972D01*
X154974620Y-125873631D01*
X153531710Y-125872372D01*
X152198154Y-126423386D01*
X151176972Y-127442787D01*
X150623631Y-128775380D01*
X150622372Y-130218290D01*
X110876374Y-130218290D01*
X110877628Y-128781710D01*
X110326614Y-127448154D01*
X109307213Y-126426972D01*
X107974620Y-125873631D01*
X106531710Y-125872372D01*
X105198154Y-126423386D01*
X104176972Y-127442787D01*
X103623631Y-128775380D01*
X103622372Y-130218290D01*
X101752000Y-130218290D01*
X101752000Y-124535469D01*
X175290794Y-124535469D01*
X175471427Y-124972635D01*
X175805606Y-125307397D01*
X176242456Y-125488793D01*
X176715469Y-125489206D01*
X177152635Y-125308573D01*
X177487397Y-124974394D01*
X177668793Y-124537544D01*
X177668794Y-124535469D01*
X177830794Y-124535469D01*
X178011427Y-124972635D01*
X178345606Y-125307397D01*
X178782456Y-125488793D01*
X179255469Y-125489206D01*
X179692635Y-125308573D01*
X180027397Y-124974394D01*
X180208793Y-124537544D01*
X180208794Y-124535469D01*
X180370794Y-124535469D01*
X180551427Y-124972635D01*
X180885606Y-125307397D01*
X181322456Y-125488793D01*
X181795469Y-125489206D01*
X182232635Y-125308573D01*
X182567397Y-124974394D01*
X182748793Y-124537544D01*
X182749206Y-124064531D01*
X182688260Y-123917031D01*
X182694644Y-123910647D01*
X182694646Y-123910644D01*
X183278290Y-123327000D01*
X183391730Y-123327000D01*
X183092603Y-123625606D01*
X182911207Y-124062456D01*
X182910794Y-124535469D01*
X183091427Y-124972635D01*
X183425606Y-125307397D01*
X183862456Y-125488793D01*
X184335469Y-125489206D01*
X184772635Y-125308573D01*
X185107397Y-124974394D01*
X185288793Y-124537544D01*
X185289206Y-124064531D01*
X185108573Y-123627365D01*
X184808731Y-123327000D01*
X184921710Y-123327000D01*
X185511636Y-123916927D01*
X185451207Y-124062456D01*
X185450794Y-124535469D01*
X185631427Y-124972635D01*
X185965606Y-125307397D01*
X186402456Y-125488793D01*
X186875469Y-125489206D01*
X187312635Y-125308573D01*
X187647397Y-124974394D01*
X187828793Y-124537544D01*
X187828794Y-124535469D01*
X187990794Y-124535469D01*
X188171427Y-124972635D01*
X188505606Y-125307397D01*
X188942456Y-125488793D01*
X189415469Y-125489206D01*
X189852635Y-125308573D01*
X190187397Y-124974394D01*
X190368793Y-124537544D01*
X190368794Y-124535469D01*
X190530794Y-124535469D01*
X190711427Y-124972635D01*
X191045606Y-125307397D01*
X191482456Y-125488793D01*
X191955469Y-125489206D01*
X192392635Y-125308573D01*
X192421044Y-125280213D01*
X193459392Y-125280213D01*
X193528857Y-125522397D01*
X194052302Y-125709144D01*
X194607368Y-125681362D01*
X194991143Y-125522397D01*
X195060608Y-125280213D01*
X194260000Y-124479605D01*
X193459392Y-125280213D01*
X192421044Y-125280213D01*
X192727397Y-124974394D01*
X192876976Y-124614167D01*
X192878638Y-124647368D01*
X193037603Y-125031143D01*
X193279787Y-125100608D01*
X194080395Y-124300000D01*
X194439605Y-124300000D01*
X195240213Y-125100608D01*
X195482397Y-125031143D01*
X195669144Y-124507698D01*
X195641362Y-123952632D01*
X195482397Y-123568857D01*
X195240213Y-123499392D01*
X194439605Y-124300000D01*
X194080395Y-124300000D01*
X193279787Y-123499392D01*
X193037603Y-123568857D01*
X192883210Y-124001615D01*
X192728573Y-123627365D01*
X192421531Y-123319787D01*
X193459392Y-123319787D01*
X194260000Y-124120395D01*
X195060608Y-123319787D01*
X194991143Y-123077603D01*
X194467698Y-122890856D01*
X193912632Y-122918638D01*
X193528857Y-123077603D01*
X193459392Y-123319787D01*
X192421531Y-123319787D01*
X192394394Y-123292603D01*
X191957544Y-123111207D01*
X191484531Y-123110794D01*
X191047365Y-123291427D01*
X190712603Y-123625606D01*
X190531207Y-124062456D01*
X190530794Y-124535469D01*
X190368794Y-124535469D01*
X190369206Y-124064531D01*
X190188573Y-123627365D01*
X189854394Y-123292603D01*
X189417544Y-123111207D01*
X188944531Y-123110794D01*
X188507365Y-123291427D01*
X188172603Y-123625606D01*
X187991207Y-124062456D01*
X187990794Y-124535469D01*
X187828794Y-124535469D01*
X187829206Y-124064531D01*
X187648573Y-123627365D01*
X187314394Y-123292603D01*
X186877544Y-123111207D01*
X186404531Y-123110794D01*
X186257030Y-123171740D01*
X185512645Y-122427355D01*
X185341675Y-122313115D01*
X185216664Y-122288249D01*
X250548014Y-122288249D01*
X250548014Y-124320249D01*
X250577788Y-124478486D01*
X250671306Y-124623816D01*
X250813998Y-124721313D01*
X250983379Y-124755614D01*
X252710579Y-124755614D01*
X252868816Y-124725840D01*
X253014146Y-124632322D01*
X253111643Y-124489630D01*
X253145944Y-124320249D01*
X253145944Y-124275560D01*
X253484943Y-124654981D01*
X254012188Y-124908958D01*
X254027953Y-124911607D01*
X254259979Y-124790466D01*
X254259979Y-123431249D01*
X254239979Y-123431249D01*
X254239979Y-123177249D01*
X254259979Y-123177249D01*
X254259979Y-121818032D01*
X254027953Y-121696891D01*
X254012188Y-121699540D01*
X253484943Y-121953517D01*
X253145944Y-122332938D01*
X253145944Y-122288249D01*
X253116170Y-122130012D01*
X253022652Y-121984682D01*
X252879960Y-121887185D01*
X252710579Y-121852884D01*
X250983379Y-121852884D01*
X250825142Y-121882658D01*
X250679812Y-121976176D01*
X250582315Y-122118868D01*
X250548014Y-122288249D01*
X185216664Y-122288249D01*
X185140000Y-122273000D01*
X183060000Y-122273000D01*
X182858325Y-122313115D01*
X182687355Y-122427355D01*
X181949356Y-123165354D01*
X181949353Y-123165356D01*
X181943073Y-123171636D01*
X181797544Y-123111207D01*
X181324531Y-123110794D01*
X180887365Y-123291427D01*
X180552603Y-123625606D01*
X180371207Y-124062456D01*
X180370794Y-124535469D01*
X180208794Y-124535469D01*
X180209206Y-124064531D01*
X180028573Y-123627365D01*
X179694394Y-123292603D01*
X179257544Y-123111207D01*
X178784531Y-123110794D01*
X178347365Y-123291427D01*
X178012603Y-123625606D01*
X177831207Y-124062456D01*
X177830794Y-124535469D01*
X177668794Y-124535469D01*
X177669206Y-124064531D01*
X177488573Y-123627365D01*
X177154394Y-123292603D01*
X176717544Y-123111207D01*
X176244531Y-123110794D01*
X175807365Y-123291427D01*
X175472603Y-123625606D01*
X175291207Y-124062456D01*
X175290794Y-124535469D01*
X101752000Y-124535469D01*
X101752000Y-121500005D01*
X101752001Y-121500000D01*
X101713788Y-121307893D01*
X101611350Y-121154584D01*
X101604968Y-121145032D01*
X101604965Y-121145030D01*
X100361558Y-119901622D01*
X240292666Y-119901622D01*
X240585416Y-120610132D01*
X241127017Y-121152678D01*
X241835014Y-121446665D01*
X242601622Y-121447334D01*
X243310132Y-121154584D01*
X243852678Y-120612983D01*
X244146665Y-119904986D01*
X244147334Y-119138378D01*
X243854584Y-118429868D01*
X243312983Y-117887322D01*
X242604986Y-117593335D01*
X241838378Y-117592666D01*
X241129868Y-117885416D01*
X240587322Y-118427017D01*
X240293335Y-119135014D01*
X240292666Y-119901622D01*
X100361558Y-119901622D01*
X96604968Y-116145032D01*
X96442107Y-116036212D01*
X96250000Y-115997999D01*
X96249995Y-115998000D01*
X58741099Y-115998000D01*
X58779045Y-115972645D01*
X62790852Y-111960838D01*
X64922597Y-111960838D01*
X65276115Y-112816418D01*
X65930139Y-113471585D01*
X66785100Y-113826596D01*
X67710838Y-113827403D01*
X68566418Y-113473885D01*
X69221585Y-112819861D01*
X69576596Y-111964900D01*
X69576599Y-111960838D01*
X72922597Y-111960838D01*
X73276115Y-112816418D01*
X73930139Y-113471585D01*
X74785100Y-113826596D01*
X75710838Y-113827403D01*
X76566418Y-113473885D01*
X77221585Y-112819861D01*
X77576596Y-111964900D01*
X77577403Y-111039162D01*
X77223885Y-110183582D01*
X76569861Y-109528415D01*
X75714900Y-109173404D01*
X74789162Y-109172597D01*
X73933582Y-109526115D01*
X73278415Y-110180139D01*
X72923404Y-111035100D01*
X72922597Y-111960838D01*
X69576599Y-111960838D01*
X69577403Y-111039162D01*
X69223885Y-110183582D01*
X68569861Y-109528415D01*
X67714900Y-109173404D01*
X66789162Y-109172597D01*
X65933582Y-109526115D01*
X65278415Y-110180139D01*
X64923404Y-111035100D01*
X64922597Y-111960838D01*
X62790852Y-111960838D01*
X65649690Y-109102000D01*
X142826920Y-109102000D01*
X143028595Y-109061885D01*
X143199565Y-108947645D01*
X143647210Y-108500000D01*
X155572105Y-108500000D01*
X155665505Y-108969553D01*
X155931485Y-109367620D01*
X156329552Y-109633600D01*
X156799105Y-109727000D01*
X157560895Y-109727000D01*
X158030448Y-109633600D01*
X158428515Y-109367620D01*
X158694495Y-108969553D01*
X158787895Y-108500000D01*
X158694495Y-108030447D01*
X158428515Y-107632380D01*
X158030448Y-107366400D01*
X157560895Y-107273000D01*
X156799105Y-107273000D01*
X156329552Y-107366400D01*
X155931485Y-107632380D01*
X155665505Y-108030447D01*
X155572105Y-108500000D01*
X143647210Y-108500000D01*
X148220210Y-103927000D01*
X155690526Y-103927000D01*
X155931485Y-104287620D01*
X156329552Y-104553600D01*
X156799105Y-104647000D01*
X157560895Y-104647000D01*
X158030448Y-104553600D01*
X158428515Y-104287620D01*
X158694495Y-103889553D01*
X158718466Y-103769039D01*
X163058096Y-103769039D01*
X163075633Y-103851819D01*
X163345500Y-104344896D01*
X163783517Y-104697166D01*
X164113665Y-104793756D01*
X163949552Y-104826400D01*
X163551485Y-105092380D01*
X163285505Y-105490447D01*
X163192105Y-105960000D01*
X163285505Y-106429553D01*
X163551485Y-106827620D01*
X163949552Y-107093600D01*
X164419105Y-107187000D01*
X165180895Y-107187000D01*
X165650448Y-107093600D01*
X166048515Y-106827620D01*
X166314495Y-106429553D01*
X166407895Y-105960000D01*
X166314495Y-105490447D01*
X166048515Y-105092380D01*
X165650448Y-104826400D01*
X165486335Y-104793756D01*
X165816483Y-104697166D01*
X166254500Y-104344896D01*
X166524367Y-103851819D01*
X166541904Y-103769039D01*
X166419915Y-103547000D01*
X164927000Y-103547000D01*
X164927000Y-103567000D01*
X164673000Y-103567000D01*
X164673000Y-103547000D01*
X163180085Y-103547000D01*
X163058096Y-103769039D01*
X158718466Y-103769039D01*
X158787895Y-103420000D01*
X158694495Y-102950447D01*
X158428515Y-102552380D01*
X158030448Y-102286400D01*
X157560895Y-102193000D01*
X156799105Y-102193000D01*
X156329552Y-102286400D01*
X155931485Y-102552380D01*
X155690526Y-102913000D01*
X148735827Y-102913000D01*
X150261827Y-101387000D01*
X155690526Y-101387000D01*
X155931485Y-101747620D01*
X156329552Y-102013600D01*
X156799105Y-102107000D01*
X157560895Y-102107000D01*
X158030448Y-102013600D01*
X158428515Y-101747620D01*
X158694495Y-101349553D01*
X158718466Y-101229039D01*
X163058096Y-101229039D01*
X163075633Y-101311819D01*
X163345500Y-101804896D01*
X163774607Y-102150000D01*
X163345500Y-102495104D01*
X163075633Y-102988181D01*
X163058096Y-103070961D01*
X163180085Y-103293000D01*
X164673000Y-103293000D01*
X164673000Y-101007000D01*
X164927000Y-101007000D01*
X164927000Y-103293000D01*
X166419915Y-103293000D01*
X166541904Y-103070961D01*
X166524367Y-102988181D01*
X166254500Y-102495104D01*
X165825393Y-102150000D01*
X166254500Y-101804896D01*
X166524367Y-101311819D01*
X166541904Y-101229039D01*
X166419915Y-101007000D01*
X164927000Y-101007000D01*
X164673000Y-101007000D01*
X163180085Y-101007000D01*
X163058096Y-101229039D01*
X158718466Y-101229039D01*
X158787895Y-100880000D01*
X158694495Y-100410447D01*
X158428515Y-100012380D01*
X158030448Y-99746400D01*
X157560895Y-99653000D01*
X156799105Y-99653000D01*
X156329552Y-99746400D01*
X155931485Y-100012380D01*
X155690526Y-100373000D01*
X150777442Y-100373000D01*
X152303442Y-98847000D01*
X155690526Y-98847000D01*
X155931485Y-99207620D01*
X156329552Y-99473600D01*
X156799105Y-99567000D01*
X157560895Y-99567000D01*
X158030448Y-99473600D01*
X158428515Y-99207620D01*
X158694495Y-98809553D01*
X158718466Y-98689039D01*
X163058096Y-98689039D01*
X163075633Y-98771819D01*
X163345500Y-99264896D01*
X163774607Y-99610000D01*
X163345500Y-99955104D01*
X163075633Y-100448181D01*
X163058096Y-100530961D01*
X163180085Y-100753000D01*
X164673000Y-100753000D01*
X164673000Y-98467000D01*
X164927000Y-98467000D01*
X164927000Y-100753000D01*
X166419915Y-100753000D01*
X166541904Y-100530961D01*
X166524367Y-100448181D01*
X166254500Y-99955104D01*
X165825393Y-99610000D01*
X166254500Y-99264896D01*
X166524367Y-98771819D01*
X166541904Y-98689039D01*
X166419915Y-98467000D01*
X164927000Y-98467000D01*
X164673000Y-98467000D01*
X163180085Y-98467000D01*
X163058096Y-98689039D01*
X158718466Y-98689039D01*
X158787895Y-98340000D01*
X158718467Y-97990961D01*
X163058096Y-97990961D01*
X163180085Y-98213000D01*
X164673000Y-98213000D01*
X164673000Y-98193000D01*
X164927000Y-98193000D01*
X164927000Y-98213000D01*
X166419915Y-98213000D01*
X166541904Y-97990961D01*
X166524367Y-97908181D01*
X166254500Y-97415104D01*
X165816483Y-97062834D01*
X165486335Y-96966244D01*
X165650448Y-96933600D01*
X166048515Y-96667620D01*
X166314495Y-96269553D01*
X166407895Y-95800000D01*
X166314495Y-95330447D01*
X166048515Y-94932380D01*
X165650448Y-94666400D01*
X165180895Y-94573000D01*
X164419105Y-94573000D01*
X163949552Y-94666400D01*
X163551485Y-94932380D01*
X163285505Y-95330447D01*
X163192105Y-95800000D01*
X163285505Y-96269553D01*
X163551485Y-96667620D01*
X163949552Y-96933600D01*
X164113665Y-96966244D01*
X163783517Y-97062834D01*
X163345500Y-97415104D01*
X163075633Y-97908181D01*
X163058096Y-97990961D01*
X158718467Y-97990961D01*
X158694495Y-97870447D01*
X158428515Y-97472380D01*
X158030448Y-97206400D01*
X157560895Y-97113000D01*
X156799105Y-97113000D01*
X156329552Y-97206400D01*
X155931485Y-97472380D01*
X155690526Y-97833000D01*
X152065152Y-97833000D01*
X151871131Y-97871593D01*
X151811326Y-97911554D01*
X151803477Y-97913115D01*
X151632507Y-98027355D01*
X142411884Y-107247978D01*
X65100022Y-107247978D01*
X64931807Y-107281438D01*
X64898347Y-107288093D01*
X64727377Y-107402333D01*
X57856732Y-114272978D01*
X57133795Y-114272978D01*
X57248702Y-114158271D01*
X57430098Y-113721421D01*
X57430511Y-113248408D01*
X57249878Y-112811242D01*
X56915699Y-112476480D01*
X56478849Y-112295084D01*
X56005836Y-112294671D01*
X55568670Y-112475304D01*
X55233908Y-112809483D01*
X55052512Y-113246333D01*
X55052099Y-113719346D01*
X55232732Y-114156512D01*
X55348995Y-114272978D01*
X55149668Y-114272978D01*
X51234634Y-110357944D01*
X52347081Y-110357944D01*
X52547799Y-110644599D01*
X52692695Y-110851532D01*
X52905752Y-110987264D01*
X53154533Y-111031130D01*
X53401163Y-110976454D01*
X53829242Y-110676710D01*
X53777024Y-110728837D01*
X53595628Y-111165687D01*
X53595215Y-111638700D01*
X53775848Y-112075866D01*
X54110027Y-112410628D01*
X54546877Y-112592024D01*
X55019890Y-112592437D01*
X55457056Y-112411804D01*
X55791818Y-112077625D01*
X55973214Y-111640775D01*
X55973627Y-111167762D01*
X55792994Y-110730596D01*
X55458815Y-110395834D01*
X55021965Y-110214438D01*
X54548952Y-110214025D01*
X54405191Y-110273426D01*
X54856483Y-109957427D01*
X54992215Y-109744371D01*
X55036083Y-109495590D01*
X54981406Y-109248960D01*
X54836510Y-109042026D01*
X54635792Y-108755371D01*
X54414696Y-108716386D01*
X53504414Y-109353773D01*
X53515886Y-109370156D01*
X53307820Y-109515845D01*
X53296349Y-109499462D01*
X52386066Y-110136848D01*
X52347081Y-110357944D01*
X51234634Y-110357944D01*
X48721885Y-107845195D01*
X48721885Y-106502531D01*
X49851615Y-107632261D01*
X50030697Y-107751920D01*
X50241938Y-107793938D01*
X50812235Y-107793938D01*
X50862080Y-107914573D01*
X51196259Y-108249335D01*
X51633109Y-108430731D01*
X52106122Y-108431144D01*
X52249887Y-108371742D01*
X51798591Y-108687743D01*
X51662859Y-108900799D01*
X51618991Y-109149580D01*
X51673668Y-109396210D01*
X51818564Y-109603144D01*
X52019282Y-109889799D01*
X52240378Y-109928784D01*
X53150660Y-109291397D01*
X53139188Y-109275014D01*
X53347254Y-109129325D01*
X53358725Y-109145708D01*
X54269008Y-108508322D01*
X54307993Y-108287226D01*
X54107275Y-108000571D01*
X53962379Y-107793638D01*
X53749322Y-107657906D01*
X53500541Y-107614040D01*
X53253911Y-107668716D01*
X52825828Y-107968463D01*
X52878050Y-107916332D01*
X53059446Y-107479482D01*
X53059859Y-107006469D01*
X52879226Y-106569303D01*
X52545047Y-106234541D01*
X52108197Y-106053145D01*
X51635184Y-106052732D01*
X51198018Y-106233365D01*
X50863256Y-106567544D01*
X50812434Y-106689938D01*
X50470584Y-106689938D01*
X50098427Y-106317781D01*
X50176224Y-106350085D01*
X50649237Y-106350498D01*
X51086403Y-106169865D01*
X51421165Y-105835686D01*
X51602561Y-105398836D01*
X51602974Y-104925823D01*
X51452000Y-104560437D01*
X51452000Y-94245750D01*
X51849000Y-94245750D01*
X51849000Y-94949910D01*
X51945673Y-95183299D01*
X52124302Y-95361927D01*
X52357691Y-95458600D01*
X52539388Y-95458600D01*
X52490959Y-95490959D01*
X52442464Y-95563537D01*
X52406738Y-95587408D01*
X52126971Y-96006109D01*
X52028730Y-96500000D01*
X52126971Y-96993891D01*
X52406738Y-97412592D01*
X52442464Y-97436463D01*
X52490959Y-97509041D01*
X52953911Y-97818376D01*
X52963238Y-97820231D01*
X52825439Y-97847641D01*
X52406738Y-98127408D01*
X52126971Y-98546109D01*
X52028730Y-99040000D01*
X52126971Y-99533891D01*
X52406738Y-99952592D01*
X52825439Y-100232359D01*
X53319330Y-100330600D01*
X53680670Y-100330600D01*
X54174561Y-100232359D01*
X54593262Y-99952592D01*
X54873029Y-99533891D01*
X54971270Y-99040000D01*
X54873029Y-98546109D01*
X54593262Y-98127408D01*
X54293330Y-97927000D01*
X56516000Y-97927000D01*
X57062089Y-97818376D01*
X57525041Y-97509041D01*
X59234082Y-95800000D01*
X155572105Y-95800000D01*
X155665505Y-96269553D01*
X155931485Y-96667620D01*
X156329552Y-96933600D01*
X156799105Y-97027000D01*
X157560895Y-97027000D01*
X158030448Y-96933600D01*
X158428515Y-96667620D01*
X158694495Y-96269553D01*
X158696363Y-96260160D01*
X158848503Y-96158503D01*
X160158503Y-94848503D01*
X160209190Y-94772645D01*
X160268407Y-94684021D01*
X160307000Y-94490000D01*
X160307000Y-93260000D01*
X163192105Y-93260000D01*
X163285505Y-93729553D01*
X163551485Y-94127620D01*
X163949552Y-94393600D01*
X164419105Y-94487000D01*
X165180895Y-94487000D01*
X165650448Y-94393600D01*
X166048515Y-94127620D01*
X166314495Y-93729553D01*
X166360800Y-93496761D01*
X174311182Y-93496761D01*
X174455810Y-93846787D01*
X174723378Y-94114823D01*
X175073152Y-94260062D01*
X175451881Y-94260392D01*
X175801907Y-94115764D01*
X176069943Y-93848196D01*
X176215182Y-93498422D01*
X176215512Y-93119693D01*
X176070884Y-92769667D01*
X175803316Y-92501631D01*
X175453542Y-92356392D01*
X175074813Y-92356062D01*
X174724787Y-92500690D01*
X174456751Y-92768258D01*
X174311512Y-93118032D01*
X174311182Y-93496761D01*
X166360800Y-93496761D01*
X166407895Y-93260000D01*
X166314495Y-92790447D01*
X166048515Y-92392380D01*
X165650448Y-92126400D01*
X165180895Y-92033000D01*
X164419105Y-92033000D01*
X163949552Y-92126400D01*
X163551485Y-92392380D01*
X163285505Y-92790447D01*
X163192105Y-93260000D01*
X160307000Y-93260000D01*
X160307000Y-88529039D01*
X163058096Y-88529039D01*
X163075633Y-88611819D01*
X163345500Y-89104896D01*
X163783517Y-89457166D01*
X164113665Y-89553756D01*
X163949552Y-89586400D01*
X163551485Y-89852380D01*
X163285505Y-90250447D01*
X163192105Y-90720000D01*
X163285505Y-91189553D01*
X163551485Y-91587620D01*
X163949552Y-91853600D01*
X164419105Y-91947000D01*
X165180895Y-91947000D01*
X165650448Y-91853600D01*
X166048515Y-91587620D01*
X166109225Y-91496761D01*
X174311182Y-91496761D01*
X174455810Y-91846787D01*
X174723378Y-92114823D01*
X175073152Y-92260062D01*
X175451881Y-92260392D01*
X175801907Y-92115764D01*
X176069943Y-91848196D01*
X176215182Y-91498422D01*
X176215512Y-91119693D01*
X176070884Y-90769667D01*
X175803316Y-90501631D01*
X175453542Y-90356392D01*
X175074813Y-90356062D01*
X174724787Y-90500690D01*
X174456751Y-90768258D01*
X174311512Y-91118032D01*
X174311182Y-91496761D01*
X166109225Y-91496761D01*
X166314495Y-91189553D01*
X166407895Y-90720000D01*
X166314495Y-90250447D01*
X166048515Y-89852380D01*
X165650448Y-89586400D01*
X165486335Y-89553756D01*
X165681145Y-89496761D01*
X174311182Y-89496761D01*
X174455810Y-89846787D01*
X174723378Y-90114823D01*
X175073152Y-90260062D01*
X175451881Y-90260392D01*
X175801907Y-90115764D01*
X176069943Y-89848196D01*
X176215182Y-89498422D01*
X176215512Y-89119693D01*
X176070884Y-88769667D01*
X175803316Y-88501631D01*
X175453542Y-88356392D01*
X175074813Y-88356062D01*
X174724787Y-88500690D01*
X174456751Y-88768258D01*
X174311512Y-89118032D01*
X174311182Y-89496761D01*
X165681145Y-89496761D01*
X165816483Y-89457166D01*
X166254500Y-89104896D01*
X166524367Y-88611819D01*
X166541904Y-88529039D01*
X166419915Y-88307000D01*
X164927000Y-88307000D01*
X164927000Y-88327000D01*
X164673000Y-88327000D01*
X164673000Y-88307000D01*
X163180085Y-88307000D01*
X163058096Y-88529039D01*
X160307000Y-88529039D01*
X160307000Y-87830961D01*
X163058096Y-87830961D01*
X163180085Y-88053000D01*
X164673000Y-88053000D01*
X164673000Y-86745000D01*
X164927000Y-86745000D01*
X164927000Y-88053000D01*
X166419915Y-88053000D01*
X166541904Y-87830961D01*
X166524367Y-87748181D01*
X166254500Y-87255104D01*
X165816483Y-86902834D01*
X165277000Y-86745000D01*
X164927000Y-86745000D01*
X164673000Y-86745000D01*
X164323000Y-86745000D01*
X163783517Y-86902834D01*
X163345500Y-87255104D01*
X163075633Y-87748181D01*
X163058096Y-87830961D01*
X160307000Y-87830961D01*
X160307000Y-85210006D01*
X162310006Y-83207000D01*
X164374007Y-83207000D01*
X164355629Y-83251260D01*
X164355371Y-83547441D01*
X164468475Y-83821175D01*
X164677724Y-84030789D01*
X164951260Y-84144371D01*
X165127519Y-84144525D01*
X167855523Y-86872529D01*
X167855371Y-87047441D01*
X167968475Y-87321175D01*
X168177724Y-87530789D01*
X168451260Y-87644371D01*
X168747441Y-87644629D01*
X169021175Y-87531525D01*
X169230789Y-87322276D01*
X169263134Y-87244381D01*
X169547441Y-87244629D01*
X169821175Y-87131525D01*
X170030789Y-86922276D01*
X170088527Y-86783227D01*
X174302982Y-86783227D01*
X174302982Y-87833227D01*
X174332756Y-87991464D01*
X174426274Y-88136794D01*
X174568966Y-88234291D01*
X174738347Y-88268592D01*
X175788347Y-88268592D01*
X175946584Y-88238818D01*
X176091914Y-88145300D01*
X176189411Y-88002608D01*
X176223712Y-87833227D01*
X176223712Y-86783227D01*
X176193938Y-86624990D01*
X176100420Y-86479660D01*
X175957728Y-86382163D01*
X175788347Y-86347862D01*
X174738347Y-86347862D01*
X174580110Y-86377636D01*
X174434780Y-86471154D01*
X174337283Y-86613846D01*
X174302982Y-86783227D01*
X170088527Y-86783227D01*
X170144371Y-86648740D01*
X170144629Y-86352559D01*
X170031525Y-86078825D01*
X169822276Y-85869211D01*
X169548740Y-85755629D01*
X169372481Y-85755475D01*
X167044477Y-83427471D01*
X167044629Y-83252559D01*
X167025805Y-83207000D01*
X173701920Y-83207000D01*
X173895941Y-83168407D01*
X174060423Y-83058503D01*
X185373529Y-71745397D01*
X185548441Y-71745549D01*
X185822175Y-71632445D01*
X186031789Y-71423196D01*
X186145371Y-71149660D01*
X186145629Y-70853479D01*
X186032525Y-70579745D01*
X185823276Y-70370131D01*
X185549740Y-70256549D01*
X185253559Y-70256291D01*
X184979825Y-70369395D01*
X184770211Y-70578644D01*
X184656629Y-70852180D01*
X184656475Y-71028439D01*
X173491914Y-82193000D01*
X162100000Y-82193000D01*
X161905979Y-82231593D01*
X161741497Y-82341497D01*
X159441497Y-84641497D01*
X159331593Y-84805979D01*
X159293000Y-85000000D01*
X159293000Y-94279994D01*
X158513470Y-95059524D01*
X158428515Y-94932380D01*
X158030448Y-94666400D01*
X157560895Y-94573000D01*
X156799105Y-94573000D01*
X156329552Y-94666400D01*
X155931485Y-94932380D01*
X155665505Y-95330447D01*
X155572105Y-95800000D01*
X59234082Y-95800000D01*
X61774082Y-93260000D01*
X155572105Y-93260000D01*
X155665505Y-93729553D01*
X155931485Y-94127620D01*
X156329552Y-94393600D01*
X156799105Y-94487000D01*
X157560895Y-94487000D01*
X158030448Y-94393600D01*
X158428515Y-94127620D01*
X158694495Y-93729553D01*
X158787895Y-93260000D01*
X158694495Y-92790447D01*
X158428515Y-92392380D01*
X158030448Y-92126400D01*
X157560895Y-92033000D01*
X156799105Y-92033000D01*
X156329552Y-92126400D01*
X155931485Y-92392380D01*
X155665505Y-92790447D01*
X155572105Y-93260000D01*
X61774082Y-93260000D01*
X64314082Y-90720000D01*
X155572105Y-90720000D01*
X155665505Y-91189553D01*
X155931485Y-91587620D01*
X156329552Y-91853600D01*
X156799105Y-91947000D01*
X157560895Y-91947000D01*
X158030448Y-91853600D01*
X158428515Y-91587620D01*
X158694495Y-91189553D01*
X158787895Y-90720000D01*
X158694495Y-90250447D01*
X158428515Y-89852380D01*
X158030448Y-89586400D01*
X157560895Y-89493000D01*
X156799105Y-89493000D01*
X156329552Y-89586400D01*
X155931485Y-89852380D01*
X155665505Y-90250447D01*
X155572105Y-90720000D01*
X64314082Y-90720000D01*
X66357083Y-88677000D01*
X147051920Y-88677000D01*
X147598009Y-88568376D01*
X148060961Y-88259041D01*
X148140002Y-88180000D01*
X155572105Y-88180000D01*
X155665505Y-88649553D01*
X155931485Y-89047620D01*
X156329552Y-89313600D01*
X156799105Y-89407000D01*
X157560895Y-89407000D01*
X158030448Y-89313600D01*
X158428515Y-89047620D01*
X158694495Y-88649553D01*
X158787895Y-88180000D01*
X158694495Y-87710447D01*
X158428515Y-87312380D01*
X158030448Y-87046400D01*
X157560895Y-86953000D01*
X156799105Y-86953000D01*
X156329552Y-87046400D01*
X155931485Y-87312380D01*
X155665505Y-87710447D01*
X155572105Y-88180000D01*
X148140002Y-88180000D01*
X152780976Y-83539026D01*
X155792642Y-83539026D01*
X155795291Y-83554791D01*
X156049268Y-84082036D01*
X156485680Y-84471954D01*
X157038087Y-84665184D01*
X157273000Y-84520924D01*
X157273000Y-83307000D01*
X157527000Y-83307000D01*
X157527000Y-84520924D01*
X157761913Y-84665184D01*
X158314320Y-84471954D01*
X158750732Y-84082036D01*
X159004709Y-83554791D01*
X159007358Y-83539026D01*
X158886217Y-83307000D01*
X157527000Y-83307000D01*
X157273000Y-83307000D01*
X155913783Y-83307000D01*
X155792642Y-83539026D01*
X152780976Y-83539026D01*
X154253003Y-82067000D01*
X156285387Y-82067000D01*
X156049268Y-82277964D01*
X155795291Y-82805209D01*
X155792642Y-82820974D01*
X155913783Y-83053000D01*
X157273000Y-83053000D01*
X157273000Y-83033000D01*
X157527000Y-83033000D01*
X157527000Y-83053000D01*
X158886217Y-83053000D01*
X159007358Y-82820974D01*
X159004709Y-82805209D01*
X158750732Y-82277964D01*
X158514613Y-82067000D01*
X165218000Y-82067000D01*
X165764089Y-81958376D01*
X166227041Y-81649041D01*
X172617042Y-75259041D01*
X172751000Y-75058558D01*
X172751000Y-75138309D01*
X172847673Y-75371698D01*
X173026301Y-75550327D01*
X173259690Y-75647000D01*
X173862250Y-75647000D01*
X174021000Y-75488250D01*
X174021000Y-74377000D01*
X174001000Y-74377000D01*
X174001000Y-74123000D01*
X174021000Y-74123000D01*
X174021000Y-73011750D01*
X174275000Y-73011750D01*
X174275000Y-74123000D01*
X174295000Y-74123000D01*
X174295000Y-74377000D01*
X174275000Y-74377000D01*
X174275000Y-75488250D01*
X174433750Y-75647000D01*
X175036310Y-75647000D01*
X175269699Y-75550327D01*
X175448327Y-75371698D01*
X175545000Y-75138309D01*
X175545000Y-74597296D01*
X175679427Y-74922635D01*
X176013606Y-75257397D01*
X176450456Y-75438793D01*
X176923469Y-75439206D01*
X177360635Y-75258573D01*
X177695397Y-74924394D01*
X177876793Y-74487544D01*
X177876794Y-74485469D01*
X178038794Y-74485469D01*
X178219427Y-74922635D01*
X178553606Y-75257397D01*
X178990456Y-75438793D01*
X179463469Y-75439206D01*
X179900635Y-75258573D01*
X180235397Y-74924394D01*
X180416793Y-74487544D01*
X180417206Y-74014531D01*
X180236573Y-73577365D01*
X179902394Y-73242603D01*
X179465544Y-73061207D01*
X178992531Y-73060794D01*
X178555365Y-73241427D01*
X178220603Y-73575606D01*
X178039207Y-74012456D01*
X178038794Y-74485469D01*
X177876794Y-74485469D01*
X177877206Y-74014531D01*
X177696573Y-73577365D01*
X177362394Y-73242603D01*
X176925544Y-73061207D01*
X176452531Y-73060794D01*
X176015365Y-73241427D01*
X175680603Y-73575606D01*
X175545000Y-73902174D01*
X175545000Y-73361691D01*
X175448327Y-73128302D01*
X175269699Y-72949673D01*
X175036310Y-72853000D01*
X174433750Y-72853000D01*
X174275000Y-73011750D01*
X174021000Y-73011750D01*
X173862250Y-72853000D01*
X173259690Y-72853000D01*
X173026301Y-72949673D01*
X172847673Y-73128302D01*
X172751000Y-73361691D01*
X172751000Y-73441441D01*
X172617042Y-73240958D01*
X172154090Y-72931624D01*
X171608000Y-72823000D01*
X171061911Y-72931624D01*
X170598959Y-73240958D01*
X164626918Y-79213000D01*
X158193330Y-79213000D01*
X158493262Y-79012592D01*
X158773029Y-78593891D01*
X158871270Y-78100000D01*
X158773029Y-77606109D01*
X158493262Y-77187408D01*
X158074561Y-76907641D01*
X157829850Y-76858965D01*
X158416000Y-76858965D01*
X158574237Y-76829191D01*
X158719567Y-76735673D01*
X158817064Y-76592981D01*
X158851365Y-76423600D01*
X158851365Y-74696400D01*
X158821591Y-74538163D01*
X158728073Y-74392833D01*
X158585381Y-74295336D01*
X158416000Y-74261035D01*
X156384000Y-74261035D01*
X156225763Y-74290809D01*
X156080433Y-74384327D01*
X155982936Y-74527019D01*
X155948635Y-74696400D01*
X155948635Y-76423600D01*
X155978409Y-76581837D01*
X156071927Y-76727167D01*
X156214619Y-76824664D01*
X156384000Y-76858965D01*
X156970150Y-76858965D01*
X156725439Y-76907641D01*
X156306738Y-77187408D01*
X156026971Y-77606109D01*
X155928730Y-78100000D01*
X156026971Y-78593891D01*
X156306738Y-79012592D01*
X156606670Y-79213000D01*
X153661920Y-79213000D01*
X153115831Y-79321624D01*
X152652879Y-79630958D01*
X146460838Y-85823000D01*
X65766000Y-85823000D01*
X65388317Y-85898126D01*
X65219910Y-85931624D01*
X64756958Y-86240959D01*
X55924918Y-95073000D01*
X55100014Y-95073000D01*
X55151000Y-94949910D01*
X55151000Y-94245750D01*
X54992250Y-94087000D01*
X53627000Y-94087000D01*
X53627000Y-94107000D01*
X53373000Y-94107000D01*
X53373000Y-94087000D01*
X52007750Y-94087000D01*
X51849000Y-94245750D01*
X51452000Y-94245750D01*
X51452000Y-92970090D01*
X51849000Y-92970090D01*
X51849000Y-93674250D01*
X52007750Y-93833000D01*
X53373000Y-93833000D01*
X53373000Y-92620150D01*
X53627000Y-92620150D01*
X53627000Y-93833000D01*
X54992250Y-93833000D01*
X55151000Y-93674250D01*
X55151000Y-92970090D01*
X55054327Y-92736701D01*
X54875698Y-92558073D01*
X54642309Y-92461400D01*
X53785750Y-92461400D01*
X53627000Y-92620150D01*
X53373000Y-92620150D01*
X53214250Y-92461400D01*
X52357691Y-92461400D01*
X52124302Y-92558073D01*
X51945673Y-92736701D01*
X51849000Y-92970090D01*
X51452000Y-92970090D01*
X51452000Y-90528646D01*
X53847208Y-88133438D01*
X53934626Y-88002608D01*
X53966867Y-87954356D01*
X54008885Y-87743115D01*
X54008885Y-83977772D01*
X54129520Y-83927927D01*
X54464282Y-83593748D01*
X54645678Y-83156898D01*
X54646091Y-82683885D01*
X54465458Y-82246719D01*
X54131279Y-81911957D01*
X53694429Y-81730561D01*
X53689580Y-81730557D01*
X53906993Y-81513144D01*
X54239375Y-81846105D01*
X54676225Y-82027501D01*
X55149238Y-82027914D01*
X55311574Y-81960838D01*
X64922597Y-81960838D01*
X65276115Y-82816418D01*
X65930139Y-83471585D01*
X66785100Y-83826596D01*
X67710838Y-83827403D01*
X68566418Y-83473885D01*
X69221585Y-82819861D01*
X69576596Y-81964900D01*
X69576599Y-81960838D01*
X72922597Y-81960838D01*
X73276115Y-82816418D01*
X73930139Y-83471585D01*
X74785100Y-83826596D01*
X75710838Y-83827403D01*
X76566418Y-83473885D01*
X77221585Y-82819861D01*
X77576596Y-81964900D01*
X77577403Y-81039162D01*
X77223885Y-80183582D01*
X76569861Y-79528415D01*
X75714900Y-79173404D01*
X74789162Y-79172597D01*
X73933582Y-79526115D01*
X73278415Y-80180139D01*
X72923404Y-81035100D01*
X72922597Y-81960838D01*
X69576599Y-81960838D01*
X69577403Y-81039162D01*
X69223885Y-80183582D01*
X68569861Y-79528415D01*
X67714900Y-79173404D01*
X66789162Y-79172597D01*
X65933582Y-79526115D01*
X65278415Y-80180139D01*
X64923404Y-81035100D01*
X64922597Y-81960838D01*
X55311574Y-81960838D01*
X55586404Y-81847281D01*
X55921166Y-81513102D01*
X56102562Y-81076252D01*
X56102975Y-80603239D01*
X55922342Y-80166073D01*
X55588163Y-79831311D01*
X55151313Y-79649915D01*
X54678300Y-79649502D01*
X54241134Y-79830135D01*
X53906372Y-80164314D01*
X53845169Y-80311708D01*
X53836139Y-80311708D01*
X53634465Y-80351823D01*
X53463494Y-80466063D01*
X44252355Y-89677202D01*
X44138115Y-89848172D01*
X44133907Y-89869327D01*
X44098000Y-90049847D01*
X44098000Y-104352710D01*
X44027000Y-104281710D01*
X44027000Y-92880000D01*
X43986885Y-92678326D01*
X43902476Y-92552000D01*
X43872645Y-92507354D01*
X43128364Y-91763073D01*
X43188793Y-91617544D01*
X43189206Y-91144531D01*
X43008573Y-90707365D01*
X42674394Y-90372603D01*
X42237544Y-90191207D01*
X41764531Y-90190794D01*
X41327365Y-90371427D01*
X40992603Y-90705606D01*
X40811207Y-91142456D01*
X40810794Y-91615469D01*
X40991427Y-92052635D01*
X41325606Y-92387397D01*
X41762456Y-92568793D01*
X42235469Y-92569206D01*
X42382970Y-92508260D01*
X42973000Y-93098291D01*
X42973000Y-93211730D01*
X42674394Y-92912603D01*
X42237544Y-92731207D01*
X41764531Y-92730794D01*
X41327365Y-92911427D01*
X40992603Y-93245606D01*
X40811207Y-93682456D01*
X40810794Y-94155469D01*
X40991427Y-94592635D01*
X41325606Y-94927397D01*
X41762456Y-95108793D01*
X42235469Y-95109206D01*
X42672635Y-94928573D01*
X42973000Y-94628731D01*
X42973000Y-95751730D01*
X42674394Y-95452603D01*
X42237544Y-95271207D01*
X41764531Y-95270794D01*
X41327365Y-95451427D01*
X40992603Y-95785606D01*
X40811207Y-96222456D01*
X40810794Y-96695469D01*
X40991427Y-97132635D01*
X41325606Y-97467397D01*
X41652174Y-97603000D01*
X41111691Y-97603000D01*
X40878302Y-97699673D01*
X40699673Y-97878301D01*
X40603000Y-98111690D01*
X40603000Y-98714250D01*
X40761750Y-98873000D01*
X41873000Y-98873000D01*
X41873000Y-98853000D01*
X42127000Y-98853000D01*
X42127000Y-98873000D01*
X42147000Y-98873000D01*
X42147000Y-99127000D01*
X42127000Y-99127000D01*
X42127000Y-99147000D01*
X41873000Y-99147000D01*
X41873000Y-99127000D01*
X40761750Y-99127000D01*
X40603000Y-99285750D01*
X40603000Y-99888310D01*
X40699673Y-100121699D01*
X40878302Y-100300327D01*
X41111691Y-100397000D01*
X41652704Y-100397000D01*
X41327365Y-100531427D01*
X40992603Y-100865606D01*
X40811207Y-101302456D01*
X40810794Y-101775469D01*
X40991427Y-102212635D01*
X41325606Y-102547397D01*
X41762456Y-102728793D01*
X42235469Y-102729206D01*
X42672635Y-102548573D01*
X42973000Y-102248731D01*
X42973000Y-103371730D01*
X42674394Y-103072603D01*
X42237544Y-102891207D01*
X41764531Y-102890794D01*
X41327365Y-103071427D01*
X40992603Y-103405606D01*
X40811207Y-103842456D01*
X40810794Y-104315469D01*
X40991427Y-104752635D01*
X41325606Y-105087397D01*
X41762456Y-105268793D01*
X42235469Y-105269206D01*
X42672635Y-105088573D01*
X43007397Y-104754394D01*
X43023089Y-104716603D01*
X43127355Y-104872645D01*
X54227355Y-115972646D01*
X54265300Y-115998000D01*
X42807935Y-115998000D01*
X38102000Y-111292064D01*
X38102000Y-111218290D01*
X39872372Y-111218290D01*
X40423386Y-112551846D01*
X41442787Y-113573028D01*
X42775380Y-114126369D01*
X44218290Y-114127628D01*
X45551846Y-113576614D01*
X46573028Y-112557213D01*
X47126369Y-111224620D01*
X47127628Y-109781710D01*
X46576614Y-108448154D01*
X45557213Y-107426972D01*
X44224620Y-106873631D01*
X42781710Y-106872372D01*
X41448154Y-107423386D01*
X40426972Y-108442787D01*
X39873631Y-109775380D01*
X39872372Y-111218290D01*
X38102000Y-111218290D01*
X38102000Y-89075469D01*
X40810794Y-89075469D01*
X40991427Y-89512635D01*
X41325606Y-89847397D01*
X41762456Y-90028793D01*
X42235469Y-90029206D01*
X42672635Y-89848573D01*
X43007397Y-89514394D01*
X43188793Y-89077544D01*
X43189206Y-88604531D01*
X43008573Y-88167365D01*
X42674394Y-87832603D01*
X42237544Y-87651207D01*
X41764531Y-87650794D01*
X41327365Y-87831427D01*
X40992603Y-88165606D01*
X40811207Y-88602456D01*
X40810794Y-89075469D01*
X38102000Y-89075469D01*
X38102000Y-83218290D01*
X39872372Y-83218290D01*
X40423386Y-84551846D01*
X41442787Y-85573028D01*
X42775380Y-86126369D01*
X44218290Y-86127628D01*
X45551846Y-85576614D01*
X46573028Y-84557213D01*
X47126369Y-83224620D01*
X47127628Y-81781710D01*
X46576614Y-80448154D01*
X45557213Y-79426972D01*
X44513372Y-78993531D01*
X55181447Y-78993531D01*
X55362080Y-79430697D01*
X55696259Y-79765459D01*
X56133109Y-79946855D01*
X56606122Y-79947268D01*
X57043288Y-79766635D01*
X57378050Y-79432456D01*
X57559446Y-78995606D01*
X57559859Y-78522593D01*
X57379226Y-78085427D01*
X57045047Y-77750665D01*
X56608197Y-77569269D01*
X56135184Y-77568856D01*
X55698018Y-77749489D01*
X55363256Y-78083668D01*
X55181860Y-78520518D01*
X55181447Y-78993531D01*
X44513372Y-78993531D01*
X44224620Y-78873631D01*
X42781710Y-78872372D01*
X41448154Y-79423386D01*
X40426972Y-80442787D01*
X39873631Y-81775380D01*
X39872372Y-83218290D01*
X38102000Y-83218290D01*
X38102000Y-81707936D01*
X42807935Y-77002000D01*
X96249995Y-77002000D01*
X96250000Y-77002001D01*
X96442107Y-76963788D01*
X96604968Y-76854968D01*
X101604965Y-71854970D01*
X101604968Y-71854968D01*
X101713788Y-71692107D01*
X101752001Y-71500000D01*
X101752000Y-71499995D01*
X101752000Y-64218290D01*
X103622372Y-64218290D01*
X104173386Y-65551846D01*
X105192787Y-66573028D01*
X106525380Y-67126369D01*
X107968290Y-67127628D01*
X109301846Y-66576614D01*
X110323028Y-65557213D01*
X110743500Y-64544603D01*
X122982752Y-64544603D01*
X123199543Y-65069275D01*
X123600614Y-65471047D01*
X124124907Y-65688752D01*
X124692603Y-65689248D01*
X125217275Y-65472457D01*
X125619047Y-65071386D01*
X125836752Y-64547093D01*
X125836754Y-64544603D01*
X126182752Y-64544603D01*
X126399543Y-65069275D01*
X126800614Y-65471047D01*
X127324907Y-65688752D01*
X127892603Y-65689248D01*
X128417275Y-65472457D01*
X128819047Y-65071386D01*
X129036752Y-64547093D01*
X129037248Y-63979397D01*
X128820457Y-63454725D01*
X128419386Y-63052953D01*
X127895093Y-62835248D01*
X127327397Y-62834752D01*
X126802725Y-63051543D01*
X126400953Y-63452614D01*
X126183248Y-63976907D01*
X126182752Y-64544603D01*
X125836754Y-64544603D01*
X125837248Y-63979397D01*
X125620457Y-63454725D01*
X125219386Y-63052953D01*
X124695093Y-62835248D01*
X124127397Y-62834752D01*
X123602725Y-63051543D01*
X123200953Y-63452614D01*
X122983248Y-63976907D01*
X122982752Y-64544603D01*
X110743500Y-64544603D01*
X110876369Y-64224620D01*
X110877628Y-62781710D01*
X110326614Y-61448154D01*
X109307213Y-60426972D01*
X107974620Y-59873631D01*
X106531710Y-59872372D01*
X105198154Y-60423386D01*
X104176972Y-61442787D01*
X103623631Y-62775380D01*
X103622372Y-64218290D01*
X101752000Y-64218290D01*
X101752000Y-59544603D01*
X122982752Y-59544603D01*
X123199543Y-60069275D01*
X123600614Y-60471047D01*
X124124907Y-60688752D01*
X124692603Y-60689248D01*
X125217275Y-60472457D01*
X125619047Y-60071386D01*
X125836752Y-59547093D01*
X125836754Y-59544603D01*
X126182752Y-59544603D01*
X126399543Y-60069275D01*
X126800614Y-60471047D01*
X127324907Y-60688752D01*
X127892603Y-60689248D01*
X128417275Y-60472457D01*
X128819047Y-60071386D01*
X129036752Y-59547093D01*
X129036754Y-59544603D01*
X129382752Y-59544603D01*
X129599543Y-60069275D01*
X130000614Y-60471047D01*
X130001214Y-60471296D01*
X131291918Y-61762000D01*
X129802125Y-63251793D01*
X129600953Y-63452614D01*
X129383248Y-63976907D01*
X129382752Y-64544603D01*
X129599543Y-65069275D01*
X130000614Y-65471047D01*
X130524907Y-65688752D01*
X131092603Y-65689248D01*
X131617275Y-65472457D01*
X132019047Y-65071386D01*
X132019296Y-65070786D01*
X132582785Y-64507298D01*
X132582752Y-64544603D01*
X132799543Y-65069275D01*
X133200614Y-65471047D01*
X133201214Y-65471296D01*
X137069978Y-69340060D01*
X137532930Y-69649395D01*
X138079019Y-69758019D01*
X207947937Y-69758019D01*
X212949000Y-74759083D01*
X212949000Y-81675867D01*
X212881205Y-82016697D01*
X212873000Y-82100000D01*
X212873000Y-85100000D01*
X212881205Y-85183303D01*
X212957325Y-85565986D01*
X213021082Y-85719911D01*
X213237855Y-86044335D01*
X213355665Y-86162145D01*
X213680089Y-86378918D01*
X213834014Y-86442675D01*
X213930550Y-86461877D01*
X213923126Y-86479756D01*
X213922874Y-86768975D01*
X214033320Y-87036275D01*
X214237650Y-87240961D01*
X214386986Y-87302971D01*
X213866497Y-87823460D01*
X213756593Y-87987942D01*
X213718000Y-88181963D01*
X213718000Y-90628879D01*
X213609039Y-90737650D01*
X213498126Y-91004756D01*
X213498017Y-91129430D01*
X198555126Y-106072320D01*
X197845427Y-106072320D01*
X198069943Y-105848196D01*
X198215182Y-105498422D01*
X198215512Y-105119693D01*
X198070884Y-104769667D01*
X197803316Y-104501631D01*
X197453542Y-104356392D01*
X197074813Y-104356062D01*
X196724787Y-104500690D01*
X196456751Y-104768258D01*
X196311512Y-105118032D01*
X196311182Y-105496761D01*
X196455810Y-105846787D01*
X196680949Y-106072320D01*
X176168362Y-106072320D01*
X176187705Y-106052977D01*
X176071622Y-105936894D01*
X176289309Y-105896652D01*
X176436393Y-105459242D01*
X176404890Y-104998841D01*
X176289309Y-104719802D01*
X176071620Y-104679560D01*
X175442952Y-105308227D01*
X175457095Y-105322369D01*
X175277489Y-105501975D01*
X175263347Y-105487832D01*
X175249205Y-105501975D01*
X175069599Y-105322369D01*
X175083742Y-105308227D01*
X174455074Y-104679560D01*
X174237385Y-104719802D01*
X174090301Y-105157212D01*
X174121804Y-105617613D01*
X174237385Y-105896652D01*
X174455072Y-105936894D01*
X174338989Y-106052977D01*
X174358332Y-106072320D01*
X173819953Y-106072320D01*
X172929600Y-105181966D01*
X172929600Y-103496761D01*
X174311182Y-103496761D01*
X174455810Y-103846787D01*
X174723378Y-104114823D01*
X174901052Y-104188600D01*
X174674922Y-104282265D01*
X174634680Y-104499954D01*
X175263347Y-105128622D01*
X175892014Y-104499954D01*
X175851772Y-104282265D01*
X175602117Y-104198316D01*
X175801907Y-104115764D01*
X176069943Y-103848196D01*
X176215182Y-103498422D01*
X176215512Y-103119693D01*
X176070884Y-102769667D01*
X175803316Y-102501631D01*
X175453542Y-102356392D01*
X175074813Y-102356062D01*
X174724787Y-102500690D01*
X174456751Y-102768258D01*
X174311512Y-103118032D01*
X174311182Y-103496761D01*
X172929600Y-103496761D01*
X172929600Y-101496761D01*
X174311182Y-101496761D01*
X174455810Y-101846787D01*
X174723378Y-102114823D01*
X175073152Y-102260062D01*
X175451881Y-102260392D01*
X175801907Y-102115764D01*
X176069943Y-101848196D01*
X176215182Y-101498422D01*
X176215512Y-101119693D01*
X176070884Y-100769667D01*
X175803316Y-100501631D01*
X175453542Y-100356392D01*
X175074813Y-100356062D01*
X174724787Y-100500690D01*
X174456751Y-100768258D01*
X174311512Y-101118032D01*
X174311182Y-101496761D01*
X172929600Y-101496761D01*
X172929600Y-99496761D01*
X174311182Y-99496761D01*
X174455810Y-99846787D01*
X174723378Y-100114823D01*
X175073152Y-100260062D01*
X175451881Y-100260392D01*
X175801907Y-100115764D01*
X176069943Y-99848196D01*
X176215182Y-99498422D01*
X176215312Y-99348361D01*
X177656371Y-99348361D01*
X177769475Y-99622095D01*
X177978724Y-99831709D01*
X178252260Y-99945291D01*
X178548441Y-99945549D01*
X178822175Y-99832445D01*
X179031789Y-99623196D01*
X179145371Y-99349660D01*
X179145498Y-99203976D01*
X191620873Y-86728600D01*
X196314044Y-86728600D01*
X196303387Y-86781227D01*
X192591773Y-86781227D01*
X192390099Y-86821342D01*
X192219128Y-86935581D01*
X185127355Y-94027355D01*
X185013115Y-94198325D01*
X184983470Y-94347365D01*
X184973000Y-94400000D01*
X184973000Y-103874116D01*
X184869211Y-103977724D01*
X184755629Y-104251260D01*
X184755371Y-104547441D01*
X184868475Y-104821175D01*
X185077724Y-105030789D01*
X185351260Y-105144371D01*
X185647441Y-105144629D01*
X185921175Y-105031525D01*
X186130789Y-104822276D01*
X186244371Y-104548740D01*
X186244372Y-104547441D01*
X187455371Y-104547441D01*
X187568475Y-104821175D01*
X187777724Y-105030789D01*
X188051260Y-105144371D01*
X188347441Y-105144629D01*
X188621175Y-105031525D01*
X188830789Y-104822276D01*
X188944371Y-104548740D01*
X188944629Y-104252559D01*
X188831525Y-103978825D01*
X188727000Y-103874118D01*
X188727000Y-103496761D01*
X196311182Y-103496761D01*
X196455810Y-103846787D01*
X196723378Y-104114823D01*
X197073152Y-104260062D01*
X197451881Y-104260392D01*
X197801907Y-104115764D01*
X198069943Y-103848196D01*
X198215182Y-103498422D01*
X198215512Y-103119693D01*
X198070884Y-102769667D01*
X197803316Y-102501631D01*
X197453542Y-102356392D01*
X197074813Y-102356062D01*
X196724787Y-102500690D01*
X196456751Y-102768258D01*
X196311512Y-103118032D01*
X196311182Y-103496761D01*
X188727000Y-103496761D01*
X188727000Y-101496761D01*
X196311182Y-101496761D01*
X196455810Y-101846787D01*
X196723378Y-102114823D01*
X197073152Y-102260062D01*
X197451881Y-102260392D01*
X197801907Y-102115764D01*
X198069943Y-101848196D01*
X198215182Y-101498422D01*
X198215512Y-101119693D01*
X198070884Y-100769667D01*
X197803316Y-100501631D01*
X197453542Y-100356392D01*
X197074813Y-100356062D01*
X196724787Y-100500690D01*
X196456751Y-100768258D01*
X196311512Y-101118032D01*
X196311182Y-101496761D01*
X188727000Y-101496761D01*
X188727000Y-99496761D01*
X196311182Y-99496761D01*
X196455810Y-99846787D01*
X196723378Y-100114823D01*
X197073152Y-100260062D01*
X197451881Y-100260392D01*
X197801907Y-100115764D01*
X198069943Y-99848196D01*
X198215182Y-99498422D01*
X198215512Y-99119693D01*
X198070884Y-98769667D01*
X197803316Y-98501631D01*
X197453542Y-98356392D01*
X197074813Y-98356062D01*
X196724787Y-98500690D01*
X196456751Y-98768258D01*
X196311512Y-99118032D01*
X196311182Y-99496761D01*
X188727000Y-99496761D01*
X188727000Y-97496761D01*
X196311182Y-97496761D01*
X196455810Y-97846787D01*
X196723378Y-98114823D01*
X197073152Y-98260062D01*
X197451881Y-98260392D01*
X197801907Y-98115764D01*
X198069943Y-97848196D01*
X198215182Y-97498422D01*
X198215512Y-97119693D01*
X198070884Y-96769667D01*
X197803316Y-96501631D01*
X197453542Y-96356392D01*
X197074813Y-96356062D01*
X196724787Y-96500690D01*
X196456751Y-96768258D01*
X196311512Y-97118032D01*
X196311182Y-97496761D01*
X188727000Y-97496761D01*
X188727000Y-95718290D01*
X188948529Y-95496761D01*
X196311182Y-95496761D01*
X196455810Y-95846787D01*
X196723378Y-96114823D01*
X197073152Y-96260062D01*
X197451881Y-96260392D01*
X197801907Y-96115764D01*
X198069943Y-95848196D01*
X198215182Y-95498422D01*
X198215512Y-95119693D01*
X198070884Y-94769667D01*
X197803316Y-94501631D01*
X197453542Y-94356392D01*
X197074813Y-94356062D01*
X196724787Y-94500690D01*
X196456751Y-94768258D01*
X196311512Y-95118032D01*
X196311182Y-95496761D01*
X188948529Y-95496761D01*
X190948529Y-93496761D01*
X196311182Y-93496761D01*
X196455810Y-93846787D01*
X196723378Y-94114823D01*
X197073152Y-94260062D01*
X197451881Y-94260392D01*
X197801907Y-94115764D01*
X198069943Y-93848196D01*
X198215182Y-93498422D01*
X198215512Y-93119693D01*
X198070884Y-92769667D01*
X197803316Y-92501631D01*
X197453542Y-92356392D01*
X197074813Y-92356062D01*
X196724787Y-92500690D01*
X196456751Y-92768258D01*
X196311512Y-93118032D01*
X196311182Y-93496761D01*
X190948529Y-93496761D01*
X192948529Y-91496761D01*
X196311182Y-91496761D01*
X196455810Y-91846787D01*
X196723378Y-92114823D01*
X197073152Y-92260062D01*
X197451881Y-92260392D01*
X197801907Y-92115764D01*
X198069943Y-91848196D01*
X198215182Y-91498422D01*
X198215512Y-91119693D01*
X198070884Y-90769667D01*
X197803316Y-90501631D01*
X197453542Y-90356392D01*
X197074813Y-90356062D01*
X196724787Y-90500690D01*
X196456751Y-90768258D01*
X196311512Y-91118032D01*
X196311182Y-91496761D01*
X192948529Y-91496761D01*
X194400789Y-90044501D01*
X194547441Y-90044629D01*
X194821175Y-89931525D01*
X195030789Y-89722276D01*
X195124430Y-89496761D01*
X196311182Y-89496761D01*
X196455810Y-89846787D01*
X196723378Y-90114823D01*
X197073152Y-90260062D01*
X197451881Y-90260392D01*
X197801907Y-90115764D01*
X198069943Y-89848196D01*
X198215182Y-89498422D01*
X198215512Y-89119693D01*
X198070884Y-88769667D01*
X197803316Y-88501631D01*
X197453542Y-88356392D01*
X197074813Y-88356062D01*
X196724787Y-88500690D01*
X196456751Y-88768258D01*
X196311512Y-89118032D01*
X196311182Y-89496761D01*
X195124430Y-89496761D01*
X195144371Y-89448740D01*
X195144629Y-89152559D01*
X195031525Y-88878825D01*
X194822276Y-88669211D01*
X194548740Y-88555629D01*
X194252559Y-88555371D01*
X193978825Y-88668475D01*
X193769211Y-88877724D01*
X193655629Y-89151260D01*
X193655500Y-89299210D01*
X187827355Y-95127355D01*
X187713115Y-95298325D01*
X187713115Y-95298326D01*
X187673000Y-95500000D01*
X187673000Y-103874116D01*
X187569211Y-103977724D01*
X187455629Y-104251260D01*
X187455371Y-104547441D01*
X186244372Y-104547441D01*
X186244629Y-104252559D01*
X186131525Y-103978825D01*
X186027000Y-103874118D01*
X186027000Y-94618290D01*
X192810064Y-87835227D01*
X196303358Y-87835227D01*
X196332756Y-87991464D01*
X196426274Y-88136794D01*
X196568966Y-88234291D01*
X196738347Y-88268592D01*
X197788347Y-88268592D01*
X197946584Y-88238818D01*
X198091914Y-88145300D01*
X198189411Y-88002608D01*
X198223712Y-87833227D01*
X198223712Y-86783227D01*
X198213433Y-86728600D01*
X207181120Y-86728600D01*
X209656491Y-89203970D01*
X209656365Y-89348361D01*
X209769469Y-89622095D01*
X209978718Y-89831709D01*
X210252254Y-89945291D01*
X210548435Y-89945549D01*
X210822169Y-89832445D01*
X211031783Y-89623196D01*
X211145365Y-89349660D01*
X211145623Y-89053479D01*
X211139008Y-89037469D01*
X211743796Y-89642257D01*
X211656629Y-89852180D01*
X211656371Y-90148361D01*
X211769475Y-90422095D01*
X211978724Y-90631709D01*
X212252260Y-90745291D01*
X212548441Y-90745549D01*
X212822175Y-90632445D01*
X213031789Y-90423196D01*
X213145371Y-90149660D01*
X213145629Y-89853479D01*
X213032525Y-89579745D01*
X212910904Y-89457912D01*
X212889363Y-89349621D01*
X212827174Y-89256549D01*
X212774777Y-89178131D01*
X212774774Y-89178129D01*
X199623789Y-76027143D01*
X199452299Y-75912557D01*
X199250012Y-75872319D01*
X199250007Y-75872320D01*
X195527873Y-75872320D01*
X195252553Y-75597000D01*
X195362250Y-75597000D01*
X195521000Y-75438250D01*
X195521000Y-74327000D01*
X195501000Y-74327000D01*
X195501000Y-74073000D01*
X195521000Y-74073000D01*
X195521000Y-72961750D01*
X195775000Y-72961750D01*
X195775000Y-74073000D01*
X195795000Y-74073000D01*
X195795000Y-74327000D01*
X195775000Y-74327000D01*
X195775000Y-75438250D01*
X195933750Y-75597000D01*
X196536310Y-75597000D01*
X196769699Y-75500327D01*
X196948327Y-75321698D01*
X197045000Y-75088309D01*
X197045000Y-74547296D01*
X197179427Y-74872635D01*
X197513606Y-75207397D01*
X197950456Y-75388793D01*
X198423469Y-75389206D01*
X198860635Y-75208573D01*
X199195397Y-74874394D01*
X199376793Y-74437544D01*
X199376794Y-74435469D01*
X199538794Y-74435469D01*
X199719427Y-74872635D01*
X200053606Y-75207397D01*
X200490456Y-75388793D01*
X200963469Y-75389206D01*
X201400635Y-75208573D01*
X201735397Y-74874394D01*
X201916793Y-74437544D01*
X201917206Y-73964531D01*
X201736573Y-73527365D01*
X201402394Y-73192603D01*
X200965544Y-73011207D01*
X200492531Y-73010794D01*
X200055365Y-73191427D01*
X199720603Y-73525606D01*
X199539207Y-73962456D01*
X199538794Y-74435469D01*
X199376794Y-74435469D01*
X199377206Y-73964531D01*
X199196573Y-73527365D01*
X198862394Y-73192603D01*
X198425544Y-73011207D01*
X197952531Y-73010794D01*
X197515365Y-73191427D01*
X197180603Y-73525606D01*
X197045000Y-73852174D01*
X197045000Y-73311691D01*
X196948327Y-73078302D01*
X196769699Y-72899673D01*
X196536310Y-72803000D01*
X195933750Y-72803000D01*
X195775000Y-72961750D01*
X195521000Y-72961750D01*
X195362250Y-72803000D01*
X194759690Y-72803000D01*
X194526301Y-72899673D01*
X194347673Y-73078302D01*
X194251000Y-73311691D01*
X194251000Y-73852704D01*
X194116573Y-73527365D01*
X193782394Y-73192603D01*
X193345544Y-73011207D01*
X192872531Y-73010794D01*
X192435365Y-73191427D01*
X192100603Y-73525606D01*
X191919207Y-73962456D01*
X191918794Y-74435469D01*
X192099427Y-74872635D01*
X192433606Y-75207397D01*
X192870456Y-75388793D01*
X193343469Y-75389206D01*
X193489369Y-75328922D01*
X193496220Y-75335773D01*
X193496222Y-75335776D01*
X194935141Y-76774694D01*
X194935143Y-76774697D01*
X195020889Y-76831990D01*
X195106633Y-76889283D01*
X195308920Y-76929521D01*
X195308925Y-76929520D01*
X199031058Y-76929520D01*
X210564020Y-88462481D01*
X210549734Y-88456549D01*
X210404049Y-88456422D01*
X207773851Y-85826223D01*
X207602361Y-85711637D01*
X207400074Y-85671399D01*
X207400069Y-85671400D01*
X192207516Y-85671400D01*
X192207682Y-85481049D01*
X192094578Y-85207315D01*
X191885329Y-84997701D01*
X191611793Y-84884119D01*
X191315612Y-84883861D01*
X191041878Y-84996965D01*
X190917136Y-85121490D01*
X189338576Y-85121490D01*
X189045477Y-84828391D01*
X189045629Y-84653479D01*
X188932525Y-84379745D01*
X188723276Y-84170131D01*
X188449740Y-84056549D01*
X188153559Y-84056291D01*
X187879825Y-84169395D01*
X187670211Y-84378644D01*
X187556629Y-84652180D01*
X187556371Y-84948361D01*
X187669475Y-85222095D01*
X187878724Y-85431709D01*
X188152260Y-85545291D01*
X188328519Y-85545445D01*
X188770067Y-85986993D01*
X188934550Y-86096898D01*
X189128570Y-86135490D01*
X190718877Y-86135490D01*
X187703309Y-89151057D01*
X187632525Y-88979745D01*
X187423276Y-88770131D01*
X187149740Y-88656549D01*
X186853559Y-88656291D01*
X186655297Y-88738211D01*
X180545477Y-82628391D01*
X180545629Y-82453479D01*
X180432525Y-82179745D01*
X180223276Y-81970131D01*
X179949740Y-81856549D01*
X179653559Y-81856291D01*
X179379825Y-81969395D01*
X179170211Y-82178644D01*
X179056629Y-82452180D01*
X179056371Y-82748361D01*
X179169475Y-83022095D01*
X179378724Y-83231709D01*
X179652260Y-83345291D01*
X179828519Y-83345445D01*
X186242497Y-89759423D01*
X186406979Y-89869327D01*
X186419015Y-89871721D01*
X186578724Y-90031709D01*
X186751087Y-90103280D01*
X178397949Y-98456417D01*
X178253559Y-98456291D01*
X177979825Y-98569395D01*
X177770211Y-98778644D01*
X177656629Y-99052180D01*
X177656371Y-99348361D01*
X176215312Y-99348361D01*
X176215512Y-99119693D01*
X176070884Y-98769667D01*
X175803316Y-98501631D01*
X175453542Y-98356392D01*
X175074813Y-98356062D01*
X174724787Y-98500690D01*
X174456751Y-98768258D01*
X174311512Y-99118032D01*
X174311182Y-99496761D01*
X172929600Y-99496761D01*
X172929600Y-99325197D01*
X173031789Y-99223186D01*
X173145371Y-98949650D01*
X173145629Y-98653469D01*
X173032525Y-98379735D01*
X172823276Y-98170121D01*
X172549740Y-98056539D01*
X172253559Y-98056281D01*
X171979825Y-98169385D01*
X171770211Y-98378634D01*
X171656629Y-98652170D01*
X171656371Y-98948351D01*
X171769475Y-99222085D01*
X171872400Y-99325190D01*
X171872400Y-100707482D01*
X171749740Y-100656549D01*
X171453559Y-100656291D01*
X171179825Y-100769395D01*
X170970211Y-100978644D01*
X170856629Y-101252180D01*
X170856371Y-101548361D01*
X170969475Y-101822095D01*
X171072400Y-101925200D01*
X171072400Y-105800915D01*
X171072399Y-105800920D01*
X171112637Y-106003207D01*
X171227223Y-106174697D01*
X172382832Y-107330305D01*
X172382834Y-107330308D01*
X172436850Y-107366400D01*
X172554324Y-107444894D01*
X172756611Y-107485132D01*
X172756616Y-107485131D01*
X198956049Y-107485131D01*
X198248180Y-108193000D01*
X168990000Y-108193000D01*
X168795979Y-108231593D01*
X168745743Y-108265160D01*
X168631497Y-108341497D01*
X166879994Y-110093000D01*
X162380006Y-110093000D01*
X160907000Y-108619994D01*
X160907000Y-108500000D01*
X163192105Y-108500000D01*
X163285505Y-108969553D01*
X163551485Y-109367620D01*
X163949552Y-109633600D01*
X164419105Y-109727000D01*
X165180895Y-109727000D01*
X165650448Y-109633600D01*
X166048515Y-109367620D01*
X166314495Y-108969553D01*
X166407895Y-108500000D01*
X166318156Y-108048850D01*
X167958503Y-106408503D01*
X167968862Y-106393000D01*
X168068407Y-106244021D01*
X168107000Y-106050000D01*
X168107000Y-97240006D01*
X168540006Y-96807000D01*
X174440664Y-96807000D01*
X174311512Y-97118032D01*
X174311182Y-97496761D01*
X174455810Y-97846787D01*
X174723378Y-98114823D01*
X175073152Y-98260062D01*
X175451881Y-98260392D01*
X175801907Y-98115764D01*
X176069943Y-97848196D01*
X176215182Y-97498422D01*
X176215512Y-97119693D01*
X176086310Y-96807000D01*
X176852908Y-96807000D01*
X177046929Y-96768407D01*
X177211411Y-96658503D01*
X177820753Y-96049161D01*
X178052260Y-96145291D01*
X178348441Y-96145549D01*
X178622175Y-96032445D01*
X178831789Y-95823196D01*
X178945371Y-95549660D01*
X178945629Y-95253479D01*
X178832525Y-94979745D01*
X178623276Y-94770131D01*
X178390501Y-94673474D01*
X178390501Y-90307507D01*
X179455523Y-91372529D01*
X179455371Y-91547441D01*
X179568475Y-91821175D01*
X179777724Y-92030789D01*
X180051260Y-92144371D01*
X180347441Y-92144629D01*
X180621175Y-92031525D01*
X180830789Y-91822276D01*
X180944371Y-91548740D01*
X180944629Y-91252559D01*
X180831525Y-90978825D01*
X180622276Y-90769211D01*
X180348740Y-90655629D01*
X180172481Y-90655475D01*
X178807000Y-89289994D01*
X178807000Y-82410006D01*
X189410006Y-71807000D01*
X201500000Y-71807000D01*
X201694021Y-71768407D01*
X201858503Y-71658503D01*
X202172529Y-71344477D01*
X202347441Y-71344629D01*
X202621175Y-71231525D01*
X202830789Y-71022276D01*
X202944371Y-70748740D01*
X202944629Y-70452559D01*
X202831525Y-70178825D01*
X202622276Y-69969211D01*
X202348740Y-69855629D01*
X202052559Y-69855371D01*
X201778825Y-69968475D01*
X201599872Y-70147117D01*
X201422276Y-69969211D01*
X201148740Y-69855629D01*
X200852559Y-69855371D01*
X200578825Y-69968475D01*
X200454083Y-70093000D01*
X189358186Y-70093000D01*
X189164165Y-70131593D01*
X189093478Y-70178825D01*
X188999683Y-70241497D01*
X177524998Y-81716182D01*
X177415094Y-81880664D01*
X177376501Y-82074685D01*
X177376501Y-95059401D01*
X176642902Y-95793000D01*
X176092862Y-95793000D01*
X176215182Y-95498422D01*
X176215512Y-95119693D01*
X176070884Y-94769667D01*
X175803316Y-94501631D01*
X175453542Y-94356392D01*
X175074813Y-94356062D01*
X174724787Y-94500690D01*
X174456751Y-94768258D01*
X174311512Y-95118032D01*
X174311182Y-95496761D01*
X174433586Y-95793000D01*
X168330000Y-95793000D01*
X168135979Y-95831593D01*
X167971497Y-95941497D01*
X167241497Y-96671497D01*
X167131593Y-96835979D01*
X167093000Y-97030000D01*
X167093000Y-105839994D01*
X165580506Y-107352488D01*
X165180895Y-107273000D01*
X164419105Y-107273000D01*
X163949552Y-107366400D01*
X163551485Y-107632380D01*
X163285505Y-108030447D01*
X163192105Y-108500000D01*
X160907000Y-108500000D01*
X160907000Y-106900000D01*
X160901755Y-106873631D01*
X160868408Y-106705980D01*
X160758503Y-106541497D01*
X159818503Y-105601497D01*
X159788715Y-105581593D01*
X159654021Y-105491593D01*
X159460000Y-105453000D01*
X158669474Y-105453000D01*
X158428515Y-105092380D01*
X158030448Y-104826400D01*
X157560895Y-104733000D01*
X156799105Y-104733000D01*
X156329552Y-104826400D01*
X155931485Y-105092380D01*
X155665505Y-105490447D01*
X155572105Y-105960000D01*
X155665505Y-106429553D01*
X155931485Y-106827620D01*
X156329552Y-107093600D01*
X156799105Y-107187000D01*
X157560895Y-107187000D01*
X158030448Y-107093600D01*
X158428515Y-106827620D01*
X158669474Y-106467000D01*
X159249994Y-106467000D01*
X159893000Y-107110006D01*
X159893000Y-108830000D01*
X159931593Y-109024021D01*
X160012902Y-109145708D01*
X160041497Y-109188503D01*
X161811497Y-110958503D01*
X161975979Y-111068407D01*
X162170000Y-111107000D01*
X167090000Y-111107000D01*
X167284021Y-111068407D01*
X167448503Y-110958503D01*
X169200006Y-109207000D01*
X197675994Y-109207000D01*
X197089994Y-109793000D01*
X177545849Y-109793000D01*
X177422276Y-109669211D01*
X177148740Y-109555629D01*
X176852559Y-109555371D01*
X176578825Y-109668475D01*
X176369211Y-109877724D01*
X176255629Y-110151260D01*
X176255371Y-110447441D01*
X176368475Y-110721175D01*
X176577724Y-110930789D01*
X176851260Y-111044371D01*
X177147441Y-111044629D01*
X177421175Y-110931525D01*
X177545917Y-110807000D01*
X197300000Y-110807000D01*
X197494021Y-110768407D01*
X197658503Y-110658503D01*
X202817006Y-105500000D01*
X225748000Y-105500000D01*
X225748000Y-115500000D01*
X225786212Y-115692107D01*
X225895032Y-115854968D01*
X226057893Y-115963788D01*
X226250000Y-116002000D01*
X246250000Y-116002000D01*
X246442107Y-115963788D01*
X246604968Y-115854968D01*
X246713788Y-115692107D01*
X246752000Y-115500000D01*
X246752000Y-105500000D01*
X246713788Y-105307893D01*
X246604968Y-105145032D01*
X246442107Y-105036212D01*
X246250000Y-104998000D01*
X226250000Y-104998000D01*
X226057893Y-105036212D01*
X225895032Y-105145032D01*
X225786212Y-105307893D01*
X225748000Y-105500000D01*
X202817006Y-105500000D01*
X204910006Y-103407000D01*
X247989994Y-103407000D01*
X255170398Y-110587404D01*
X255227355Y-110672645D01*
X256399979Y-111845269D01*
X256399979Y-121953343D01*
X256014387Y-122210987D01*
X255753117Y-122602006D01*
X255678933Y-122389929D01*
X255289015Y-121953517D01*
X254761770Y-121699540D01*
X254746005Y-121696891D01*
X254513979Y-121818032D01*
X254513979Y-123177249D01*
X254533979Y-123177249D01*
X254533979Y-123431249D01*
X254513979Y-123431249D01*
X254513979Y-124790466D01*
X254746005Y-124911607D01*
X254761770Y-124908958D01*
X255289015Y-124654981D01*
X255678933Y-124218569D01*
X255753117Y-124006492D01*
X256014387Y-124397511D01*
X256433088Y-124677278D01*
X256926979Y-124775519D01*
X257420870Y-124677278D01*
X257839571Y-124397511D01*
X258119338Y-123978810D01*
X258196979Y-123588482D01*
X258274620Y-123978810D01*
X258554387Y-124397511D01*
X258973088Y-124677278D01*
X259466979Y-124775519D01*
X259960870Y-124677278D01*
X260379571Y-124397511D01*
X260659338Y-123978810D01*
X260757579Y-123484919D01*
X260757579Y-123123579D01*
X260659338Y-122629688D01*
X260379571Y-122210987D01*
X259993979Y-121953343D01*
X259993979Y-121218290D01*
X263872372Y-121218290D01*
X264423386Y-122551846D01*
X265442787Y-123573028D01*
X266775380Y-124126369D01*
X268218290Y-124127628D01*
X269551846Y-123576614D01*
X270573028Y-122557213D01*
X271126369Y-121224620D01*
X271127628Y-119781710D01*
X270576614Y-118448154D01*
X269557213Y-117426972D01*
X268224620Y-116873631D01*
X266781710Y-116872372D01*
X265448154Y-117423386D01*
X264426972Y-118442787D01*
X263873631Y-119775380D01*
X263872372Y-121218290D01*
X259993979Y-121218290D01*
X259993979Y-113566979D01*
X259953864Y-113365305D01*
X259839625Y-113194334D01*
X251000760Y-104355469D01*
X269310794Y-104355469D01*
X269491427Y-104792635D01*
X269825606Y-105127397D01*
X270262456Y-105308793D01*
X270735469Y-105309206D01*
X271172635Y-105128573D01*
X271507397Y-104794394D01*
X271688793Y-104357544D01*
X271689206Y-103884531D01*
X271508573Y-103447365D01*
X271174394Y-103112603D01*
X270737544Y-102931207D01*
X270264531Y-102930794D01*
X269827365Y-103111427D01*
X269492603Y-103445606D01*
X269311207Y-103882456D01*
X269310794Y-104355469D01*
X251000760Y-104355469D01*
X248732290Y-102087000D01*
X269422988Y-102087000D01*
X269491427Y-102252635D01*
X269825606Y-102587397D01*
X270262456Y-102768793D01*
X270735469Y-102769206D01*
X271172635Y-102588573D01*
X271507397Y-102254394D01*
X271688793Y-101817544D01*
X271689206Y-101344531D01*
X271508573Y-100907365D01*
X271174394Y-100572603D01*
X270737544Y-100391207D01*
X270264531Y-100390794D01*
X269827365Y-100571427D01*
X269492603Y-100905606D01*
X269423095Y-101073000D01*
X206276474Y-101073000D01*
X208074004Y-99275469D01*
X269310794Y-99275469D01*
X269491427Y-99712635D01*
X269825606Y-100047397D01*
X270262456Y-100228793D01*
X270735469Y-100229206D01*
X271172635Y-100048573D01*
X271507397Y-99714394D01*
X271688793Y-99277544D01*
X271689206Y-98804531D01*
X271508573Y-98367365D01*
X271174394Y-98032603D01*
X270737544Y-97851207D01*
X270264531Y-97850794D01*
X269827365Y-98031427D01*
X269492603Y-98365606D01*
X269311207Y-98802456D01*
X269310794Y-99275469D01*
X208074004Y-99275469D01*
X212094004Y-95255469D01*
X223030794Y-95255469D01*
X223211427Y-95692635D01*
X223545606Y-96027397D01*
X223982456Y-96208793D01*
X224455469Y-96209206D01*
X224892635Y-96028573D01*
X225227397Y-95694394D01*
X225408793Y-95257544D01*
X225409206Y-94784531D01*
X225228573Y-94347365D01*
X225127135Y-94245750D01*
X269103000Y-94245750D01*
X269103000Y-94848310D01*
X269199673Y-95081699D01*
X269378302Y-95260327D01*
X269611691Y-95357000D01*
X270152704Y-95357000D01*
X269827365Y-95491427D01*
X269492603Y-95825606D01*
X269311207Y-96262456D01*
X269310794Y-96735469D01*
X269491427Y-97172635D01*
X269825606Y-97507397D01*
X270262456Y-97688793D01*
X270735469Y-97689206D01*
X271172635Y-97508573D01*
X271507397Y-97174394D01*
X271688793Y-96737544D01*
X271689206Y-96264531D01*
X271508573Y-95827365D01*
X271174394Y-95492603D01*
X270847826Y-95357000D01*
X271388309Y-95357000D01*
X271621698Y-95260327D01*
X271800327Y-95081699D01*
X271897000Y-94848310D01*
X271897000Y-94245750D01*
X271738250Y-94087000D01*
X270627000Y-94087000D01*
X270627000Y-94107000D01*
X270373000Y-94107000D01*
X270373000Y-94087000D01*
X269261750Y-94087000D01*
X269103000Y-94245750D01*
X225127135Y-94245750D01*
X224894394Y-94012603D01*
X224457544Y-93831207D01*
X223984531Y-93830794D01*
X223547365Y-94011427D01*
X223212603Y-94345606D01*
X223031207Y-94782456D01*
X223030794Y-95255469D01*
X212094004Y-95255469D01*
X214277783Y-93071690D01*
X269103000Y-93071690D01*
X269103000Y-93674250D01*
X269261750Y-93833000D01*
X270373000Y-93833000D01*
X270373000Y-93813000D01*
X270627000Y-93813000D01*
X270627000Y-93833000D01*
X271738250Y-93833000D01*
X271897000Y-93674250D01*
X271897000Y-93071690D01*
X271800327Y-92838301D01*
X271621698Y-92659673D01*
X271388309Y-92563000D01*
X270847296Y-92563000D01*
X271172635Y-92428573D01*
X271507397Y-92094394D01*
X271688793Y-91657544D01*
X271689206Y-91184531D01*
X271508573Y-90747365D01*
X271174394Y-90412603D01*
X270737544Y-90231207D01*
X270264531Y-90230794D01*
X269827365Y-90411427D01*
X269492603Y-90745606D01*
X269311207Y-91182456D01*
X269310794Y-91655469D01*
X269491427Y-92092635D01*
X269825606Y-92427397D01*
X270152174Y-92563000D01*
X269611691Y-92563000D01*
X269378302Y-92659673D01*
X269199673Y-92838301D01*
X269103000Y-93071690D01*
X214277783Y-93071690D01*
X215047134Y-92302339D01*
X215141928Y-92397298D01*
X215409034Y-92508211D01*
X215698253Y-92508463D01*
X215965553Y-92398017D01*
X216170239Y-92193687D01*
X216281152Y-91926581D01*
X216281287Y-91771334D01*
X216783503Y-91269118D01*
X216795435Y-91251260D01*
X216893407Y-91104636D01*
X216932000Y-90910615D01*
X216932000Y-87000736D01*
X216928572Y-86983503D01*
X216893408Y-86806716D01*
X216783503Y-86642233D01*
X216668270Y-86527000D01*
X217157947Y-86527000D01*
X217416075Y-86578345D01*
X217599257Y-86700743D01*
X217721655Y-86883925D01*
X217773000Y-87142053D01*
X217773000Y-92450000D01*
X217781204Y-92533302D01*
X217792622Y-92590705D01*
X217856382Y-92744634D01*
X217888898Y-92793297D01*
X218006703Y-92911102D01*
X218055366Y-92943618D01*
X218209295Y-93007378D01*
X218266698Y-93018796D01*
X218350000Y-93027000D01*
X218700000Y-93027000D01*
X218783303Y-93018795D01*
X218974645Y-92980735D01*
X219128572Y-92916976D01*
X219290783Y-92808589D01*
X219408589Y-92690783D01*
X219516976Y-92528572D01*
X219580735Y-92374645D01*
X219618795Y-92183303D01*
X219627000Y-92100000D01*
X219627000Y-89115469D01*
X269310794Y-89115469D01*
X269491427Y-89552635D01*
X269825606Y-89887397D01*
X270262456Y-90068793D01*
X270735469Y-90069206D01*
X271172635Y-89888573D01*
X271507397Y-89554394D01*
X271688793Y-89117544D01*
X271689206Y-88644531D01*
X271508573Y-88207365D01*
X271174394Y-87872603D01*
X270737544Y-87691207D01*
X270264531Y-87690794D01*
X269827365Y-87871427D01*
X269492603Y-88205606D01*
X269311207Y-88642456D01*
X269310794Y-89115469D01*
X219627000Y-89115469D01*
X219627000Y-82755469D01*
X223030794Y-82755469D01*
X223211427Y-83192635D01*
X223545606Y-83527397D01*
X223982456Y-83708793D01*
X224455469Y-83709206D01*
X224892635Y-83528573D01*
X225227397Y-83194394D01*
X225408793Y-82757544D01*
X225409206Y-82284531D01*
X225228573Y-81847365D01*
X224894394Y-81512603D01*
X224457544Y-81331207D01*
X223984531Y-81330794D01*
X223547365Y-81511427D01*
X223212603Y-81845606D01*
X223031207Y-82282456D01*
X223030794Y-82755469D01*
X219627000Y-82755469D01*
X219627000Y-82100000D01*
X219618795Y-82016697D01*
X219542675Y-81634014D01*
X219478918Y-81480089D01*
X219262145Y-81155665D01*
X219144335Y-81037855D01*
X218819911Y-80821082D01*
X218665986Y-80757325D01*
X218283303Y-80681205D01*
X218200000Y-80673000D01*
X215803000Y-80673000D01*
X215803000Y-74901622D01*
X240292666Y-74901622D01*
X240585416Y-75610132D01*
X241127017Y-76152678D01*
X241835014Y-76446665D01*
X242601622Y-76447334D01*
X243310132Y-76154584D01*
X243852678Y-75612983D01*
X244146665Y-74904986D01*
X244147334Y-74138378D01*
X243854584Y-73429868D01*
X243643375Y-73218290D01*
X263872372Y-73218290D01*
X264423386Y-74551846D01*
X265442787Y-75573028D01*
X266775380Y-76126369D01*
X268218290Y-76127628D01*
X269551846Y-75576614D01*
X270573028Y-74557213D01*
X271126369Y-73224620D01*
X271127628Y-71781710D01*
X270576614Y-70448154D01*
X269557213Y-69426972D01*
X268224620Y-68873631D01*
X266781710Y-68872372D01*
X265448154Y-69423386D01*
X264426972Y-70442787D01*
X263873631Y-71775380D01*
X263872372Y-73218290D01*
X243643375Y-73218290D01*
X243312983Y-72887322D01*
X242604986Y-72593335D01*
X241838378Y-72592666D01*
X241129868Y-72885416D01*
X240587322Y-73427017D01*
X240293335Y-74135014D01*
X240292666Y-74901622D01*
X215803000Y-74901622D01*
X215803000Y-74168000D01*
X215694376Y-73621911D01*
X215663436Y-73575606D01*
X215385042Y-73158959D01*
X209548060Y-67321978D01*
X209085108Y-67012643D01*
X209031602Y-67002000D01*
X208539019Y-66904019D01*
X190550825Y-66904019D01*
X190631789Y-66823196D01*
X190745371Y-66549660D01*
X190745629Y-66253479D01*
X190645605Y-66011401D01*
X192438716Y-64218290D01*
X206622372Y-64218290D01*
X207173386Y-65551846D01*
X208192787Y-66573028D01*
X209525380Y-67126369D01*
X210968290Y-67127628D01*
X212301846Y-66576614D01*
X213323028Y-65557213D01*
X213876369Y-64224620D01*
X213877628Y-62781710D01*
X213326614Y-61448154D01*
X212307213Y-60426972D01*
X210974620Y-59873631D01*
X209531710Y-59872372D01*
X208198154Y-60423386D01*
X207176972Y-61442787D01*
X206623631Y-62775380D01*
X206622372Y-64218290D01*
X192438716Y-64218290D01*
X199036941Y-57620065D01*
X199202456Y-57688793D01*
X199675469Y-57689206D01*
X199927401Y-57585110D01*
X199927401Y-58306581D01*
X197941497Y-60292485D01*
X197831593Y-60456967D01*
X197817034Y-60530158D01*
X197669211Y-60677724D01*
X197555629Y-60951260D01*
X197555371Y-61247441D01*
X197668475Y-61521175D01*
X197877724Y-61730789D01*
X198151260Y-61844371D01*
X198447441Y-61844629D01*
X198721175Y-61731525D01*
X198850041Y-61602883D01*
X198977724Y-61730789D01*
X199251260Y-61844371D01*
X199547441Y-61844629D01*
X199821175Y-61731525D01*
X200030789Y-61522276D01*
X200144371Y-61248740D01*
X200144525Y-61072481D01*
X203332904Y-57884102D01*
X203388881Y-57800327D01*
X203442808Y-57719620D01*
X203481401Y-57525599D01*
X203481401Y-56022687D01*
X203479394Y-56012599D01*
X203442809Y-55828667D01*
X203332904Y-55664184D01*
X201810217Y-54141497D01*
X201645735Y-54031593D01*
X201451714Y-53993000D01*
X196360000Y-53993000D01*
X196165979Y-54031593D01*
X196001497Y-54141497D01*
X194763059Y-55379935D01*
X194597544Y-55311207D01*
X194124531Y-55310794D01*
X193687365Y-55491427D01*
X193352603Y-55825606D01*
X193217000Y-56152174D01*
X193217000Y-55611691D01*
X193120327Y-55378302D01*
X192941699Y-55199673D01*
X192708310Y-55103000D01*
X192105750Y-55103000D01*
X191947000Y-55261750D01*
X191947000Y-56373000D01*
X191967000Y-56373000D01*
X191967000Y-56627000D01*
X191947000Y-56627000D01*
X191947000Y-57738250D01*
X192105750Y-57897000D01*
X192708310Y-57897000D01*
X192941699Y-57800327D01*
X193120327Y-57621698D01*
X193217000Y-57388309D01*
X193217000Y-56847296D01*
X193351427Y-57172635D01*
X193685606Y-57507397D01*
X194122456Y-57688793D01*
X194595469Y-57689206D01*
X195032635Y-57508573D01*
X195367397Y-57174394D01*
X195548793Y-56737544D01*
X195549206Y-56264531D01*
X195479990Y-56097016D01*
X196570006Y-55007000D01*
X197852166Y-55007000D01*
X197700380Y-55037192D01*
X197601892Y-55103000D01*
X197535898Y-55147096D01*
X197303059Y-55379935D01*
X197137544Y-55311207D01*
X196664531Y-55310794D01*
X196227365Y-55491427D01*
X195892603Y-55825606D01*
X195711207Y-56262456D01*
X195710794Y-56735469D01*
X195891427Y-57172635D01*
X196225606Y-57507397D01*
X196662456Y-57688793D01*
X197135469Y-57689206D01*
X197572635Y-57508573D01*
X197907397Y-57174394D01*
X198088793Y-56737544D01*
X198089206Y-56264531D01*
X198019990Y-56097016D01*
X198104407Y-56012599D01*
X198354957Y-56012599D01*
X198251207Y-56262456D01*
X198250794Y-56735469D01*
X198320010Y-56902984D01*
X189642497Y-65580497D01*
X189532593Y-65744979D01*
X189514831Y-65834276D01*
X189370211Y-65978644D01*
X189256629Y-66252180D01*
X189256371Y-66548361D01*
X189369475Y-66822095D01*
X189451256Y-66904019D01*
X155509465Y-66904019D01*
X156301846Y-66576614D01*
X157323028Y-65557213D01*
X157876369Y-64224620D01*
X157877628Y-62781710D01*
X157326614Y-61448154D01*
X156307213Y-60426972D01*
X154974620Y-59873631D01*
X153531710Y-59872372D01*
X152198154Y-60423386D01*
X151176972Y-61442787D01*
X150623631Y-62775380D01*
X150622372Y-64218290D01*
X151173386Y-65551846D01*
X152192787Y-66573028D01*
X152989902Y-66904019D01*
X138670101Y-66904019D01*
X136059832Y-64293750D01*
X139979400Y-64293750D01*
X139979400Y-65150309D01*
X140076073Y-65383698D01*
X140254701Y-65562327D01*
X140488090Y-65659000D01*
X141192250Y-65659000D01*
X141351000Y-65500250D01*
X141351000Y-64135000D01*
X140138150Y-64135000D01*
X139979400Y-64293750D01*
X136059832Y-64293750D01*
X135020208Y-63254126D01*
X134819386Y-63052953D01*
X134424545Y-62889001D01*
X139979400Y-62889001D01*
X139979400Y-63722250D01*
X140138150Y-63881000D01*
X141351000Y-63881000D01*
X141351000Y-63861000D01*
X141605000Y-63861000D01*
X141605000Y-63881000D01*
X141625000Y-63881000D01*
X141625000Y-64135000D01*
X141605000Y-64135000D01*
X141605000Y-65500250D01*
X141763750Y-65659000D01*
X142467910Y-65659000D01*
X142701299Y-65562327D01*
X142879927Y-65383698D01*
X142976600Y-65150309D01*
X142976600Y-64968612D01*
X143008959Y-65017041D01*
X143081537Y-65065536D01*
X143105408Y-65101262D01*
X143524109Y-65381029D01*
X144018000Y-65479270D01*
X144511891Y-65381029D01*
X144930592Y-65101262D01*
X144954463Y-65065536D01*
X145027041Y-65017041D01*
X145336376Y-64554089D01*
X145338231Y-64544762D01*
X145365641Y-64682561D01*
X145645408Y-65101262D01*
X146064109Y-65381029D01*
X146558000Y-65479270D01*
X147051891Y-65381029D01*
X147470592Y-65101262D01*
X147750359Y-64682561D01*
X147848600Y-64188670D01*
X147848600Y-63827330D01*
X147750359Y-63333439D01*
X147470592Y-62914738D01*
X147051891Y-62634971D01*
X146558000Y-62536730D01*
X146064109Y-62634971D01*
X145645408Y-62914738D01*
X145445000Y-63214670D01*
X145445000Y-62508398D01*
X145336376Y-61962309D01*
X145027041Y-61499357D01*
X143980644Y-60452960D01*
X143517692Y-60143625D01*
X142971603Y-60035001D01*
X135234155Y-60035001D01*
X135436752Y-59547093D01*
X135437248Y-58979397D01*
X135220457Y-58454725D01*
X134819386Y-58052953D01*
X134295093Y-57835248D01*
X133727397Y-57834752D01*
X133202725Y-58051543D01*
X132800953Y-58452614D01*
X132583248Y-58976907D01*
X132583213Y-59017131D01*
X131820208Y-58254126D01*
X131619386Y-58052953D01*
X131095093Y-57835248D01*
X130527397Y-57834752D01*
X130002725Y-58051543D01*
X129600953Y-58452614D01*
X129383248Y-58976907D01*
X129382752Y-59544603D01*
X129036754Y-59544603D01*
X129037248Y-58979397D01*
X128820457Y-58454725D01*
X128419386Y-58052953D01*
X127895093Y-57835248D01*
X127327397Y-57834752D01*
X126802725Y-58051543D01*
X126400953Y-58452614D01*
X126183248Y-58976907D01*
X126182752Y-59544603D01*
X125836754Y-59544603D01*
X125837248Y-58979397D01*
X125620457Y-58454725D01*
X125219386Y-58052953D01*
X124695093Y-57835248D01*
X124127397Y-57834752D01*
X123602725Y-58051543D01*
X123200953Y-58452614D01*
X122983248Y-58976907D01*
X122982752Y-59544603D01*
X101752000Y-59544603D01*
X101752000Y-56735469D01*
X185550794Y-56735469D01*
X185731427Y-57172635D01*
X186065606Y-57507397D01*
X186502456Y-57688793D01*
X186975469Y-57689206D01*
X187412635Y-57508573D01*
X187747397Y-57174394D01*
X187928793Y-56737544D01*
X187928794Y-56735469D01*
X188090794Y-56735469D01*
X188271427Y-57172635D01*
X188605606Y-57507397D01*
X189042456Y-57688793D01*
X189515469Y-57689206D01*
X189952635Y-57508573D01*
X190287397Y-57174394D01*
X190423000Y-56847826D01*
X190423000Y-57388309D01*
X190519673Y-57621698D01*
X190698301Y-57800327D01*
X190931690Y-57897000D01*
X191534250Y-57897000D01*
X191693000Y-57738250D01*
X191693000Y-56627000D01*
X191673000Y-56627000D01*
X191673000Y-56373000D01*
X191693000Y-56373000D01*
X191693000Y-55261750D01*
X191534250Y-55103000D01*
X190931690Y-55103000D01*
X190698301Y-55199673D01*
X190519673Y-55378302D01*
X190423000Y-55611691D01*
X190423000Y-56152704D01*
X190288573Y-55827365D01*
X189954394Y-55492603D01*
X189517544Y-55311207D01*
X189044531Y-55310794D01*
X188607365Y-55491427D01*
X188272603Y-55825606D01*
X188091207Y-56262456D01*
X188090794Y-56735469D01*
X187928794Y-56735469D01*
X187929206Y-56264531D01*
X187748573Y-55827365D01*
X187414394Y-55492603D01*
X186977544Y-55311207D01*
X186504531Y-55310794D01*
X186067365Y-55491427D01*
X185732603Y-55825606D01*
X185551207Y-56262456D01*
X185550794Y-56735469D01*
X101752000Y-56735469D01*
X101752000Y-56707936D01*
X106457935Y-52002000D01*
X206041573Y-52002000D01*
X220844441Y-66854375D01*
G36*
X50811207Y-84762456D02*
X50810794Y-85235469D01*
X50991427Y-85672635D01*
X51046147Y-85727451D01*
X50616742Y-85426778D01*
X50370112Y-85372102D01*
X50121331Y-85415968D01*
X49908274Y-85551700D01*
X49763378Y-85758633D01*
X49562660Y-86045288D01*
X49601645Y-86266384D01*
X50511928Y-86903770D01*
X50523399Y-86887387D01*
X50731465Y-87033076D01*
X50719993Y-87049459D01*
X50736376Y-87060930D01*
X50590687Y-87268996D01*
X50574304Y-87257524D01*
X50562833Y-87273907D01*
X50354767Y-87128218D01*
X50366239Y-87111835D01*
X49455957Y-86474448D01*
X49234861Y-86513433D01*
X49034143Y-86800088D01*
X48889247Y-87007022D01*
X48834570Y-87253652D01*
X48878438Y-87502433D01*
X49014170Y-87715489D01*
X49464920Y-88031108D01*
X49323776Y-87972500D01*
X48850763Y-87972087D01*
X48413597Y-88152720D01*
X48078835Y-88486899D01*
X47897439Y-88923749D01*
X47897026Y-89396762D01*
X48077659Y-89833928D01*
X48411838Y-90168690D01*
X48848688Y-90350086D01*
X49321701Y-90350499D01*
X49758867Y-90169866D01*
X49873000Y-90055932D01*
X49873000Y-102315393D01*
X49631278Y-102073249D01*
X49194428Y-101891853D01*
X48721415Y-101891440D01*
X48284249Y-102072073D01*
X47949487Y-102406252D01*
X47768091Y-102843102D01*
X47767678Y-103316115D01*
X47828624Y-103463616D01*
X47822240Y-103470000D01*
X47708000Y-103640970D01*
X47682638Y-103768475D01*
X47667885Y-103842645D01*
X47667885Y-107356895D01*
X45152000Y-104841010D01*
X45152000Y-101235469D01*
X46310794Y-101235469D01*
X46491427Y-101672635D01*
X46825606Y-102007397D01*
X47262456Y-102188793D01*
X47735469Y-102189206D01*
X48172635Y-102008573D01*
X48507397Y-101674394D01*
X48688793Y-101237544D01*
X48689206Y-100764531D01*
X48508573Y-100327365D01*
X48174394Y-99992603D01*
X47737544Y-99811207D01*
X47264531Y-99810794D01*
X46827365Y-99991427D01*
X46492603Y-100325606D01*
X46311207Y-100762456D01*
X46310794Y-101235469D01*
X45152000Y-101235469D01*
X45152000Y-91477408D01*
X46440142Y-91477408D01*
X46620775Y-91914574D01*
X46954954Y-92249336D01*
X47391804Y-92430732D01*
X47864817Y-92431145D01*
X48301983Y-92250512D01*
X48636745Y-91916333D01*
X48818141Y-91479483D01*
X48818554Y-91006470D01*
X48637921Y-90569304D01*
X48303742Y-90234542D01*
X47866892Y-90053146D01*
X47393879Y-90052733D01*
X46956713Y-90233366D01*
X46621951Y-90567545D01*
X46440555Y-91004395D01*
X46440142Y-91477408D01*
X45152000Y-91477408D01*
X45152000Y-90268137D01*
X50920225Y-84499912D01*
X50811207Y-84762456D01*
X50811207Y-84762456D01*
G37*
X50811207Y-84762456D02*
X50810794Y-85235469D01*
X50991427Y-85672635D01*
X51046147Y-85727451D01*
X50616742Y-85426778D01*
X50370112Y-85372102D01*
X50121331Y-85415968D01*
X49908274Y-85551700D01*
X49763378Y-85758633D01*
X49562660Y-86045288D01*
X49601645Y-86266384D01*
X50511928Y-86903770D01*
X50523399Y-86887387D01*
X50731465Y-87033076D01*
X50719993Y-87049459D01*
X50736376Y-87060930D01*
X50590687Y-87268996D01*
X50574304Y-87257524D01*
X50562833Y-87273907D01*
X50354767Y-87128218D01*
X50366239Y-87111835D01*
X49455957Y-86474448D01*
X49234861Y-86513433D01*
X49034143Y-86800088D01*
X48889247Y-87007022D01*
X48834570Y-87253652D01*
X48878438Y-87502433D01*
X49014170Y-87715489D01*
X49464920Y-88031108D01*
X49323776Y-87972500D01*
X48850763Y-87972087D01*
X48413597Y-88152720D01*
X48078835Y-88486899D01*
X47897439Y-88923749D01*
X47897026Y-89396762D01*
X48077659Y-89833928D01*
X48411838Y-90168690D01*
X48848688Y-90350086D01*
X49321701Y-90350499D01*
X49758867Y-90169866D01*
X49873000Y-90055932D01*
X49873000Y-102315393D01*
X49631278Y-102073249D01*
X49194428Y-101891853D01*
X48721415Y-101891440D01*
X48284249Y-102072073D01*
X47949487Y-102406252D01*
X47768091Y-102843102D01*
X47767678Y-103316115D01*
X47828624Y-103463616D01*
X47822240Y-103470000D01*
X47708000Y-103640970D01*
X47682638Y-103768475D01*
X47667885Y-103842645D01*
X47667885Y-107356895D01*
X45152000Y-104841010D01*
X45152000Y-101235469D01*
X46310794Y-101235469D01*
X46491427Y-101672635D01*
X46825606Y-102007397D01*
X47262456Y-102188793D01*
X47735469Y-102189206D01*
X48172635Y-102008573D01*
X48507397Y-101674394D01*
X48688793Y-101237544D01*
X48689206Y-100764531D01*
X48508573Y-100327365D01*
X48174394Y-99992603D01*
X47737544Y-99811207D01*
X47264531Y-99810794D01*
X46827365Y-99991427D01*
X46492603Y-100325606D01*
X46311207Y-100762456D01*
X46310794Y-101235469D01*
X45152000Y-101235469D01*
X45152000Y-91477408D01*
X46440142Y-91477408D01*
X46620775Y-91914574D01*
X46954954Y-92249336D01*
X47391804Y-92430732D01*
X47864817Y-92431145D01*
X48301983Y-92250512D01*
X48636745Y-91916333D01*
X48818141Y-91479483D01*
X48818554Y-91006470D01*
X48637921Y-90569304D01*
X48303742Y-90234542D01*
X47866892Y-90053146D01*
X47393879Y-90052733D01*
X46956713Y-90233366D01*
X46621951Y-90567545D01*
X46440555Y-91004395D01*
X46440142Y-91477408D01*
X45152000Y-91477408D01*
X45152000Y-90268137D01*
X50920225Y-84499912D01*
X50811207Y-84762456D01*
M02*
