M48
INCH,TZ
T1C0.015
T2C0.016
T3C0.030
T4C0.031
T5C0.040
T6C0.043
T7C0.126
T8C0.118
T9C0.126
T10C0.134
%
G90
G05
T1
X65000Y-32835
X65472Y-32835
X66378Y-34213
X66693Y-34055
X67559Y-39922
X67874Y-38898
X69685Y-43425
X70158Y-37559
X70237Y-39055
X70788Y-32520
X70945Y-35984
X72993Y-27953
X73031Y-41102
X73622Y-35197
X74094Y-41102
X74134Y-33386
X74804Y-26142
X75379Y-33712
X76535Y-35157
X78071Y-24055
X78504Y-24055
X79134Y-27795
X79606Y-27795
X81732Y-40276
X82835Y-35118
X83622Y-35433
T2
X84252Y-32677
X84252Y-33071
X84252Y-33465
X84341Y-35886
X84508Y-34104
X84646Y-32677
X84646Y-33071
X84646Y-33465
X84783Y-35620
X84841Y-34216
X84843Y-34577
X84864Y-36134
X85039Y-33071
X85433Y-33071
X85827Y-33071
X86122Y-34252
X86122Y-34646
X86122Y-35039
X86122Y-35433
X86122Y-35827
X86122Y-36220
X87402Y-34449
X87402Y-34843
X87402Y-35236
X87402Y-35630
X87598Y-34252
X87598Y-34646
X87598Y-35039
X87598Y-35433
X87598Y-35827
X88780Y-34252
X88780Y-35630
X88809Y-33465
X88809Y-33858
X88976Y-33268
X88976Y-33661
X88976Y-34055
X88976Y-35827
X89173Y-35630
X89370Y-35827
T3
X16535Y-34976
X16535Y-35976
X16535Y-36976
X16535Y-37976
X16535Y-38976
X16535Y-39976
X16535Y-40976
X18701Y-39764
X18752Y-35922
X19274Y-40583
X19325Y-35103
X19848Y-41402
X19899Y-34284
X20422Y-42221
X20472Y-33465
X20995Y-43040
X21046Y-32645
X21569Y-43860
X21620Y-31826
X22142Y-44679
X22193Y-31007
X67562Y-29232
X68562Y-29232
X69480Y-48937
X69480Y-53937
X69562Y-29232
X70480Y-48937
X70480Y-53937
X70562Y-29232
X71480Y-48937
X71480Y-53937
X72480Y-48937
X72480Y-53937
X73480Y-48937
X73480Y-53937
X73520Y-22244
X74480Y-48937
X74480Y-53937
X74520Y-22244
X75480Y-48937
X75480Y-53937
X75520Y-22244
X76027Y-29213
X76480Y-48937
X76480Y-53937
X76520Y-22244
X77027Y-29213
X77520Y-22244
X78027Y-29213
X78520Y-22244
X79027Y-29213
X79520Y-22244
X88276Y-32488
X88276Y-37409
X106496Y-34992
X106496Y-35992
X106496Y-36992
X106496Y-37992
X106496Y-38992
X106496Y-39992
X106496Y-40992
T4
X61882Y-34717
X61882Y-35717
X61882Y-36717
X61882Y-37717
X61882Y-38717
X61882Y-39717
X61882Y-40717
X61882Y-41717
X61882Y-42717
X64882Y-34717
X64882Y-35717
X64882Y-36717
X64882Y-37717
X64882Y-38717
X64882Y-39717
X64882Y-40717
X64882Y-41717
X64882Y-42717
X69001Y-34373
X69001Y-35161
X69001Y-35948
X69001Y-36736
X69001Y-37523
X69001Y-38310
X69001Y-39098
X69001Y-39885
X69001Y-40673
X69001Y-41460
X77663Y-34373
X77663Y-35161
X77663Y-35948
X77663Y-36736
X77663Y-37523
X77663Y-38310
X77663Y-39098
X77663Y-39885
X77663Y-40673
X77663Y-41460
T5
X21063Y-36992
X21063Y-37992
X21063Y-38992
X55700Y-25200
X56700Y-25200
X57700Y-25200
X61969Y-29748
X61969Y-30748
X61969Y-31748
X61969Y-32748
X99152Y-48545
X100152Y-48545
X101152Y-48545
X102152Y-48545
T6
X48980Y-23331
X48980Y-25300
X50240Y-23331
X50240Y-25300
X51500Y-23331
X51500Y-25300
X52760Y-23331
X52760Y-25300
T7
X17126Y-32480
X17126Y-43504
X42224Y-25000
X42224Y-50984
X60728Y-25000
X60728Y-50984
X82776Y-25000
X82776Y-50984
X105315Y-28543
X105315Y-47441
T8
X95362Y-29339
X95362Y-47055
T9
X95354Y-26181
X95354Y-49803
T10
X26476Y-32087
X26476Y-43898
X29626Y-32087
X29626Y-43898
T0
M30
